<svg id="Capa_1" data-name="Capa 1" xmlns="http://www.w3.org/2000/svg" viewBox="0 0 40.89 30.42"><defs><style>.cls-1{fill:#70438b;}.cls-2{fill:#fff;}</style></defs><title>bgcategoriasR1</title><path id="_Trazado_" data-name="&lt;Trazado&gt;" class="cls-1" d="M36.49,30.56l-33-.08A3.35,3.35,0,0,0,.14,27.13V23.64A3.37,3.37,0,0,0,3.5,20.27,3.32,3.32,0,0,0,.18,16.93V13.67a3.37,3.37,0,0,0,3.35-3.33A3.37,3.37,0,0,0,.21,7l0-3.49A3.35,3.35,0,0,0,3.58.14l33,.09A4.45,4.45,0,0,1,41,4.7L41,26.12A4.46,4.46,0,0,1,36.49,30.56Z" transform="translate(-0.14 -0.14)"/><path class="cls-2" d="M31.81,10.23v1.13H18.15V10.23Zm-15.94.57a1.71,1.71,0,1,1-1.71-1.71A1.71,1.71,0,0,1,15.87,10.8Zm-1.14,0a.57.57,0,0,0-.57-.57.57.57,0,1,0,.57.57Zm3.42,5.12H31.81V14.78H18.15Zm-2.28-.57a1.71,1.71,0,1,1-1.71-1.71A1.72,1.72,0,0,1,15.87,15.35Zm-1.14,0a.58.58,0,0,0-.57-.57.57.57,0,0,0,0,1.14A.58.58,0,0,0,14.73,15.35Zm3.42,5.13H31.81V19.34H18.15Zm-2.28-.57a1.71,1.71,0,1,1-1.71-1.71A1.72,1.72,0,0,1,15.87,19.91Zm-1.14,0a.57.57,0,0,0-.57-.57.56.56,0,0,0-.57.57.57.57,0,0,0,.57.57A.58.58,0,0,0,14.73,19.91Z" transform="translate(-0.14 -0.14)"/></svg>