<svg id="Capa_1" data-name="Capa 1" xmlns="http://www.w3.org/2000/svg" viewBox="0 0 40.89 30.42"><defs><style>.cls-1{fill:#70438b;}.cls-2{fill:#fff;}</style></defs><title>bg-filtrarR1</title><path id="_Trazado_" data-name="&lt;Trazado&gt;" class="cls-1" d="M36.49,30.27l-33-.09A3.35,3.35,0,0,0,.14,26.83V23.34A3.36,3.36,0,0,0,3.5,20,3.34,3.34,0,0,0,.18,16.63V13.37a3.36,3.36,0,0,0,3.35-3.32A3.38,3.38,0,0,0,.21,6.66l0-3.49A3.34,3.34,0,0,0,3.58-.15l33,.08A4.45,4.45,0,0,1,41,4.4L41,25.83A4.46,4.46,0,0,1,36.49,30.27Z" transform="translate(-0.14 0.15)"/><path class="cls-2" d="M14.58,6.46l7.23,10.33v8.7h3.36v-8.7L32.41,6.46Zm9.47,10v7.93H22.93V16.44l-6.2-8.86H30.26Z" transform="translate(-0.14 0.15)"/></svg>