<svg xmlns="http://www.w3.org/2000/svg" xmlns:xlink="http://www.w3.org/1999/xlink" viewBox="0 0 320 480.66"><defs><style>.cls-1{fill:none;}.cls-2{fill:#9866a8;}.cls-3{fill:#faedf6;opacity:0.9;}.cls-4{opacity:0.1;fill:url(#New_Pattern);}</style><pattern id="New_Pattern" data-name="New Pattern" width="434.06" height="422.4" patternUnits="userSpaceOnUse" viewBox="0 0 434.06 422.4"><rect class="cls-1" width="434.06" height="422.4"/><path class="cls-2" d="M294.44,363.17a.89.89,0,0,1-.62-.24l-5.51-5.17a.9.9,0,0,1,0-1.27.91.91,0,0,1,1.28,0l5.5,5.16a.89.89,0,0,1,0,1.28A.86.86,0,0,1,294.44,363.17Z"/><path class="cls-2" d="M289.1,363.34a.93.93,0,0,1-.62-.24.91.91,0,0,1,0-1.28l5.17-5.5a.9.9,0,0,1,1.31,1.23l-5.16,5.51A.9.9,0,0,1,289.1,363.34Z"/><path class="cls-2" d="M231.37,355.64a.86.86,0,0,1-.62-.25l-5.51-5.16a.91.91,0,0,1,1.24-1.32l5.5,5.17a.89.89,0,0,1,0,1.27A.87.87,0,0,1,231.37,355.64Z"/><path class="cls-2" d="M226,355.81a.91.91,0,0,1-.66-1.52l5.17-5.51a.9.9,0,1,1,1.31,1.24l-5.16,5.5A.91.91,0,0,1,226,355.81Z"/><path class="cls-2" d="M427.16,363a.89.89,0,0,1-.62-.25l-5.5-5.16a.9.9,0,0,1,1.23-1.32l5.51,5.17a.9.9,0,0,1,0,1.27A.91.91,0,0,1,427.16,363Z"/><path class="cls-2" d="M421.83,363.21a.86.86,0,0,1-.62-.25.89.89,0,0,1,0-1.27l5.16-5.51a.91.91,0,0,1,1.32,1.24l-5.17,5.5A.87.87,0,0,1,421.83,363.21Z"/><path class="cls-2" d="M362.21,391.12a.93.93,0,0,1-.62-.24l-5.5-5.17a.88.88,0,0,1,0-1.27.9.9,0,0,1,1.27,0l5.51,5.16a.91.91,0,0,1,0,1.28A.9.9,0,0,1,362.21,391.12Z"/><path class="cls-2" d="M356.87,391.29a.89.89,0,0,1-.61-.24.9.9,0,0,1,0-1.28l5.16-5.5a.91.91,0,0,1,1.28,0,.9.9,0,0,1,0,1.27L357.53,391A.9.9,0,0,1,356.87,391.29Z"/><path class="cls-2" d="M324,378h15.14a.9.9,0,0,0,.78-1.35l-7.58-13.11a.9.9,0,0,0-.78-.45h0a.91.91,0,0,0-.79.45l-7.56,13.12a.9.9,0,0,0,0,.9.91.91,0,0,0,.79.45Zm10.57-7h0l3,5.2h-12l6-10.41Z"/><path class="cls-2" d="M389.52,433.13a.89.89,0,0,0,.64-.63l3.91-14.64a.91.91,0,0,0-.24-.87.92.92,0,0,0-.87-.23l-14.62,3.93a.9.9,0,0,0-.64.64.93.93,0,0,0,.23.87l10.72,10.7a.91.91,0,0,0,.64.27A.66.66,0,0,0,389.52,433.13Zm2.4-14.22-1.55,5.8h0l-1.55,5.81-8.5-8.49Z"/><path class="cls-2" d="M265,348.2a.87.87,0,0,0,.64-.64l2-7.31h0l1.95-7.32a.89.89,0,0,0-1.1-1.1l-14.63,3.93a.92.92,0,0,0-.64.64.91.91,0,0,0,.24.87L264.14,348a.9.9,0,0,0,.64.26A.85.85,0,0,0,265,348.2Zm2.4-14.22-1.55,5.8h0l-1.55,5.81-8.5-8.49Z"/><path class="cls-2" d="M392.81,352.76l13.11-7.58a.9.9,0,0,0,.45-.78.89.89,0,0,0-.45-.78l-13.12-7.57a.88.88,0,0,0-.9,0,.87.87,0,0,0-.45.78V352a.9.9,0,0,0,.9.9A.92.92,0,0,0,392.81,352.76Zm10.85-8.36-5.2,3h0l-5.2,3v-12Z"/><path class="cls-2" d="M255.28,428.4l6.55-3.79h0l6.56-3.79a.9.9,0,0,0,0-1.56l-13.12-7.56a.86.86,0,0,0-.9,0,.88.88,0,0,0-.45.78v15.14a.9.9,0,0,0,.9.9A.92.92,0,0,0,255.28,428.4ZM266.13,420l-5.2,3h0l-5.2,3V414Z"/><path class="cls-2" d="M349.05,411.43a6.65,6.65,0,1,0-6.65,6.65A6.66,6.66,0,0,0,349.05,411.43Zm-1.81,0a4.84,4.84,0,1,1-4.84-4.84A4.84,4.84,0,0,1,347.24,411.43Z"/><path class="cls-2" d="M320,347.33a6.65,6.65,0,1,0-6.64,6.65A6.66,6.66,0,0,0,320,347.33Zm-1.8,0a4.85,4.85,0,1,1-4.84-4.84A4.84,4.84,0,0,1,318.22,347.33Z"/><path class="cls-2" d="M303.79,421a.9.9,0,0,1-.9-.9,4.85,4.85,0,0,0-9.69,0,.9.9,0,0,1-1.8,0,6.65,6.65,0,1,1,13.29,0A.9.9,0,0,1,303.79,421Z"/><path class="cls-2" d="M243.31,374.31a.9.9,0,0,1-.91-.9,4.82,4.82,0,1,0-9.63,0,.9.9,0,1,1-1.8,0,6.62,6.62,0,1,1,13.24,0A.9.9,0,0,1,243.31,374.31Z"/><path class="cls-2" d="M376.66,383.72a6.62,6.62,0,1,1,0-13.24.9.9,0,0,1,0,1.8,4.82,4.82,0,1,0,0,9.63.91.91,0,0,1,0,1.81Z"/><path class="cls-2" d="M300,335.05a6.62,6.62,0,1,1,0-13.24.91.91,0,1,1,0,1.81,4.82,4.82,0,1,0,0,9.63.9.9,0,1,1,0,1.8Z"/><path class="cls-2" d="M414.79,382.81V371.39a.9.9,0,0,0-.9-.91H402.46a.9.9,0,0,0-.9.91v11.42a.9.9,0,0,0,.9.9h11.43A.9.9,0,0,0,414.79,382.81Zm-11.43-10.52H413v9.62h-9.63Z"/><path class="cls-2" d="M285.6,388.52V377.1a.9.9,0,0,0-.9-.9H273.28a.9.9,0,0,0-.91.9v11.42a.91.91,0,0,0,.91.91H284.7A.9.9,0,0,0,285.6,388.52ZM274.18,378h9.62v9.62h-9.62Z"/><path class="cls-2" d="M367.39,334.15V322.72a.9.9,0,0,0-.9-.9H355.06a.9.9,0,0,0-.9.9v11.43a.91.91,0,0,0,.9.9h11.43A.9.9,0,0,0,367.39,334.15ZM356,323.62h9.62v9.62H356Z"/><path class="cls-2" d="M382.85,403.41c-1.71,0-2.45-1.38-3.05-2.48s-1.1-1.94-2.2-1.94a.91.91,0,0,1,0-1.81c2.23,0,3.13,1.67,3.79,2.89s.88,1.54,1.46,1.54a.9.9,0,1,1,0,1.8Z"/><path class="cls-2" d="M393.34,403.41c-1.71,0-2.45-1.37-3-2.48s-1.1-1.94-2.19-1.94a.91.91,0,0,1,0-1.81c2.22,0,3.12,1.67,3.78,2.89s.89,1.54,1.46,1.54a.9.9,0,1,1,0,1.8Z"/><path class="cls-2" d="M382.85,403.41a.9.9,0,1,1,0-1.8c.58,0,.87-.45,1.46-1.54s1.56-2.89,3.79-2.89a.91.91,0,0,1,0,1.81c-1.1,0-1.55.74-2.2,1.94S384.56,403.41,382.85,403.41Z"/><path class="cls-2" d="M398.59,398.09"/><path class="cls-2" d="M393.34,403.41a.9.9,0,0,1,0-1.8c.58,0,.88-.45,1.47-1.54s1.56-2.89,3.78-2.89h0a.91.91,0,0,1,0,1.81h0c-1.1,0-1.53.7-2.2,1.94S395.05,403.41,393.34,403.41Z"/><path class="cls-2" d="M236.92,398.07c-1.71,0-2.45-1.38-3-2.49s-1.1-1.94-2.2-1.94a.9.9,0,1,1,0-1.8c2.23,0,3.13,1.67,3.79,2.89s.88,1.53,1.46,1.53a.91.91,0,0,1,0,1.81Z"/><path class="cls-2" d="M247.41,398.07c-1.71,0-2.45-1.38-3-2.49s-1.1-1.94-2.19-1.94a.9.9,0,1,1,0-1.8c2.22,0,3.12,1.67,3.78,2.89s.89,1.53,1.46,1.53a.91.91,0,1,1,0,1.81Z"/><path class="cls-2" d="M236.92,398.07a.91.91,0,0,1,0-1.81c.57,0,.87-.44,1.46-1.53s1.56-2.89,3.79-2.89a.9.9,0,0,1,0,1.8c-1.1,0-1.55.74-2.2,1.94S238.63,398.07,236.92,398.07Z"/><path class="cls-2" d="M252.66,392.74"/><path class="cls-2" d="M247.41,398.07a.91.91,0,0,1,0-1.81c.58,0,.88-.44,1.46-1.53s1.56-2.89,3.79-2.89h0a.9.9,0,0,1,0,1.8h0c-1.1,0-1.53.7-2.2,1.94S249.12,398.07,247.41,398.07Z"/><path class="cls-2" d="M335.09,344.1a.9.9,0,0,1-.9-.91c0-2.22,1.67-3.12,2.89-3.78s1.53-.89,1.53-1.46a.91.91,0,1,1,1.81,0c0,1.71-1.38,2.45-2.49,3.05s-1.94,1.1-1.94,2.19A.9.9,0,0,1,335.09,344.1Z"/><path class="cls-2" d="M335.09,333.6a.9.9,0,0,1-.9-.9c0-2.23,1.67-3.13,2.89-3.79s1.53-.88,1.53-1.46a.91.91,0,0,1,1.81,0c0,1.71-1.38,2.46-2.49,3.05s-1.94,1.1-1.94,2.2A.9.9,0,0,1,335.09,333.6Z"/><path class="cls-2" d="M339.51,338.85a.9.9,0,0,1-.9-.9c0-.58-.44-.88-1.53-1.47s-2.89-1.55-2.89-3.78a.9.9,0,1,1,1.8,0c0,1.09.74,1.55,1.94,2.2s2.49,1.34,2.49,3.05A.9.9,0,0,1,339.51,338.85Z"/><path class="cls-2" d="M335.09,322.21"/><path class="cls-2" d="M339.51,328.36a.91.91,0,0,1-.9-.91c0-.57-.44-.87-1.53-1.46s-2.89-1.56-2.89-3.78a.9.9,0,1,1,1.8,0c0,1.09.74,1.54,1.94,2.19s2.49,1.34,2.49,3.05A.91.91,0,0,1,339.51,328.36Z"/><path class="cls-2" d="M302.92,399a.91.91,0,0,1-.91-.9c0-2.23,1.67-3.13,2.89-3.79s1.54-.89,1.54-1.46a.9.9,0,1,1,1.8,0c0,1.71-1.38,2.45-2.48,3.05s-1.94,1.1-1.94,2.2A.91.91,0,0,1,302.92,399Z"/><path class="cls-2" d="M302.92,388.49a.9.9,0,0,1-.91-.9c0-2.22,1.67-3.13,2.89-3.78s1.54-.89,1.54-1.46a.9.9,0,1,1,1.8,0c0,1.7-1.38,2.45-2.48,3s-1.94,1.1-1.94,2.19A.9.9,0,0,1,302.92,388.49Z"/><path class="cls-2" d="M307.34,393.74a.9.9,0,0,1-.9-.9c0-.58-.45-.87-1.54-1.46s-2.89-1.56-2.89-3.79a.91.91,0,0,1,1.81,0c0,1.1.73,1.55,1.94,2.2s2.48,1.34,2.48,3A.9.9,0,0,1,307.34,393.74Z"/><path class="cls-2" d="M302.92,377.1"/><path class="cls-2" d="M307.34,383.25a.9.9,0,0,1-.9-.9c0-.58-.45-.88-1.54-1.47S302,379.32,302,377.1a.91.91,0,0,1,1.81,0c0,1.09.73,1.55,1.94,2.2s2.48,1.34,2.48,3.05A.9.9,0,0,1,307.34,383.25Z"/><path class="cls-2" d="M236.88,414.16H223.93a.9.9,0,1,1,0-1.8h12.95a.9.9,0,1,1,0,1.8Z"/><path class="cls-2" d="M365.14,354H352.19a.91.91,0,0,1,0-1.81h12.95a.91.91,0,0,1,0,1.81Z"/><path class="cls-2" d="M416.17,324.76H403.22a.91.91,0,0,1,0-1.81h12.95a.91.91,0,0,1,0,1.81Z"/><path class="cls-2" d="M233,333.91a.93.93,0,0,1-.64-.26.91.91,0,0,1,0-1.28l9.16-9.15a.9.9,0,1,1,1.27,1.27l-9.15,9.16A.93.93,0,0,1,233,333.91Z"/><path class="cls-2" d="M409.7,427.77a.91.91,0,0,1-.64-1.54l9.16-9.16a.9.9,0,0,1,1.27,0,.91.91,0,0,1,0,1.28l-9.15,9.15A.9.9,0,0,1,409.7,427.77Z"/><path class="cls-2" d="M324.47,419.85h0a3.15,3.15,0,0,0,1-4.36,3.16,3.16,0,0,0-5.76,1,3.17,3.17,0,0,0,2.38,3.79,2.92,2.92,0,0,0,.71.08A3.07,3.07,0,0,0,324.47,419.85Zm-.48-.76Zm-.9-3.24a1.41,1.41,0,0,1,.85.6,1.36,1.36,0,0,1-1.46,2.05,1.32,1.32,0,0,1-.84-.6,1.33,1.33,0,0,1-.18-1,1.32,1.32,0,0,1,.6-.84,1.34,1.34,0,0,1,.72-.21A1.63,1.63,0,0,1,323.09,415.85Z"/><path class="cls-2" d="M266.11,367.78h0a3.17,3.17,0,0,0-3.38-5.36,3.17,3.17,0,0,0,1,5.77,3.36,3.36,0,0,0,.71.08A3.15,3.15,0,0,0,266.11,367.78Zm-.47-.76h0Zm-.91-3.24a1.34,1.34,0,0,1,.85.6,1.36,1.36,0,0,1-1.45,2.05,1.35,1.35,0,0,1-.85-.6,1.35,1.35,0,0,1,.43-1.88,1.29,1.29,0,0,1,.72-.21A1,1,0,0,1,264.73,363.78Z"/><path class="cls-2" d="M390.57,366.66h0a3.17,3.17,0,1,0-3.37-5.36,3.1,3.1,0,0,0-1.4,2,3.16,3.16,0,0,0,3.09,3.87A3.25,3.25,0,0,0,390.57,366.66Zm-.48-.77Zm-.91-3.24a1.37,1.37,0,0,1,1,1.63,1.38,1.38,0,0,1-.6.85,1.36,1.36,0,0,1-2.05-1.46,1.32,1.32,0,0,1,.6-.84,1.34,1.34,0,0,1,.72-.21Z"/><path class="cls-2" d="M77.4,363.17a.89.89,0,0,1-.61-.24l-5.51-5.17a.9.9,0,0,1,0-1.27.91.91,0,0,1,1.28,0l5.5,5.16a.9.9,0,0,1-.62,1.56Z"/><path class="cls-2" d="M72.07,363.34a.93.93,0,0,1-.62-.24.91.91,0,0,1,0-1.28l5.17-5.5a.9.9,0,0,1,1.31,1.23l-5.16,5.51A.9.9,0,0,1,72.07,363.34Z"/><path class="cls-2" d="M14.33,355.64a.85.85,0,0,1-.61-.25l-5.51-5.16a.91.91,0,0,1,1.24-1.32l5.5,5.17a.9.9,0,0,1,0,1.27A.91.91,0,0,1,14.33,355.64Z"/><path class="cls-2" d="M9,355.81a.91.91,0,0,1-.66-1.52l5.16-5.51A.91.91,0,0,1,14.82,350l-5.16,5.5A.91.91,0,0,1,9,355.81Z"/><path class="cls-2" d="M210.13,363a.89.89,0,0,1-.62-.25l-5.5-5.16a.9.9,0,0,1,1.23-1.32l5.51,5.17a.9.9,0,0,1,0,1.27A.91.91,0,0,1,210.13,363Z"/><path class="cls-2" d="M204.79,363.21a.85.85,0,0,1-.61-.25.88.88,0,0,1,0-1.27l5.16-5.51a.91.91,0,1,1,1.32,1.24l-5.17,5.5A.91.91,0,0,1,204.79,363.21Z"/><path class="cls-2" d="M145.18,391.12a.91.91,0,0,1-.62-.24l-5.51-5.17a.9.9,0,0,1,0-1.27.91.91,0,0,1,1.28,0l5.5,5.16a.9.9,0,0,1-.61,1.56Z"/><path class="cls-2" d="M139.84,391.29a.89.89,0,0,1-.61-.24.9.9,0,0,1,0-1.28l5.17-5.5a.9.9,0,0,1,1.27,0,.88.88,0,0,1,0,1.27L140.5,391A.9.9,0,0,1,139.84,391.29Z"/><path class="cls-2" d="M107,378h15.15a.9.9,0,0,0,.78-1.35l-7.58-13.11a.91.91,0,0,0-.78-.45h0a.9.9,0,0,0-.78.45l-7.56,13.12A.9.9,0,0,0,107,378Zm10.57-7h0l3,5.2h-12l6-10.41Z"/><path class="cls-2" d="M172.49,433.13a.9.9,0,0,0,.64-.63L177,417.86a.91.91,0,0,0-.24-.87.93.93,0,0,0-.87-.23l-14.62,3.93a.9.9,0,0,0-.64.64.93.93,0,0,0,.23.87l10.72,10.7a.9.9,0,0,0,.63.27A.67.67,0,0,0,172.49,433.13Zm2.4-14.22-1.55,5.8h0l-1.55,5.81L163.28,422Z"/><path class="cls-2" d="M48,348.2a.88.88,0,0,0,.64-.64l2-7.31h0l2-7.32a.9.9,0,0,0-1.11-1.1L36.8,335.76a.92.92,0,0,0-.64.64.91.91,0,0,0,.24.87L47.11,348a.9.9,0,0,0,.64.26A.85.85,0,0,0,48,348.2ZM50.38,334l-1.55,5.8h0l-1.55,5.81-8.5-8.49Z"/><path class="cls-2" d="M175.78,352.76l13.11-7.58a.9.9,0,0,0,.45-.78.89.89,0,0,0-.45-.78l-13.12-7.57a.91.91,0,0,0-1.36.79V352a.91.91,0,0,0,.46.78.87.87,0,0,0,.45.12A.92.92,0,0,0,175.78,352.76Zm10.85-8.36-5.2,3h0l-5.2,3v-12Z"/><path class="cls-2" d="M38.25,428.4l6.55-3.79h0l6.56-3.79a.9.9,0,0,0,0-1.56L38.24,411.7a.88.88,0,0,0-.91,0,.9.9,0,0,0-.45.78v15.14a.91.91,0,0,0,.46.78.87.87,0,0,0,.45.12A.92.92,0,0,0,38.25,428.4ZM49.1,420l-5.2,3h0l-5.2,3V414Z"/><path class="cls-2" d="M132,411.43a6.65,6.65,0,1,0-6.64,6.65A6.65,6.65,0,0,0,132,411.43Zm-1.8,0a4.84,4.84,0,1,1-4.84-4.84A4.84,4.84,0,0,1,130.21,411.43Z"/><path class="cls-2" d="M103,347.33A6.65,6.65,0,1,0,96.34,354,6.66,6.66,0,0,0,103,347.33Zm-1.8,0a4.85,4.85,0,1,1-4.85-4.84A4.85,4.85,0,0,1,101.19,347.33Z"/><path class="cls-2" d="M86.76,421a.9.9,0,0,1-.9-.9,4.85,4.85,0,0,0-9.69,0,.9.9,0,1,1-1.8,0,6.65,6.65,0,1,1,13.29,0A.9.9,0,0,1,86.76,421Z"/><path class="cls-2" d="M26.27,374.31a.9.9,0,0,1-.9-.9,4.82,4.82,0,1,0-9.63,0,.9.9,0,0,1-1.8,0,6.62,6.62,0,1,1,13.24,0A.9.9,0,0,1,26.27,374.31Z"/><path class="cls-2" d="M159.63,383.72a6.62,6.62,0,1,1,0-13.24.9.9,0,1,1,0,1.8,4.82,4.82,0,1,0,0,9.63.91.91,0,0,1,0,1.81Z"/><path class="cls-2" d="M83,335.05a6.62,6.62,0,1,1,0-13.24.91.91,0,0,1,0,1.81,4.82,4.82,0,1,0,0,9.63.9.9,0,1,1,0,1.8Z"/><path class="cls-2" d="M197.76,382.81V371.39a.9.9,0,0,0-.9-.91H185.43a.9.9,0,0,0-.9.91v11.42a.9.9,0,0,0,.9.9h11.43A.9.9,0,0,0,197.76,382.81Zm-11.43-10.52H196v9.62h-9.62Z"/><path class="cls-2" d="M68.57,388.52V377.1a.9.9,0,0,0-.9-.9H56.24a.9.9,0,0,0-.9.9v11.42a.91.91,0,0,0,.9.91H67.67A.9.9,0,0,0,68.57,388.52ZM57.15,378h9.62v9.62H57.15Z"/><path class="cls-2" d="M150.36,334.15V322.72a.9.9,0,0,0-.9-.9H138a.9.9,0,0,0-.9.9v11.43a.9.9,0,0,0,.9.9h11.43A.9.9,0,0,0,150.36,334.15Zm-11.42-10.53h9.62v9.62h-9.62Z"/><path class="cls-2" d="M165.82,403.41c-1.71,0-2.45-1.38-3-2.48s-1.1-1.94-2.2-1.94a.91.91,0,0,1,0-1.81c2.23,0,3.13,1.67,3.79,2.89s.88,1.54,1.46,1.54a.9.9,0,1,1,0,1.8Z"/><path class="cls-2" d="M176.31,403.41c-1.71,0-2.45-1.37-3.05-2.48s-1.1-1.94-2.19-1.94a.91.91,0,1,1,0-1.81c2.22,0,3.12,1.67,3.78,2.89s.89,1.54,1.46,1.54a.9.9,0,1,1,0,1.8Z"/><path class="cls-2" d="M165.82,403.41a.9.9,0,1,1,0-1.8c.57,0,.87-.45,1.46-1.54s1.56-2.89,3.79-2.89a.91.91,0,0,1,0,1.81c-1.1,0-1.55.74-2.2,1.94S167.53,403.41,165.82,403.41Z"/><path class="cls-2" d="M181.56,398.09"/><path class="cls-2" d="M176.31,403.41a.9.9,0,1,1,0-1.8c.58,0,.88-.45,1.46-1.54s1.56-2.89,3.79-2.89h0a.91.91,0,0,1,0,1.81h0c-1.1,0-1.53.7-2.2,1.94S178,403.41,176.31,403.41Z"/><path class="cls-2" d="M19.89,398.07c-1.71,0-2.46-1.38-3.05-2.49s-1.1-1.94-2.2-1.94a.9.9,0,0,1,0-1.8c2.23,0,3.13,1.67,3.79,2.89s.88,1.53,1.46,1.53a.91.91,0,0,1,0,1.81Z"/><path class="cls-2" d="M30.38,398.07c-1.71,0-2.45-1.38-3.05-2.49s-1.1-1.94-2.2-1.94a.9.9,0,0,1,0-1.8c2.23,0,3.13,1.67,3.79,2.89s.89,1.53,1.46,1.53a.91.91,0,0,1,0,1.81Z"/><path class="cls-2" d="M19.89,398.07a.91.91,0,1,1,0-1.81c.57,0,.87-.44,1.46-1.53s1.56-2.89,3.78-2.89a.9.9,0,1,1,0,1.8c-1.09,0-1.54.74-2.19,1.94S21.6,398.07,19.89,398.07Z"/><path class="cls-2" d="M35.63,392.74"/><path class="cls-2" d="M30.38,398.07a.91.91,0,0,1,0-1.81c.58,0,.87-.44,1.46-1.53s1.56-2.89,3.79-2.89h0a.9.9,0,1,1,0,1.8h0c-1.1,0-1.53.7-2.2,1.94S32.09,398.07,30.38,398.07Z"/><path class="cls-2" d="M118.06,344.1a.9.9,0,0,1-.9-.91c0-2.22,1.67-3.12,2.88-3.78s1.54-.89,1.54-1.46a.91.91,0,1,1,1.81,0c0,1.71-1.38,2.45-2.49,3.05s-1.94,1.1-1.94,2.19A.9.9,0,0,1,118.06,344.1Z"/><path class="cls-2" d="M118.06,333.6a.9.9,0,0,1-.9-.9c0-2.23,1.67-3.13,2.88-3.79s1.54-.88,1.54-1.46a.91.91,0,0,1,1.81,0c0,1.71-1.38,2.46-2.49,3.05s-1.94,1.1-1.94,2.2A.9.9,0,0,1,118.06,333.6Z"/><path class="cls-2" d="M122.48,338.85a.9.9,0,0,1-.9-.9c0-.58-.44-.88-1.54-1.47s-2.88-1.55-2.88-3.78a.9.9,0,0,1,1.8,0c0,1.09.74,1.55,1.94,2.2s2.49,1.34,2.49,3.05A.9.9,0,0,1,122.48,338.85Z"/><path class="cls-2" d="M118.06,322.21"/><path class="cls-2" d="M122.48,328.36a.9.9,0,0,1-.9-.91c0-.57-.44-.87-1.54-1.46s-2.88-1.56-2.88-3.78a.9.9,0,1,1,1.8,0c0,1.09.74,1.54,1.94,2.19s2.49,1.34,2.49,3.05A.91.91,0,0,1,122.48,328.36Z"/><path class="cls-2" d="M85.88,399a.9.9,0,0,1-.9-.9c0-2.23,1.67-3.13,2.89-3.79s1.53-.89,1.53-1.46a.91.91,0,0,1,1.81,0c0,1.71-1.38,2.45-2.48,3.05s-1.94,1.1-1.94,2.2A.91.91,0,0,1,85.88,399Z"/><path class="cls-2" d="M85.88,388.49a.9.9,0,0,1-.9-.9c0-2.22,1.67-3.13,2.89-3.78s1.53-.89,1.53-1.46a.91.91,0,1,1,1.81,0c0,1.7-1.38,2.45-2.48,3s-1.94,1.1-1.94,2.19A.9.9,0,0,1,85.88,388.49Z"/><path class="cls-2" d="M90.31,393.74a.9.9,0,0,1-.91-.9c0-.58-.44-.87-1.53-1.46S85,389.82,85,387.59a.91.91,0,0,1,1.81,0c0,1.1.73,1.55,1.94,2.2s2.48,1.34,2.48,3A.9.9,0,0,1,90.31,393.74Z"/><path class="cls-2" d="M85.88,377.1"/><path class="cls-2" d="M90.31,383.25a.91.91,0,0,1-.91-.9c0-.58-.44-.88-1.53-1.47S85,379.32,85,377.1a.91.91,0,0,1,1.81,0c0,1.09.73,1.55,1.94,2.2s2.48,1.34,2.48,3.05A.9.9,0,0,1,90.31,383.25Z"/><path class="cls-2" d="M19.85,414.16H6.9a.9.9,0,0,1,0-1.8h13a.9.9,0,1,1,0,1.8Z"/><path class="cls-2" d="M148.1,354H135.16a.91.91,0,1,1,0-1.81H148.1a.91.91,0,1,1,0,1.81Z"/><path class="cls-2" d="M199.14,324.76H186.19a.91.91,0,0,1,0-1.81h12.95a.91.91,0,0,1,0,1.81Z"/><path class="cls-2" d="M16,333.91a.93.93,0,0,1-.64-.26.91.91,0,0,1,0-1.28l9.16-9.15a.88.88,0,0,1,1.27,0,.9.9,0,0,1,0,1.27l-9.15,9.16A.93.93,0,0,1,16,333.91Z"/><path class="cls-2" d="M192.67,427.77a.89.89,0,0,1-.64-.27.9.9,0,0,1,0-1.27l9.15-9.16a.91.91,0,0,1,1.28,1.28l-9.16,9.15A.86.86,0,0,1,192.67,427.77Z"/><path class="cls-2" d="M107.44,419.85h0a3.16,3.16,0,0,0-1-5.76,3.16,3.16,0,0,0-1.41,6.17,2.87,2.87,0,0,0,.71.08A3.07,3.07,0,0,0,107.44,419.85Zm-.48-.76Zm-.9-3.24a1.36,1.36,0,0,1,.84.6,1.33,1.33,0,0,1,.18,1,1.36,1.36,0,1,1-2.65-.61,1.32,1.32,0,0,1,.6-.84,1.34,1.34,0,0,1,.72-.21Z"/><path class="cls-2" d="M49.08,367.78h0a3.1,3.1,0,0,0,1.4-2,3.17,3.17,0,0,0-4.77-3.39,3.19,3.19,0,0,0-1.4,2,3.17,3.17,0,0,0,2.39,3.79,3.34,3.34,0,0,0,.7.08A3.16,3.16,0,0,0,49.08,367.78Zm-.47-.76h0Zm-.91-3.24a1.35,1.35,0,0,1,1,1.62,1.36,1.36,0,0,1-1.62,1,1.37,1.37,0,0,1-1-1.63,1.41,1.41,0,0,1,.6-.85,1.34,1.34,0,0,1,.72-.21A1.06,1.06,0,0,1,47.7,363.78Z"/><path class="cls-2" d="M173.54,366.66h0a3.17,3.17,0,1,0-4.37-1,3.16,3.16,0,0,0,2.69,1.48A3.25,3.25,0,0,0,173.54,366.66Zm-.48-.77Zm-.91-3.24a1.35,1.35,0,0,1,.85.6,1.35,1.35,0,0,1-.43,1.88,1.35,1.35,0,0,1-1.87-.43,1.38,1.38,0,0,1-.18-1,1.33,1.33,0,0,1,.61-.84,1.29,1.29,0,0,1,.72-.21Z"/><path class="cls-2" d="M403,152a.93.93,0,0,1-.62-.24l-5.5-5.17a.9.9,0,0,1,0-1.27.88.88,0,0,1,1.27,0l5.51,5.16a.9.9,0,0,1,0,1.27A.91.91,0,0,1,403,152Z"/><path class="cls-2" d="M397.62,152.14a.9.9,0,0,1-.66-1.52l5.16-5.5a.9.9,0,0,1,1.32,1.23l-5.17,5.51A.86.86,0,0,1,397.62,152.14Z"/><path class="cls-2" d="M409.28,231.18a.88.88,0,0,1-.62-.25l-5.51-5.16a.91.91,0,0,1,1.24-1.32l5.5,5.17a.89.89,0,0,1,.05,1.27A.91.91,0,0,1,409.28,231.18Z"/><path class="cls-2" d="M403.94,231.35a.93.93,0,0,1-.62-.24.91.91,0,0,1,0-1.28l5.17-5.5a.9.9,0,1,1,1.31,1.23l-5.16,5.51A.94.94,0,0,1,403.94,231.35Z"/><path class="cls-2" d="M342.29,275.43a.89.89,0,0,1-.62-.24L336.16,270a.9.9,0,0,1,0-1.27.91.91,0,0,1,1.28,0l5.5,5.16a.9.9,0,0,1,0,1.28A.86.86,0,0,1,342.29,275.43Z"/><path class="cls-2" d="M337,275.6a.93.93,0,0,1-.62-.24.9.9,0,0,1,0-1.27l5.17-5.51a.9.9,0,1,1,1.31,1.23l-5.16,5.51A.9.9,0,0,1,337,275.6Z"/><path class="cls-2" d="M339.88,144.43a.93.93,0,0,1-.62-.24l-5.5-5.16a.91.91,0,0,1,0-1.28.9.9,0,0,1,1.27,0l5.51,5.16a.91.91,0,0,1,0,1.28A.9.9,0,0,1,339.88,144.43Z"/><path class="cls-2" d="M334.55,144.61a.86.86,0,0,1-.62-.25.9.9,0,0,1,0-1.27l5.16-5.51a.91.91,0,0,1,1.32,1.24l-5.17,5.5A.87.87,0,0,1,334.55,144.61Z"/><path class="cls-2" d="M432.51,166.8h15.14a.91.91,0,0,0,.79-.45.9.9,0,0,0,0-.91l-7.58-13.11a.92.92,0,0,0-.78-.45h0a.91.91,0,0,0-.78.46l-7.56,13.12a.9.9,0,0,0,.78,1.35Zm10.57-7h0l3,5.2h-12l6-10.41Z"/><path class="cls-2" d="M420,246.93h15.14a.9.9,0,0,0,.78-1.35l-7.58-13.11a.9.9,0,0,0-.78-.45h0a.9.9,0,0,0-.78.45l-7.56,13.12a.9.9,0,0,0,.78,1.35Zm10.57-7h0l3,5.2h-12l6-10.41Z"/><path class="cls-2" d="M373.53,137a.92.92,0,0,0,.64-.64l1.95-7.31h0l2-7.32a.91.91,0,0,0-.24-.87.87.87,0,0,0-.87-.23l-14.62,3.93a.88.88,0,0,0-.64.64.93.93,0,0,0,.23.87l10.72,10.7a.9.9,0,0,0,.64.26Zm2.4-14.22-1.55,5.8h0l-1.55,5.81-8.5-8.5Z"/><path class="cls-2" d="M368.35,295.07a.89.89,0,0,0,.63-.64l3.91-14.63a.89.89,0,0,0-1.1-1.1l-14.63,3.93a.92.92,0,0,0-.64.64.91.91,0,0,0,.24.87l10.71,10.7a.92.92,0,0,0,.64.26Zm2.4-14.22-1.56,5.8h0l-1.55,5.81-8.5-8.49Z"/><path class="cls-2" d="M363.8,217.2l6.55-3.79h0l6.56-3.79a.9.9,0,0,0,0-1.57l-13.12-7.56a.9.9,0,0,0-.9,0,.91.91,0,0,0-.45.79v15.14a.9.9,0,0,0,.45.78.92.92,0,0,0,.91,0Zm10.85-8.36-5.2,3h0l-5.2,3v-12Z"/><path class="cls-2" d="M428.54,136.13a6.65,6.65,0,1,0-6.65,6.65A6.65,6.65,0,0,0,428.54,136.13Zm-1.81,0a4.84,4.84,0,1,1-4.84-4.84A4.84,4.84,0,0,1,426.73,136.13Z"/><path class="cls-2" d="M432.2,305.66a6.65,6.65,0,1,0-6.64,6.64A6.65,6.65,0,0,0,432.2,305.66Zm-1.8,0a4.84,4.84,0,1,1-4.84-4.84A4.84,4.84,0,0,1,430.4,305.66Z"/><path class="cls-2" d="M412.31,209.75a.91.91,0,0,1-.91-.9,4.84,4.84,0,1,0-9.68,0,.9.9,0,0,1-1.8,0,6.65,6.65,0,1,1,13.29,0A.91.91,0,0,1,412.31,209.75Z"/><path class="cls-2" d="M351.82,163.11a.9.9,0,0,1-.9-.9,4.82,4.82,0,1,0-9.63,0,.91.91,0,0,1-1.81,0,6.62,6.62,0,1,1,13.24,0A.9.9,0,0,1,351.82,163.11Z"/><path class="cls-2" d="M346.86,306.53a6.62,6.62,0,1,1,0-13.24.91.91,0,0,1,0,1.81,4.82,4.82,0,1,0,0,9.63.9.9,0,0,1,0,1.8Z"/><path class="cls-2" d="M408.5,123.85a6.62,6.62,0,1,1,0-13.24.9.9,0,0,1,0,1.8,4.82,4.82,0,1,0,0,9.64.9.9,0,0,1,0,1.8Z"/><path class="cls-2" d="M350.64,245.21a6.65,6.65,0,1,0-6.65,6.65A6.66,6.66,0,0,0,350.64,245.21Zm-1.81,0a4.84,4.84,0,1,1-4.84-4.84A4.85,4.85,0,0,1,348.83,245.21Z"/><path class="cls-2" d="M394.12,177.32V165.9a.9.9,0,0,0-.9-.91H381.79a.9.9,0,0,0-.9.91v11.42a.9.9,0,0,0,.9.9h11.43A.9.9,0,0,0,394.12,177.32ZM382.69,166.8h9.63v9.62h-9.63Z"/><path class="cls-2" d="M393.55,250.27V238.84a.9.9,0,0,0-.91-.9H381.22a.9.9,0,0,0-.9.9v11.43a.9.9,0,0,0,.9.9h11.42A.9.9,0,0,0,393.55,250.27Zm-11.43-10.53h9.62v9.63h-9.62Z"/><path class="cls-2" d="M345.43,186.86c-1.71,0-2.45-1.37-3.05-2.48s-1.1-1.94-2.19-1.94a.9.9,0,1,1,0-1.8c2.22,0,3.12,1.67,3.78,2.88s.89,1.54,1.46,1.54a.9.9,0,1,1,0,1.8Z"/><path class="cls-2" d="M355.93,186.86c-1.71,0-2.45-1.37-3.05-2.48s-1.1-1.94-2.2-1.94a.9.9,0,0,1,0-1.8c2.23,0,3.13,1.67,3.79,2.88s.88,1.54,1.46,1.54a.9.9,0,0,1,0,1.8Z"/><path class="cls-2" d="M345.43,186.86a.9.9,0,0,1,0-1.8c.58,0,.88-.44,1.47-1.54s1.56-2.88,3.78-2.88a.9.9,0,0,1,0,1.8c-1.09,0-1.55.74-2.19,1.94S347.14,186.86,345.43,186.86Z"/><path class="cls-2" d="M361.18,181.54"/><path class="cls-2" d="M355.93,186.86a.9.9,0,0,1,0-1.8c.57,0,.87-.44,1.46-1.54s1.56-2.88,3.79-2.88h0a.9.9,0,0,1,0,1.8h0c-1.1,0-1.53.7-2.2,1.94S357.64,186.86,355.93,186.86Z"/><path class="cls-2" d="M411.43,187.79a.9.9,0,0,1-.9-.91c0-2.22,1.67-3.12,2.89-3.78s1.53-.89,1.53-1.46a.91.91,0,1,1,1.81,0c0,1.71-1.38,2.45-2.49,3.05s-1.94,1.1-1.94,2.19A.9.9,0,0,1,411.43,187.79Z"/><path class="cls-2" d="M411.43,177.29a.9.9,0,0,1-.9-.9c0-2.23,1.67-3.13,2.89-3.78s1.53-.89,1.53-1.47a.91.91,0,0,1,1.81,0c0,1.71-1.38,2.46-2.49,3.05s-1.94,1.1-1.94,2.2A.9.9,0,0,1,411.43,177.29Z"/><path class="cls-2" d="M415.85,182.54a.9.9,0,0,1-.9-.9c0-.58-.44-.88-1.53-1.47s-2.89-1.55-2.89-3.78a.9.9,0,1,1,1.8,0c0,1.09.74,1.55,1.94,2.2s2.49,1.34,2.49,3A.9.9,0,0,1,415.85,182.54Z"/><path class="cls-2" d="M411.43,165.9"/><path class="cls-2" d="M415.85,172.05a.91.91,0,0,1-.9-.91c0-.57-.44-.87-1.53-1.46s-2.89-1.56-2.89-3.78a.9.9,0,1,1,1.8,0c0,1.09.74,1.54,1.94,2.19s2.49,1.34,2.49,3A.91.91,0,0,1,415.85,172.05Z"/><path class="cls-2" d="M390.43,283.74a.9.9,0,0,1-.9-.9c0-2.22,1.67-3.12,2.89-3.78s1.53-.89,1.53-1.46a.91.91,0,1,1,1.81,0c0,1.71-1.38,2.45-2.49,3s-1.93,1.1-1.93,2.19A.9.9,0,0,1,390.43,283.74Z"/><path class="cls-2" d="M390.43,273.25a.9.9,0,0,1-.9-.9c0-2.23,1.67-3.13,2.89-3.79s1.53-.88,1.53-1.46a.91.91,0,0,1,1.81,0c0,1.71-1.38,2.45-2.49,3s-1.93,1.1-1.93,2.2A.9.9,0,0,1,390.43,273.25Z"/><path class="cls-2" d="M394.86,278.5a.91.91,0,0,1-.91-.9c0-.58-.44-.88-1.53-1.47s-2.89-1.56-2.89-3.78a.91.91,0,0,1,1.81,0c0,1.09.73,1.55,1.93,2.2s2.49,1.34,2.49,3.05A.91.91,0,0,1,394.86,278.5Z"/><path class="cls-2" d="M390.43,261.85"/><path class="cls-2" d="M394.86,268a.9.9,0,0,1-.91-.9c0-.57-.44-.87-1.53-1.46s-2.89-1.56-2.89-3.79a.91.91,0,0,1,1.81,0c0,1.1.73,1.55,1.93,2.2s2.49,1.34,2.49,3.05A.9.9,0,0,1,394.86,268Z"/><path class="cls-2" d="M345.4,203H332.45a.91.91,0,0,1,0-1.81H345.4a.91.91,0,0,1,0,1.81Z"/><path class="cls-2" d="M397,306.53H384.07a.9.9,0,0,1,0-1.8H397a.9.9,0,1,1,0,1.8Z"/><path class="cls-2" d="M417.31,281.52a.86.86,0,0,1-.63-.27.88.88,0,0,1,0-1.27l9.15-9.16a.91.91,0,0,1,1.28,1.28L418,281.25A.89.89,0,0,1,417.31,281.52Z"/><path class="cls-2" d="M341.53,122.71a.9.9,0,0,1-.64-1.54L350,112a.91.91,0,0,1,1.28,1.28l-9.16,9.16A.89.89,0,0,1,341.53,122.71Z"/><path class="cls-2" d="M433,208.65h0a3.15,3.15,0,0,0,1-4.36,3.17,3.17,0,0,0-5.36,3.37,3.19,3.19,0,0,0,2,1.4,3.36,3.36,0,0,0,.71.08A3.16,3.16,0,0,0,433,208.65Zm-.48-.76Zm-.91-3.24a1.32,1.32,0,0,1,.85.6,1.33,1.33,0,0,1,.18,1,1.36,1.36,0,0,1-.6.84,1.34,1.34,0,0,1-1,.18,1.36,1.36,0,0,1-.42-2.48,1.43,1.43,0,0,1,.72-.21A1.54,1.54,0,0,1,431.6,204.65Z"/><path class="cls-2" d="M351.45,227.79h0a3.17,3.17,0,0,0,1.4-2,3.17,3.17,0,0,0-4.77-3.39,3.16,3.16,0,0,0,1,5.77,3.43,3.43,0,0,0,.71.08A3.16,3.16,0,0,0,351.45,227.79ZM351,227Zm-.91-3.24a1.36,1.36,0,0,1,1,1.62,1.37,1.37,0,0,1-1.63,1,1.41,1.41,0,0,1-.85-.6A1.36,1.36,0,0,1,349,224a1.34,1.34,0,0,1,.72-.21A1,1,0,0,1,350.06,223.79Z"/><path class="cls-2" d="M374.63,156.58h0a3.15,3.15,0,1,0-2.39.41,3.51,3.51,0,0,0,.71.08A3.16,3.16,0,0,0,374.63,156.58Zm-.48-.76Zm-.9-3.24a1.37,1.37,0,0,1,.85.6,1.35,1.35,0,0,1,.17,1,1.32,1.32,0,0,1-.6.85,1.38,1.38,0,0,1-1,.18,1.33,1.33,0,0,1-.84-.61,1.35,1.35,0,0,1,.42-1.87,1.34,1.34,0,0,1,.72-.21A1.1,1.1,0,0,1,373.25,152.58Z"/><path class="cls-2" d="M185.92,152a.93.93,0,0,1-.62-.24l-5.5-5.17a.9.9,0,0,1,1.23-1.31l5.51,5.16a.9.9,0,0,1,0,1.27A.91.91,0,0,1,185.92,152Z"/><path class="cls-2" d="M180.58,152.14a.89.89,0,0,1-.61-.24.9.9,0,0,1,0-1.28l5.16-5.5a.9.9,0,0,1,1.32,1.23l-5.17,5.51A.87.87,0,0,1,180.58,152.14Z"/><path class="cls-2" d="M192.24,231.18a.85.85,0,0,1-.61-.25l-5.51-5.16a.91.91,0,0,1,1.24-1.32l5.5,5.17a.89.89,0,0,1,0,1.27A.88.88,0,0,1,192.24,231.18Z"/><path class="cls-2" d="M186.91,231.35a.93.93,0,0,1-.62-.24.91.91,0,0,1,0-1.28l5.17-5.5a.89.89,0,0,1,1.27-.05.9.9,0,0,1,0,1.28l-5.16,5.51A.94.94,0,0,1,186.91,231.35Z"/><path class="cls-2" d="M125.25,275.43a.89.89,0,0,1-.61-.24L119.13,270a.9.9,0,0,1,0-1.27.91.91,0,0,1,1.28,0l5.5,5.16a.91.91,0,0,1,0,1.28A.9.9,0,0,1,125.25,275.43Z"/><path class="cls-2" d="M119.92,275.6a.93.93,0,0,1-.62-.24.9.9,0,0,1,0-1.27l5.16-5.51a.91.91,0,0,1,1.28,0,.9.9,0,0,1,0,1.27l-5.16,5.51A.9.9,0,0,1,119.92,275.6Z"/><path class="cls-2" d="M122.85,144.43a.93.93,0,0,1-.62-.24l-5.5-5.16a.9.9,0,0,1,1.23-1.32l5.51,5.16a.91.91,0,0,1,0,1.28A.9.9,0,0,1,122.85,144.43Z"/><path class="cls-2" d="M117.51,144.61a.85.85,0,0,1-.61-.25.89.89,0,0,1,0-1.27l5.16-5.51a.91.91,0,0,1,1.32,1.24l-5.17,5.5A.88.88,0,0,1,117.51,144.61Z"/><path class="cls-2" d="M318.65,151.83a.89.89,0,0,1-.62-.24l-5.51-5.16a.91.91,0,0,1,1.24-1.32l5.5,5.16a.9.9,0,0,1,0,1.28A.86.86,0,0,1,318.65,151.83Z"/><path class="cls-2" d="M313.31,152a.91.91,0,0,1-.66-1.52l5.17-5.51a.9.9,0,0,1,1.27,0,.91.91,0,0,1,0,1.28l-5.16,5.5A.91.91,0,0,1,313.31,152Z"/><path class="cls-2" d="M253.69,179.92a.89.89,0,0,1-.61-.24l-5.51-5.17a.9.9,0,1,1,1.24-1.31l5.5,5.16a.9.9,0,0,1,0,1.27A.91.91,0,0,1,253.69,179.92Z"/><path class="cls-2" d="M248.36,180.09a.93.93,0,0,1-.62-.24.91.91,0,0,1,0-1.28l5.16-5.5a.9.9,0,0,1,1.32,1.23L249,179.81A.9.9,0,0,1,248.36,180.09Z"/><path class="cls-2" d="M280.54,241.22a.92.92,0,0,1-.62-.25l-5.51-5.16a.91.91,0,1,1,1.24-1.32l5.5,5.17a.9.9,0,0,1-.61,1.56Z"/><path class="cls-2" d="M275.2,241.39a.91.91,0,0,1-.66-1.52l5.17-5.51A.9.9,0,1,1,281,235.6l-5.16,5.5A.91.91,0,0,1,275.2,241.39Z"/><path class="cls-2" d="M276.26,291.15a.89.89,0,0,1-.62-.25l-5.5-5.16a.9.9,0,0,1,1.23-1.32l5.51,5.17a.9.9,0,0,1,0,1.27A.91.91,0,0,1,276.26,291.15Z"/><path class="cls-2" d="M270.93,291.32a.9.9,0,0,1-.66-1.52l5.16-5.5a.9.9,0,1,1,1.32,1.23l-5.17,5.5A.87.87,0,0,1,270.93,291.32Z"/><path class="cls-2" d="M215.48,166.8h15.14a.9.9,0,0,0,.78-.45.92.92,0,0,0,0-.91l-7.58-13.11a.92.92,0,0,0-.78-.45h0a.91.91,0,0,0-.78.46l-7.56,13.12a.9.9,0,0,0,.78,1.35Zm10.57-7h0l3,5.2H217l6-10.41Z"/><path class="cls-2" d="M203,246.93h15.14a.9.9,0,0,0,.78-1.35l-7.58-13.11a.9.9,0,0,0-.78-.45h0a.9.9,0,0,0-.78.45l-7.56,13.12a.86.86,0,0,0,0,.9.9.9,0,0,0,.78.45Zm10.57-7h0l3,5.2h-12l6-10.41Z"/><path class="cls-2" d="M246.39,271.54h15.14a.9.9,0,0,0,.78-1.35l-7.58-13.11a.9.9,0,0,0-.78-.45h0a.9.9,0,0,0-.78.45l-7.56,13.12a.9.9,0,0,0,.78,1.35Zm10.57-7h0l3,5.2H248l6-10.42Z"/><path class="cls-2" d="M281,221.93a.87.87,0,0,0,.64-.64l3.91-14.63a.89.89,0,0,0-1.1-1.1l-14.63,3.93a.92.92,0,0,0-.64.64.91.91,0,0,0,.24.87l10.71,10.7a.9.9,0,0,0,.64.26A.85.85,0,0,0,281,221.93Zm2.41-14.22-1.56,5.8h0l-1.55,5.81-8.5-8.49Z"/><path class="cls-2" d="M156.5,137a.92.92,0,0,0,.64-.64l2-7.31h0l2-7.32a.91.91,0,0,0-.24-.87.88.88,0,0,0-.87-.23l-14.62,3.93a.87.87,0,0,0-.64.64.88.88,0,0,0,.23.87l10.72,10.7a.89.89,0,0,0,.63.26A1,1,0,0,0,156.5,137Zm2.4-14.22-1.55,5.8h0l-1.55,5.81-8.51-8.5Z"/><path class="cls-2" d="M151.31,295.07a.88.88,0,0,0,.64-.64l3.91-14.63a.93.93,0,0,0-.23-.87.89.89,0,0,0-.88-.23l-14.62,3.93a.92.92,0,0,0-.64.64.91.91,0,0,0,.24.87l10.71,10.7a.9.9,0,0,0,.64.26A.85.85,0,0,0,151.31,295.07Zm2.4-14.22-1.55,5.8h0l-1.55,5.81-8.5-8.49Z"/><path class="cls-2" d="M284.29,141.56,297.4,134a.91.91,0,0,0,0-1.57l-13.12-7.56a.9.9,0,0,0-1.35.78v15.15a.9.9,0,0,0,.45.78.92.92,0,0,0,.45.12A.89.89,0,0,0,284.29,141.56Zm10.86-8.36-5.21,3h0l-5.2,3v-12Z"/><path class="cls-2" d="M146.76,217.2l6.56-3.79h0l6.55-3.79a.9.9,0,0,0,.45-.78.91.91,0,0,0-.45-.79l-13.12-7.56a.9.9,0,0,0-.9,0,.91.91,0,0,0-.45.79v15.14a.9.9,0,0,0,.45.78.92.92,0,0,0,.45.12A.89.89,0,0,0,146.76,217.2Zm10.86-8.36-5.21,3h0l-5.2,3v-12Z"/><path class="cls-2" d="M240.53,200.23a6.65,6.65,0,1,0-6.65,6.65A6.66,6.66,0,0,0,240.53,200.23Zm-1.81,0a4.84,4.84,0,1,1-4.84-4.84A4.84,4.84,0,0,1,238.72,200.23Z"/><path class="cls-2" d="M211.51,136.13a6.65,6.65,0,1,0-6.65,6.65A6.66,6.66,0,0,0,211.51,136.13Zm-1.81,0a4.84,4.84,0,1,1-4.84-4.84A4.84,4.84,0,0,1,209.7,136.13Z"/><path class="cls-2" d="M215.17,305.66a6.65,6.65,0,1,0-6.64,6.64A6.65,6.65,0,0,0,215.17,305.66Zm-1.8,0a4.85,4.85,0,1,1-4.84-4.84A4.84,4.84,0,0,1,213.37,305.66Z"/><path class="cls-2" d="M241.12,298a.9.9,0,0,1-.9-.9,4.84,4.84,0,0,0-9.68,0,.91.91,0,0,1-1.81,0,6.65,6.65,0,0,1,13.29,0A.9.9,0,0,1,241.12,298Z"/><path class="cls-2" d="M195.27,209.75a.91.91,0,0,1-.9-.9,4.84,4.84,0,1,0-9.68,0,.91.91,0,0,1-1.81,0,6.65,6.65,0,0,1,13.3,0A.91.91,0,0,1,195.27,209.75Z"/><path class="cls-2" d="M134.79,163.11a.9.9,0,0,1-.9-.9,4.82,4.82,0,1,0-9.63,0,.91.91,0,0,1-1.81,0,6.62,6.62,0,1,1,13.24,0A.9.9,0,0,1,134.79,163.11Z"/><path class="cls-2" d="M268.14,172.52a6.62,6.62,0,1,1,0-13.24.9.9,0,1,1,0,1.8,4.82,4.82,0,1,0,0,9.63.91.91,0,1,1,0,1.81Z"/><path class="cls-2" d="M129.83,306.53a6.62,6.62,0,1,1,0-13.24.91.91,0,0,1,0,1.81,4.82,4.82,0,1,0,0,9.63.9.9,0,1,1,0,1.8Z"/><path class="cls-2" d="M191.47,123.85a6.62,6.62,0,1,1,0-13.24.9.9,0,1,1,0,1.8,4.82,4.82,0,1,0,0,9.64.9.9,0,1,1,0,1.8Z"/><path class="cls-2" d="M133.6,245.21a6.65,6.65,0,1,0-6.64,6.65A6.65,6.65,0,0,0,133.6,245.21Zm-1.8,0a4.84,4.84,0,1,1-4.84-4.84A4.85,4.85,0,0,1,131.8,245.21Z"/><path class="cls-2" d="M310.74,251.77a6.65,6.65,0,1,0-6.65,6.65A6.65,6.65,0,0,0,310.74,251.77Zm-1.81,0a4.84,4.84,0,1,1-4.84-4.84A4.85,4.85,0,0,1,308.93,251.77Z"/><path class="cls-2" d="M306.28,171.61V160.18a.9.9,0,0,0-.91-.9H294a.9.9,0,0,0-.91.9v11.43a.9.9,0,0,0,.91.9h11.42A.9.9,0,0,0,306.28,171.61Zm-11.43-10.52h9.62v9.62h-9.62Z"/><path class="cls-2" d="M177.09,177.32V165.9a.91.91,0,0,0-.9-.91H164.76a.9.9,0,0,0-.9.91v11.42a.9.9,0,0,0,.9.9h11.43A.9.9,0,0,0,177.09,177.32ZM165.66,166.8h9.62v9.62h-9.62Z"/><path class="cls-2" d="M176.51,250.27V238.84a.9.9,0,0,0-.9-.9H164.19a.9.9,0,0,0-.91.9v11.43a.9.9,0,0,0,.91.9h11.42A.9.9,0,0,0,176.51,250.27Zm-11.42-10.53h9.62v9.63h-9.62Z"/><path class="cls-2" d="M306.27,305.63V294.2a.9.9,0,0,0-.9-.9H294a.9.9,0,0,0-.91.9v11.43a.91.91,0,0,0,.91.9h11.42A.9.9,0,0,0,306.27,305.63ZM294.85,295.1h9.62v9.62h-9.62Z"/><path class="cls-2" d="M258.88,122.94V111.52a.91.91,0,0,0-.91-.91H246.55a.9.9,0,0,0-.9.91v11.42a.9.9,0,0,0,.9.91H258A.91.91,0,0,0,258.88,122.94Zm-11.43-10.52h9.62V122h-9.62Z"/><path class="cls-2" d="M230.13,228.6c-1.71,0-2.45-1.38-3-2.49s-1.1-1.93-2.2-1.93a.91.91,0,0,1,0-1.81c2.23,0,3.13,1.67,3.79,2.89s.88,1.53,1.46,1.53a.91.91,0,0,1,0,1.81Z"/><path class="cls-2" d="M240.62,228.6c-1.71,0-2.45-1.38-3.05-2.49s-1.1-1.93-2.19-1.93a.91.91,0,0,1,0-1.81c2.22,0,3.12,1.67,3.78,2.89s.89,1.53,1.46,1.53a.91.91,0,1,1,0,1.81Z"/><path class="cls-2" d="M230.13,228.6a.91.91,0,0,1,0-1.81c.58,0,.87-.44,1.46-1.53s1.56-2.89,3.79-2.89a.91.91,0,0,1,0,1.81c-1.1,0-1.55.73-2.2,1.93S231.84,228.6,230.13,228.6Z"/><path class="cls-2" d="M245.87,223.27"/><path class="cls-2" d="M240.62,228.6a.91.91,0,0,1,0-1.81c.58,0,.88-.44,1.47-1.53s1.55-2.89,3.78-2.89a.91.91,0,0,1,0,1.81c-1.09,0-1.55.73-2.2,1.93S242.33,228.6,240.62,228.6Z"/><path class="cls-2" d="M260,311c-1.71,0-2.46-1.37-3.06-2.48s-1.1-1.94-2.19-1.94a.91.91,0,0,1,0-1.81c2.22,0,3.13,1.67,3.78,2.89s.89,1.54,1.47,1.54a.9.9,0,0,1,0,1.8Z"/><path class="cls-2" d="M270.52,311c-1.71,0-2.45-1.37-3-2.48s-1.1-1.94-2.2-1.94a.91.91,0,0,1,0-1.81c2.23,0,3.13,1.67,3.79,2.89s.88,1.54,1.46,1.54a.9.9,0,0,1,0,1.8Z"/><path class="cls-2" d="M260,311a.9.9,0,1,1,0-1.8c.57,0,.87-.45,1.46-1.54s1.56-2.89,3.78-2.89a.91.91,0,0,1,0,1.81c-1.09,0-1.55.74-2.19,1.94S261.73,311,260,311Z"/><path class="cls-2" d="M275.77,305.66"/><path class="cls-2" d="M270.52,311a.9.9,0,0,1,0-1.8c.57,0,.87-.45,1.46-1.54s1.56-2.89,3.79-2.89h0a.91.91,0,0,1,0,1.81h0c-1.1,0-1.53.7-2.2,1.94s-1.34,2.48-3.05,2.48Z"/><path class="cls-2" d="M274.33,192.21c-1.71,0-2.45-1.38-3.05-2.48s-1.1-1.94-2.19-1.94a.91.91,0,0,1,0-1.81c2.22,0,3.13,1.67,3.78,2.89s.89,1.54,1.46,1.54a.9.9,0,1,1,0,1.8Z"/><path class="cls-2" d="M284.83,192.21c-1.71,0-2.45-1.38-3.05-2.48s-1.1-1.94-2.2-1.94a.91.91,0,0,1,0-1.81c2.23,0,3.13,1.67,3.79,2.89s.88,1.54,1.46,1.54a.9.9,0,0,1,0,1.8Z"/><path class="cls-2" d="M274.33,192.21a.9.9,0,0,1,0-1.8c.58,0,.88-.45,1.47-1.54s1.56-2.89,3.78-2.89a.91.91,0,0,1,0,1.81c-1.09,0-1.55.73-2.19,1.94S276,192.21,274.33,192.21Z"/><path class="cls-2" d="M290.08,186.88"/><path class="cls-2" d="M284.83,192.21a.9.9,0,0,1,0-1.8c.57,0,.87-.45,1.46-1.54s1.56-2.89,3.79-2.89h0a.91.91,0,0,1,0,1.81h0c-1.1,0-1.53.7-2.2,1.94S286.54,192.21,284.83,192.21Z"/><path class="cls-2" d="M128.4,186.86c-1.71,0-2.45-1.37-3.05-2.48s-1.1-1.94-2.19-1.94a.9.9,0,1,1,0-1.8c2.22,0,3.12,1.67,3.78,2.88s.89,1.54,1.46,1.54a.9.9,0,1,1,0,1.8Z"/><path class="cls-2" d="M138.9,186.86c-1.71,0-2.46-1.37-3.05-2.48s-1.1-1.94-2.2-1.94a.9.9,0,0,1,0-1.8c2.23,0,3.13,1.67,3.78,2.88s.89,1.54,1.47,1.54a.9.9,0,0,1,0,1.8Z"/><path class="cls-2" d="M128.4,186.86a.9.9,0,0,1,0-1.8c.58,0,.88-.44,1.47-1.54s1.55-2.88,3.78-2.88a.9.9,0,0,1,0,1.8c-1.09,0-1.55.74-2.2,1.94S130.11,186.86,128.4,186.86Z"/><path class="cls-2" d="M144.14,181.54"/><path class="cls-2" d="M138.9,186.86a.9.9,0,1,1,0-1.8c.57,0,.87-.44,1.46-1.54s1.56-2.88,3.78-2.88h0a.9.9,0,1,1,0,1.8h0c-1.09,0-1.52.7-2.19,1.94S140.61,186.86,138.9,186.86Z"/><path class="cls-2" d="M226.58,132.89a.9.9,0,0,1-.91-.9c0-2.22,1.67-3.13,2.89-3.78s1.54-.89,1.54-1.47a.9.9,0,0,1,1.8,0c0,1.71-1.38,2.46-2.48,3s-1.94,1.11-1.94,2.2A.9.9,0,0,1,226.58,132.89Z"/><path class="cls-2" d="M226.58,122.4a.9.9,0,0,1-.91-.9c0-2.23,1.67-3.13,2.89-3.79s1.54-.88,1.54-1.46a.9.9,0,0,1,1.8,0c0,1.71-1.38,2.45-2.48,3s-1.94,1.1-1.94,2.2A.9.9,0,0,1,226.58,122.4Z"/><path class="cls-2" d="M231,127.65a.9.9,0,0,1-.9-.91c0-.57-.45-.87-1.54-1.46s-2.89-1.56-2.89-3.78a.91.91,0,1,1,1.81,0c0,1.09.74,1.55,1.94,2.19s2.48,1.35,2.48,3A.9.9,0,0,1,231,127.65Z"/><path class="cls-2" d="M226.58,111"/><path class="cls-2" d="M231,117.15a.9.9,0,0,1-.9-.9c0-.57-.45-.87-1.54-1.46s-2.89-1.56-2.89-3.79a.91.91,0,0,1,1.81,0c0,1.1.74,1.55,1.94,2.2s2.48,1.34,2.48,3A.9.9,0,0,1,231,117.15Z"/><path class="cls-2" d="M194.4,187.79a.9.9,0,0,1-.9-.91c0-2.22,1.67-3.12,2.88-3.78s1.54-.89,1.54-1.46a.9.9,0,1,1,1.8,0c0,1.71-1.37,2.45-2.48,3.05s-1.94,1.1-1.94,2.19A.9.9,0,0,1,194.4,187.79Z"/><path class="cls-2" d="M194.4,177.29a.9.9,0,0,1-.9-.9c0-2.23,1.67-3.13,2.88-3.78s1.54-.89,1.54-1.47a.9.9,0,1,1,1.8,0c0,1.71-1.37,2.46-2.48,3.05s-1.94,1.1-1.94,2.2A.9.9,0,0,1,194.4,177.29Z"/><path class="cls-2" d="M198.82,182.54a.9.9,0,0,1-.9-.9c0-.58-.44-.88-1.54-1.47s-2.88-1.55-2.88-3.78a.9.9,0,1,1,1.8,0c0,1.09.74,1.55,1.94,2.2s2.48,1.34,2.48,3A.9.9,0,0,1,198.82,182.54Z"/><path class="cls-2" d="M194.4,165.9"/><path class="cls-2" d="M198.82,172.05a.9.9,0,0,1-.9-.91c0-.57-.44-.87-1.54-1.46s-2.88-1.56-2.88-3.78a.9.9,0,1,1,1.8,0c0,1.09.74,1.54,1.94,2.19s2.48,1.34,2.48,3A.9.9,0,0,1,198.82,172.05Z"/><path class="cls-2" d="M281.62,275.48a.9.9,0,0,1-.9-.91c0-2.22,1.67-3.12,2.88-3.78s1.54-.89,1.54-1.46a.91.91,0,1,1,1.81,0c0,1.71-1.38,2.45-2.49,3.05s-1.94,1.1-1.94,2.19A.9.9,0,0,1,281.62,275.48Z"/><path class="cls-2" d="M281.62,265a.9.9,0,0,1-.9-.9c0-2.23,1.67-3.13,2.88-3.79s1.54-.88,1.54-1.46a.91.91,0,0,1,1.81,0c0,1.71-1.38,2.45-2.49,3.05s-1.94,1.1-1.94,2.2A.9.9,0,0,1,281.62,265Z"/><path class="cls-2" d="M286,270.23a.91.91,0,0,1-.9-.9c0-.58-.44-.88-1.53-1.47s-2.89-1.55-2.89-3.78a.9.9,0,0,1,1.8,0c0,1.1.7,1.53,1.94,2.2s2.49,1.34,2.49,3.05A.91.91,0,0,1,286,270.23Z"/><path class="cls-2" d="M281.62,253.59"/><path class="cls-2" d="M286,259.73a.9.9,0,0,1-.9-.9c0-.57-.44-.87-1.53-1.46s-2.89-1.56-2.89-3.78a.9.9,0,1,1,1.8,0c0,1.09.74,1.54,1.94,2.19s2.49,1.34,2.49,3A.9.9,0,0,1,286,259.73Z"/><path class="cls-2" d="M173.4,283.74a.9.9,0,0,1-.9-.9c0-2.22,1.67-3.12,2.89-3.78s1.53-.89,1.53-1.46a.91.91,0,1,1,1.81,0c0,1.71-1.38,2.45-2.49,3s-1.94,1.1-1.94,2.19A.9.9,0,0,1,173.4,283.74Z"/><path class="cls-2" d="M173.4,273.25a.9.9,0,0,1-.9-.9c0-2.23,1.67-3.13,2.89-3.79s1.53-.88,1.53-1.46a.91.91,0,0,1,1.81,0c0,1.71-1.38,2.45-2.49,3s-1.94,1.1-1.94,2.2A.9.9,0,0,1,173.4,273.25Z"/><path class="cls-2" d="M177.82,278.5a.91.91,0,0,1-.9-.9c0-.58-.44-.88-1.53-1.47s-2.89-1.56-2.89-3.78a.9.9,0,0,1,1.8,0c0,1.09.74,1.55,1.94,2.2s2.49,1.34,2.49,3.05A.91.91,0,0,1,177.82,278.5Z"/><path class="cls-2" d="M173.4,261.85"/><path class="cls-2" d="M177.82,268a.9.9,0,0,1-.9-.9c0-.57-.44-.87-1.53-1.46s-2.89-1.56-2.89-3.79a.9.9,0,0,1,1.8,0c0,1.1.74,1.55,1.94,2.2s2.49,1.34,2.49,3.05A.9.9,0,0,1,177.82,268Z"/><path class="cls-2" d="M255.65,240.37h-13a.9.9,0,0,1,0-1.8h13a.9.9,0,0,1,0,1.8Z"/><path class="cls-2" d="M128.37,203h-13a.91.91,0,0,1,0-1.81h13a.91.91,0,0,1,0,1.81Z"/><path class="cls-2" d="M256.62,142.78h-13a.91.91,0,0,1,0-1.81h13a.91.91,0,0,1,0,1.81Z"/><path class="cls-2" d="M307.66,113.55h-13a.9.9,0,1,1,0-1.8h13a.9.9,0,1,1,0,1.8Z"/><path class="cls-2" d="M180,306.53H167a.9.9,0,1,1,0-1.8H180a.9.9,0,1,1,0,1.8Z"/><path class="cls-2" d="M200.28,281.52a.91.91,0,0,1-.64-1.54l9.16-9.16a.91.91,0,0,1,1.28,1.28l-9.16,9.15A.9.9,0,0,1,200.28,281.52Z"/><path class="cls-2" d="M124.49,122.71a.9.9,0,0,1-.63-1.54L133,112a.91.91,0,0,1,1.28,1.28l-9.16,9.16A.9.9,0,0,1,124.49,122.71Z"/><path class="cls-2" d="M301.18,216.57a.91.91,0,0,1-.64-1.54l9.16-9.16a.91.91,0,1,1,1.28,1.28l-9.16,9.15A.9.9,0,0,1,301.18,216.57Z"/><path class="cls-2" d="M233.78,270.89h0a3.16,3.16,0,0,0-1-5.76,3.16,3.16,0,0,0-1.4,6.17,3.34,3.34,0,0,0,.7.08A3.16,3.16,0,0,0,233.78,270.89Zm-.47-.77h0Zm-.91-3.24a1.39,1.39,0,0,1,.85.61,1.35,1.35,0,0,1,.17,1,1.32,1.32,0,0,1-.6.85,1.36,1.36,0,0,1-1.45-2.3,1.34,1.34,0,0,1,.72-.21A1.55,1.55,0,0,1,232.4,266.88Z"/><path class="cls-2" d="M216,208.65h0a3.15,3.15,0,0,0,1-4.36,3.17,3.17,0,0,0-5.77,1,3.17,3.17,0,0,0,2.39,3.79,3.36,3.36,0,0,0,.71.08A3.18,3.18,0,0,0,216,208.65Zm-.48-.76Zm-.91-3.24a1.32,1.32,0,0,1,.85.6,1.34,1.34,0,0,1-.43,1.87,1.35,1.35,0,0,1-1.87-.42,1.35,1.35,0,0,1,.43-1.88,1.4,1.4,0,0,1,.72-.21A1.54,1.54,0,0,1,214.57,204.65Z"/><path class="cls-2" d="M134.42,227.79h0a3.15,3.15,0,0,0,1-4.36,3.17,3.17,0,0,0-4.36-1,3.16,3.16,0,0,0,1,5.77,3.36,3.36,0,0,0,.71.08A3.18,3.18,0,0,0,134.42,227.79Zm-.48-.76Zm-.91-3.24a1.32,1.32,0,0,1,.85.6,1.35,1.35,0,0,1-.42,1.87,1.34,1.34,0,0,1-1,.18,1.38,1.38,0,0,1-.85-.6A1.36,1.36,0,0,1,132,224a1.32,1.32,0,0,1,.72-.21A1,1,0,0,1,133,223.79Z"/><path class="cls-2" d="M157.6,156.58h0a3.16,3.16,0,0,0,1.4-2,3.16,3.16,0,1,0-5.76,1,3.15,3.15,0,0,0,2,1.41,3.43,3.43,0,0,0,.71.08A3.16,3.16,0,0,0,157.6,156.58Zm-.48-.76Zm-.91-3.24a1.36,1.36,0,0,1,1,1.62,1.35,1.35,0,0,1-.6.85,1.35,1.35,0,0,1-1.88-.43,1.35,1.35,0,0,1-.17-1,1.32,1.32,0,0,1,.6-.85,1.34,1.34,0,0,1,.72-.21A1,1,0,0,1,156.21,152.58Z"/><path class="cls-2" d="M282.05,155.45h0a3.15,3.15,0,0,0,1-4.36,3.16,3.16,0,1,0-2.67,4.85A3.12,3.12,0,0,0,282.05,155.45Zm-.48-.76Zm-.9-3.24a1.36,1.36,0,1,1-1.45,2.05,1.33,1.33,0,0,1-.18-1,1.37,1.37,0,0,1,.6-.85,1.42,1.42,0,0,1,.72-.2A1.63,1.63,0,0,1,280.67,151.45Z"/><path class="cls-2" d="M314,236.06h0a3.17,3.17,0,0,0,1-4.36,3.17,3.17,0,1,0-2.68,4.85A3.12,3.12,0,0,0,314,236.06Zm-.47-.76h0Zm-.06-2.64a1.36,1.36,0,0,1,.17,1,1.32,1.32,0,0,1-.6.85,1.36,1.36,0,0,1-1.45-2.3,1.39,1.39,0,0,1,.72-.21A1.37,1.37,0,0,1,313.48,232.66Z"/><path class="cls-2" d="M101.61,151.83a.89.89,0,0,1-.61-.24l-5.51-5.16a.91.91,0,1,1,1.24-1.32l5.5,5.16a.91.91,0,0,1,0,1.28A.9.9,0,0,1,101.61,151.83Z"/><path class="cls-2" d="M96.28,152a.88.88,0,0,1-.62-.25.9.9,0,0,1,0-1.27l5.16-5.51a.91.91,0,1,1,1.32,1.24l-5.16,5.5A.91.91,0,0,1,96.28,152Z"/><path class="cls-2" d="M36.66,179.92a.93.93,0,0,1-.62-.24l-5.5-5.17a.9.9,0,0,1,0-1.27.88.88,0,0,1,1.27,0l5.51,5.16a.9.9,0,0,1,0,1.27A.91.91,0,0,1,36.66,179.92Z"/><path class="cls-2" d="M31.33,180.09a.9.9,0,0,1-.66-1.52l5.16-5.5a.9.9,0,0,1,1.32,1.23L32,179.81A.86.86,0,0,1,31.33,180.09Z"/><path class="cls-2" d="M63.5,241.22a.9.9,0,0,1-.61-.25l-5.51-5.16a.91.91,0,0,1,1.24-1.32l5.5,5.17a.89.89,0,0,1,0,1.27A.88.88,0,0,1,63.5,241.22Z"/><path class="cls-2" d="M58.17,241.39a.91.91,0,0,1-.66-1.52l5.17-5.51a.9.9,0,0,1,1.27,0,.91.91,0,0,1,0,1.28l-5.16,5.5A.91.91,0,0,1,58.17,241.39Z"/><path class="cls-2" d="M59.23,291.15a.89.89,0,0,1-.62-.25l-5.5-5.16a.9.9,0,0,1,1.23-1.32l5.51,5.17a.9.9,0,0,1,0,1.27A.91.91,0,0,1,59.23,291.15Z"/><path class="cls-2" d="M53.89,291.32a.9.9,0,0,1-.65-1.52l5.16-5.5a.9.9,0,1,1,1.32,1.23L54.55,291A.91.91,0,0,1,53.89,291.32Z"/><path class="cls-2" d="M-1.55,166.8H13.59a.9.9,0,0,0,.78-.45.92.92,0,0,0,0-.91L6.79,152.32a.92.92,0,0,0-.78-.45H6a.91.91,0,0,0-.78.46l-7.56,13.12a.9.9,0,0,0,0,.9.9.9,0,0,0,.78.45Zm10.57-7H9l3,5.2H0l6-10.41Z"/><path class="cls-2" d="M-14.08,246.93H1.06a.9.9,0,0,0,.78-1.35l-7.58-13.11a.9.9,0,0,0-.78-.45h0a.91.91,0,0,0-.79.45l-7.56,13.12a.9.9,0,0,0,0,.9.91.91,0,0,0,.79.45Zm10.57-7h0l3,5.2h-12l6-10.41Z"/><path class="cls-2" d="M29.36,271.54H44.5a.9.9,0,0,0,.78-1.35L37.7,257.07a.9.9,0,0,0-.78-.45h0a.89.89,0,0,0-.78.45l-7.57,13.12a.91.91,0,0,0,.79,1.35Zm10.57-7h0l3,5.2h-12l6-10.42Z"/><path class="cls-2" d="M64,221.93a.88.88,0,0,0,.64-.64l3.91-14.63a.93.93,0,0,0-.23-.87.89.89,0,0,0-.88-.23l-14.62,3.93a.92.92,0,0,0-.64.64.91.91,0,0,0,.24.87L63.1,221.7a.9.9,0,0,0,.64.26A.85.85,0,0,0,64,221.93Zm2.4-14.22-1.55,5.8h0l-1.55,5.81-8.5-8.49Z"/><path class="cls-2" d="M67.26,141.56,80.37,134a.91.91,0,0,0,0-1.57l-13.12-7.56a.9.9,0,0,0-1.35.78v15.15a.9.9,0,0,0,1.35.78Zm10.85-8.36-5.2,3h0l-5.2,3v-12Z"/><path class="cls-2" d="M23.5,200.23a6.65,6.65,0,1,0-6.65,6.65A6.66,6.66,0,0,0,23.5,200.23Zm-1.81,0a4.84,4.84,0,1,1-4.84-4.84A4.84,4.84,0,0,1,21.69,200.23Z"/><path class="cls-2" d="M24.09,298a.9.9,0,0,1-.9-.9,4.85,4.85,0,0,0-9.69,0,.9.9,0,0,1-1.8,0,6.65,6.65,0,0,1,13.29,0A.9.9,0,0,1,24.09,298Z"/><path class="cls-2" d="M51.11,172.52a6.62,6.62,0,1,1,0-13.24.9.9,0,0,1,0,1.8,4.82,4.82,0,1,0,0,9.63.91.91,0,0,1,0,1.81Z"/><path class="cls-2" d="M93.71,251.77a6.65,6.65,0,1,0-6.65,6.65A6.66,6.66,0,0,0,93.71,251.77Zm-1.81,0a4.84,4.84,0,1,1-4.84-4.84A4.85,4.85,0,0,1,91.9,251.77Z"/><path class="cls-2" d="M89.24,171.61V160.18a.9.9,0,0,0-.9-.9H76.91a.9.9,0,0,0-.9.9v11.43a.9.9,0,0,0,.9.9H88.34A.9.9,0,0,0,89.24,171.61ZM77.82,161.09h9.62v9.62H77.82Z"/><path class="cls-2" d="M89.24,305.63V294.2a.9.9,0,0,0-.9-.9H76.91a.9.9,0,0,0-.9.9v11.43a.91.91,0,0,0,.9.9H88.34A.9.9,0,0,0,89.24,305.63ZM77.82,295.1h9.62v9.62H77.82Z"/><path class="cls-2" d="M41.84,122.94V111.52a.9.9,0,0,0-.9-.91H29.52a.91.91,0,0,0-.91.91v11.42a.91.91,0,0,0,.91.91H40.94A.9.9,0,0,0,41.84,122.94ZM30.42,112.42H40V122H30.42Z"/><path class="cls-2" d="M13.1,228.6c-1.71,0-2.45-1.38-3-2.49s-1.1-1.93-2.2-1.93a.91.91,0,0,1,0-1.81c2.23,0,3.13,1.67,3.79,2.89s.88,1.53,1.46,1.53a.91.91,0,0,1,0,1.81Z"/><path class="cls-2" d="M23.59,228.6c-1.71,0-2.45-1.38-3.05-2.49s-1.1-1.93-2.19-1.93a.91.91,0,1,1,0-1.81c2.22,0,3.12,1.67,3.78,2.89s.89,1.53,1.46,1.53a.91.91,0,1,1,0,1.81Z"/><path class="cls-2" d="M13.1,228.6a.91.91,0,0,1,0-1.81c.57,0,.87-.44,1.46-1.53s1.56-2.89,3.79-2.89a.91.91,0,0,1,0,1.81c-1.1,0-1.55.73-2.2,1.93S14.81,228.6,13.1,228.6Z"/><path class="cls-2" d="M28.84,223.27"/><path class="cls-2" d="M23.59,228.6a.91.91,0,0,1,0-1.81c.58,0,.88-.44,1.46-1.53s1.56-2.89,3.79-2.89a.91.91,0,0,1,0,1.81c-1.09,0-1.55.73-2.2,1.93S25.3,228.6,23.59,228.6Z"/><path class="cls-2" d="M43,311c-1.71,0-2.45-1.37-3.05-2.48s-1.1-1.94-2.19-1.94a.91.91,0,1,1,0-1.81c2.22,0,3.12,1.67,3.78,2.89s.89,1.54,1.46,1.54a.9.9,0,1,1,0,1.8Z"/><path class="cls-2" d="M53.49,311c-1.71,0-2.46-1.37-3.05-2.48s-1.1-1.94-2.2-1.94a.91.91,0,0,1,0-1.81c2.23,0,3.13,1.67,3.79,2.89s.88,1.54,1.46,1.54a.9.9,0,1,1,0,1.8Z"/><path class="cls-2" d="M43,311a.9.9,0,0,1,0-1.8c.58,0,.88-.45,1.47-1.54s1.55-2.89,3.78-2.89a.91.91,0,0,1,0,1.81c-1.09,0-1.55.74-2.2,1.94S44.7,311,43,311Z"/><path class="cls-2" d="M58.73,305.66"/><path class="cls-2" d="M53.49,311a.9.9,0,1,1,0-1.8c.57,0,.87-.45,1.46-1.54s1.56-2.89,3.78-2.89h0a.91.91,0,1,1,0,1.81h0c-1.09,0-1.52.7-2.19,1.94s-1.34,2.48-3,2.48Z"/><path class="cls-2" d="M57.3,192.21c-1.71,0-2.45-1.38-3-2.48s-1.1-1.94-2.19-1.94a.91.91,0,1,1,0-1.81c2.22,0,3.12,1.67,3.78,2.89s.89,1.54,1.46,1.54a.9.9,0,1,1,0,1.8Z"/><path class="cls-2" d="M67.8,192.21c-1.71,0-2.46-1.38-3-2.48s-1.1-1.94-2.2-1.94a.91.91,0,0,1,0-1.81c2.23,0,3.13,1.67,3.78,2.89s.89,1.54,1.47,1.54a.9.9,0,1,1,0,1.8Z"/><path class="cls-2" d="M57.3,192.21a.9.9,0,1,1,0-1.8c.58,0,.88-.45,1.47-1.54S60.32,186,62.55,186a.91.91,0,0,1,0,1.81c-1.09,0-1.55.73-2.2,1.94S59,192.21,57.3,192.21Z"/><path class="cls-2" d="M73,186.88"/><path class="cls-2" d="M67.8,192.21a.9.9,0,1,1,0-1.8c.57,0,.87-.45,1.46-1.54S70.82,186,73,186h0a.91.91,0,1,1,0,1.81h0c-1.09,0-1.52.7-2.19,1.94S69.51,192.21,67.8,192.21Z"/><path class="cls-2" d="M9.54,132.89a.9.9,0,0,1-.9-.9c0-2.22,1.67-3.13,2.89-3.78s1.53-.89,1.53-1.47a.91.91,0,0,1,1.81,0c0,1.71-1.38,2.46-2.48,3s-1.94,1.11-1.94,2.2A.9.9,0,0,1,9.54,132.89Z"/><path class="cls-2" d="M9.54,122.4a.9.9,0,0,1-.9-.9c0-2.23,1.67-3.13,2.89-3.79s1.53-.88,1.53-1.46a.91.91,0,0,1,1.81,0c0,1.71-1.38,2.45-2.48,3s-1.94,1.1-1.94,2.2A.9.9,0,0,1,9.54,122.4Z"/><path class="cls-2" d="M14,127.65a.91.91,0,0,1-.91-.91c0-.57-.44-.87-1.53-1.46s-2.89-1.56-2.89-3.78a.91.91,0,1,1,1.81,0c0,1.09.73,1.55,1.94,2.19s2.48,1.35,2.48,3A.9.9,0,0,1,14,127.65Z"/><path class="cls-2" d="M9.54,111"/><path class="cls-2" d="M14,117.15a.9.9,0,0,1-.91-.9c0-.57-.44-.87-1.53-1.46S8.64,113.23,8.64,111a.91.91,0,0,1,1.81,0c0,1.1.73,1.55,1.94,2.2s2.48,1.34,2.48,3A.9.9,0,0,1,14,117.15Z"/><path class="cls-2" d="M64.59,275.48a.9.9,0,0,1-.9-.91c0-2.22,1.66-3.12,2.88-3.78s1.54-.89,1.54-1.46a.9.9,0,1,1,1.8,0c0,1.71-1.37,2.45-2.48,3.05s-1.94,1.1-1.94,2.19A.9.9,0,0,1,64.59,275.48Z"/><path class="cls-2" d="M64.59,265a.9.9,0,0,1-.9-.9c0-2.23,1.66-3.13,2.88-3.79s1.54-.88,1.54-1.46a.9.9,0,0,1,1.8,0c0,1.71-1.37,2.45-2.48,3.05s-1.94,1.1-1.94,2.2A.9.9,0,0,1,64.59,265Z"/><path class="cls-2" d="M69,270.23a.9.9,0,0,1-.9-.9c0-.58-.45-.88-1.54-1.47s-2.88-1.55-2.88-3.78a.9.9,0,0,1,1.8,0c0,1.1.7,1.53,1.94,2.2s2.48,1.34,2.48,3.05A.9.9,0,0,1,69,270.23Z"/><path class="cls-2" d="M64.59,253.59"/><path class="cls-2" d="M69,259.73a.9.9,0,0,1-.9-.9c0-.57-.45-.87-1.54-1.46s-2.88-1.56-2.88-3.78a.9.9,0,1,1,1.8,0c0,1.09.74,1.54,1.94,2.19s2.48,1.34,2.48,3A.9.9,0,0,1,69,259.73Z"/><path class="cls-2" d="M38.62,240.37H25.67a.9.9,0,1,1,0-1.8H38.62a.9.9,0,0,1,0,1.8Z"/><path class="cls-2" d="M39.59,142.78h-13a.91.91,0,0,1,0-1.81h13a.91.91,0,0,1,0,1.81Z"/><path class="cls-2" d="M90.62,113.55H77.68a.9.9,0,1,1,0-1.8H90.62a.9.9,0,1,1,0,1.8Z"/><path class="cls-2" d="M84.15,216.57a.91.91,0,0,1-.64-1.54l9.16-9.16a.9.9,0,1,1,1.27,1.28l-9.15,9.15A.9.9,0,0,1,84.15,216.57Z"/><path class="cls-2" d="M16.75,270.89h0a3.16,3.16,0,0,0,1-4.36,3.07,3.07,0,0,0-2-1.4,3.16,3.16,0,0,0-1.41,6.17,3.51,3.51,0,0,0,.71.08A3.16,3.16,0,0,0,16.75,270.89Zm-.47-.77h0Zm-.91-3.24a1.42,1.42,0,0,1,.85.61,1.35,1.35,0,0,1,.17,1,1.32,1.32,0,0,1-.6.85,1.36,1.36,0,0,1-1.45-2.3,1.34,1.34,0,0,1,.72-.21A1.63,1.63,0,0,1,15.37,266.88Z"/><path class="cls-2" d="M-1.08,208.65h0a3.1,3.1,0,0,0,1.4-2,3.13,3.13,0,0,0-.4-2.39,3.15,3.15,0,0,0-2-1.4,3.15,3.15,0,0,0-2.39.41,3.17,3.17,0,0,0-1.4,2,3.18,3.18,0,0,0,.41,2.39,3.16,3.16,0,0,0,2,1.4,3.34,3.34,0,0,0,.7.08A3.16,3.16,0,0,0-1.08,208.65Zm-.47-.76h0Zm-.91-3.24a1.34,1.34,0,0,1,.85.6,1.37,1.37,0,0,1,.17,1,1.32,1.32,0,0,1-.6.84,1.31,1.31,0,0,1-1,.18,1.32,1.32,0,0,1-.85-.6,1.33,1.33,0,0,1-.18-1,1.41,1.41,0,0,1,.6-.85,1.43,1.43,0,0,1,.72-.21A1.55,1.55,0,0,1-2.46,204.65Z"/><path class="cls-2" d="M65,155.45h0a3.16,3.16,0,0,0-1-5.76,3.16,3.16,0,0,0-3.38,4.77,3.15,3.15,0,0,0,4.36,1Zm-.48-.76Zm-.9-3.24a1.32,1.32,0,0,1,.84.6,1.33,1.33,0,0,1,.18,1,1.36,1.36,0,1,1-2-1.46,1.42,1.42,0,0,1,.72-.2Z"/><path class="cls-2" d="M97,236.06h0a3.16,3.16,0,0,0,1-4.36,3.16,3.16,0,1,0-2.67,4.85A3.12,3.12,0,0,0,97,236.06Zm-.48-.76Zm0-2.64a1.36,1.36,0,0,1,.17,1,1.32,1.32,0,0,1-.6.85,1.36,1.36,0,0,1-1.45-2.3,1.39,1.39,0,0,1,.72-.21A1.37,1.37,0,0,1,96.45,232.66Z"/><path class="cls-2" d="M300.76,20a.89.89,0,0,1-.62-.25l-5.5-5.16a.9.9,0,0,1,1.23-1.32l5.51,5.17a.9.9,0,0,1,0,1.27A.91.91,0,0,1,300.76,20Z"/><path class="cls-2" d="M295.43,20.15a.86.86,0,0,1-.62-.25.89.89,0,0,1,0-1.27l5.16-5.51a.91.91,0,1,1,1.32,1.24l-5.17,5.5A.87.87,0,0,1,295.43,20.15Z"/><path class="cls-2" d="M233.77,64.23a.93.93,0,0,1-.62-.24l-5.5-5.17a.9.9,0,0,1,1.23-1.31l5.51,5.16a.91.91,0,0,1,0,1.28A.9.9,0,0,1,233.77,64.23Z"/><path class="cls-2" d="M228.43,64.4a.89.89,0,0,1-.61-.24.9.9,0,0,1,0-1.28l5.16-5.5a.9.9,0,0,1,1.32,1.23l-5.17,5.51A.87.87,0,0,1,228.43,64.4Z"/><path class="cls-2" d="M389.05,30a.89.89,0,0,1-.61-.24l-5.51-5.16a.91.91,0,0,1,0-1.28.9.9,0,0,1,1.27,0l5.51,5.16a.91.91,0,0,1,0,1.28A.9.9,0,0,1,389.05,30Z"/><path class="cls-2" d="M383.72,30.19a.92.92,0,0,1-.62-.25.9.9,0,0,1,0-1.27l5.16-5.51a.91.91,0,0,1,1.32,1.24l-5.16,5.5A.91.91,0,0,1,383.72,30.19Z"/><path class="cls-2" d="M384.78,80a.88.88,0,0,1-.62-.25l-5.51-5.16a.91.91,0,1,1,1.24-1.32l5.5,5.17a.9.9,0,0,1-.61,1.56Z"/><path class="cls-2" d="M379.44,80.12a.91.91,0,0,1-.66-1.52L384,73.09a.9.9,0,1,1,1.31,1.24l-5.16,5.5A.91.91,0,0,1,379.44,80.12Z"/><path class="cls-2" d="M311.46,35.73h15.15a.9.9,0,0,0,.78-1.35l-7.58-13.11a.91.91,0,0,0-.79-.45h0a.9.9,0,0,0-.78.45l-7.56,13.12a.9.9,0,0,0,.78,1.35Zm10.57-7h0l3,5.2H313l6-10.41Z"/><path class="cls-2" d="M354.9,60.34h15.15a.9.9,0,0,0,.78-1.35l-7.58-13.11a.91.91,0,0,0-.78-.46h0a.91.91,0,0,0-.78.46L354.12,59a.9.9,0,0,0,.78,1.35Zm10.57-7h0l3,5.21h-12l6-10.41Z"/><path class="cls-2" d="M389.52,10.73a.9.9,0,0,0,.64-.64l3.91-14.63a.91.91,0,0,0-.24-.87.87.87,0,0,0-.87-.23L378.34-1.71a.89.89,0,0,0-.64.63.94.94,0,0,0,.23.88l10.72,10.7a.9.9,0,0,0,.64.26Zm2.4-14.22-1.55,5.8h0l-1.55,5.81-8.5-8.5Z"/><path class="cls-2" d="M259.83,83.87a.92.92,0,0,0,.64-.64l3.91-14.63a.91.91,0,0,0-1.11-1.11l-14.62,3.94a.89.89,0,0,0-.64.63.94.94,0,0,0,.23.88L259,83.64a.9.9,0,0,0,.64.26Zm2.4-14.23-1.55,5.81h0l-1.55,5.8-8.5-8.49Z"/><path class="cls-2" d="M255.28,6l6.55-3.79h0l6.56-3.79a.91.91,0,0,0,.45-.79.9.9,0,0,0-.45-.78l-13.12-7.56a.9.9,0,0,0-.9,0,.88.88,0,0,0-.45.78V5.22a.9.9,0,0,0,.9.9A.92.92,0,0,0,255.28,6Zm10.85-8.36-5.2,3h0l-5.2,3v-12Z"/><path class="cls-2" d="M323.69,94.45A6.65,6.65,0,1,0,317,101.1,6.65,6.65,0,0,0,323.69,94.45Zm-1.81,0A4.84,4.84,0,1,1,317,89.61,4.85,4.85,0,0,1,321.88,94.45Z"/><path class="cls-2" d="M349.64,86.77a.9.9,0,0,1-.9-.9,4.85,4.85,0,0,0-9.69,0,.9.9,0,0,1-1.8,0,6.65,6.65,0,1,1,13.29,0A.9.9,0,0,1,349.64,86.77Z"/><path class="cls-2" d="M238.35,95.33a6.62,6.62,0,1,1,0-13.24.9.9,0,1,1,0,1.8,4.82,4.82,0,1,0,0,9.64.9.9,0,0,1,0,1.8Z"/><path class="cls-2" d="M242.12,34a6.65,6.65,0,1,0-6.65,6.65A6.65,6.65,0,0,0,242.12,34Zm-1.8,0a4.85,4.85,0,1,1-4.85-4.84A4.85,4.85,0,0,1,240.32,34Z"/><path class="cls-2" d="M419.25,40.57a6.65,6.65,0,1,0-6.64,6.65A6.65,6.65,0,0,0,419.25,40.57Zm-1.8,0a4.84,4.84,0,1,1-4.84-4.84A4.84,4.84,0,0,1,417.45,40.57Z"/><path class="cls-2" d="M285,39.07V27.64a.9.9,0,0,0-.9-.9H272.7a.9.9,0,0,0-.9.9V39.07a.9.9,0,0,0,.9.9h11.43A.9.9,0,0,0,285,39.07ZM273.61,28.54h9.62v9.62h-9.62Z"/><path class="cls-2" d="M414.79,94.42V83a.9.9,0,0,0-.9-.91H402.46a.9.9,0,0,0-.9.91V94.42a.9.9,0,0,0,.9.91h11.43A.9.9,0,0,0,414.79,94.42ZM403.36,83.9H413v9.62h-9.63Z"/><path class="cls-2" d="M338.65,17.4c-1.71,0-2.46-1.38-3-2.49S334.49,13,333.4,13a.9.9,0,1,1,0-1.8c2.23,0,3.13,1.67,3.78,2.89s.89,1.53,1.47,1.53a.91.91,0,0,1,0,1.81Z"/><path class="cls-2" d="M349.14,17.4c-1.71,0-2.45-1.38-3.05-2.49S345,13,343.89,13a.9.9,0,1,1,0-1.8c2.23,0,3.13,1.67,3.79,2.89s.88,1.53,1.46,1.53a.91.91,0,0,1,0,1.81Z"/><path class="cls-2" d="M338.65,17.4a.91.91,0,1,1,0-1.81c.57,0,.87-.44,1.46-1.53s1.56-2.89,3.78-2.89a.9.9,0,1,1,0,1.8c-1.09,0-1.54.74-2.19,1.94S340.36,17.4,338.65,17.4Z"/><path class="cls-2" d="M354.39,12.07"/><path class="cls-2" d="M349.14,17.4a.91.91,0,0,1,0-1.81c.58,0,.87-.44,1.46-1.53s1.56-2.89,3.79-2.89a.9.9,0,0,1,0,1.8c-1.1,0-1.55.74-2.2,1.94S350.85,17.4,349.14,17.4Z"/><path class="cls-2" d="M368.54,99.78c-1.71,0-2.45-1.38-3.05-2.48s-1.1-1.94-2.2-1.94a.91.91,0,0,1,0-1.81c2.23,0,3.13,1.67,3.79,2.89S368,98,368.54,98a.9.9,0,1,1,0,1.8Z"/><path class="cls-2" d="M379,99.78c-1.7,0-2.45-1.38-3-2.48s-1.1-1.94-2.19-1.94a.91.91,0,0,1,0-1.81c2.22,0,3.13,1.67,3.78,2.89S378.46,98,379,98a.9.9,0,1,1,0,1.8Z"/><path class="cls-2" d="M368.54,99.78a.9.9,0,1,1,0-1.8c.58,0,.87-.45,1.46-1.54s1.56-2.89,3.79-2.89a.91.91,0,0,1,0,1.81c-1.1,0-1.55.73-2.2,1.94S370.25,99.78,368.54,99.78Z"/><path class="cls-2" d="M384.28,94.46"/><path class="cls-2" d="M379,99.78a.9.9,0,0,1,0-1.8c.58,0,.88-.45,1.47-1.54s1.56-2.89,3.78-2.89h0a.91.91,0,0,1,0,1.81h0c-1.1,0-1.53.7-2.2,1.94s-1.34,2.48-3,2.48Z"/><path class="cls-2" d="M390.14,64.27a.9.9,0,0,1-.91-.9c0-2.23,1.67-3.13,2.89-3.78s1.54-.89,1.54-1.47a.9.9,0,0,1,1.8,0c0,1.71-1.38,2.46-2.48,3.05s-1.94,1.1-1.94,2.2A.9.9,0,0,1,390.14,64.27Z"/><path class="cls-2" d="M390.14,53.78a.91.91,0,0,1-.91-.9c0-2.23,1.67-3.13,2.89-3.79s1.54-.88,1.54-1.46a.9.9,0,0,1,1.8,0c0,1.71-1.38,2.45-2.48,3s-1.94,1.1-1.94,2.2A.91.91,0,0,1,390.14,53.78Z"/><path class="cls-2" d="M394.56,59a.9.9,0,0,1-.9-.91c0-.57-.45-.87-1.54-1.46s-2.89-1.56-2.89-3.78a.91.91,0,1,1,1.81,0c0,1.09.7,1.52,1.94,2.19s2.48,1.34,2.48,3A.9.9,0,0,1,394.56,59Z"/><path class="cls-2" d="M390.14,42.38"/><path class="cls-2" d="M394.56,48.53a.9.9,0,0,1-.9-.9c0-.58-.45-.87-1.54-1.46s-2.89-1.56-2.89-3.79a.91.91,0,0,1,1.81,0c0,1.1.74,1.55,1.94,2.2s2.48,1.34,2.48,3.05A.9.9,0,0,1,394.56,48.53Z"/><path class="cls-2" d="M281.92,72.54a.9.9,0,0,1-.91-.9c0-2.23,1.67-3.13,2.89-3.78s1.54-.89,1.54-1.47a.9.9,0,1,1,1.8,0c0,1.71-1.37,2.46-2.48,3s-1.94,1.1-1.94,2.2A.9.9,0,0,1,281.92,72.54Z"/><path class="cls-2" d="M281.92,62.05a.91.91,0,0,1-.91-.9c0-2.23,1.67-3.13,2.89-3.79s1.54-.88,1.54-1.46a.9.9,0,1,1,1.8,0c0,1.71-1.37,2.45-2.48,3.05s-1.94,1.1-1.94,2.2A.9.9,0,0,1,281.92,62.05Z"/><path class="cls-2" d="M286.34,67.3a.9.9,0,0,1-.9-.91c0-.57-.45-.87-1.54-1.46S281,63.37,281,61.15a.91.91,0,1,1,1.81,0c0,1.09.74,1.54,1.94,2.19s2.48,1.34,2.48,3A.9.9,0,0,1,286.34,67.3Z"/><path class="cls-2" d="M281.92,50.65"/><path class="cls-2" d="M286.34,56.8a.9.9,0,0,1-.9-.9c0-.58-.45-.87-1.54-1.46S281,52.88,281,50.65a.91.91,0,0,1,1.81,0c0,1.1.74,1.55,1.94,2.2s2.48,1.34,2.48,3A.9.9,0,0,1,286.34,56.8Z"/><path class="cls-2" d="M364.17,29.17H351.22a.9.9,0,1,1,0-1.8h12.95a.9.9,0,0,1,0,1.8Z"/><path class="cls-2" d="M288.5,95.33H275.55a.9.9,0,1,1,0-1.8H288.5a.9.9,0,1,1,0,1.8Z"/><path class="cls-2" d="M308.8,70.32a.91.91,0,0,1-.64-1.54l9.16-9.16a.9.9,0,0,1,1.27,0,.91.91,0,0,1,0,1.28l-9.15,9.15A.9.9,0,0,1,308.8,70.32Z"/><path class="cls-2" d="M409.7,5.36a.89.89,0,0,1-.64-.26.91.91,0,0,1,0-1.28l9.16-9.15a.9.9,0,0,1,1.27,0,.9.9,0,0,1,0,1.27L410.34,5.1A.89.89,0,0,1,409.7,5.36Z"/><path class="cls-2" d="M342.3,59.69h0a3.19,3.19,0,0,0,1.4-2,3.16,3.16,0,1,0-5.76,1,3.1,3.1,0,0,0,2,1.4,2.87,2.87,0,0,0,.71.08A3.15,3.15,0,0,0,342.3,59.69Zm-.48-.77Zm-.9-3.24a1.33,1.33,0,0,1,.84.61,1.31,1.31,0,0,1,.18,1,1.34,1.34,0,0,1-.6.85,1.36,1.36,0,1,1-1.45-2.3,1.34,1.34,0,0,1,.72-.21Z"/><path class="cls-2" d="M242.93,16.59h0a3.16,3.16,0,0,0,1-4.36,3.07,3.07,0,0,0-2-1.4A3.16,3.16,0,0,0,240.54,17a3.51,3.51,0,0,0,.71.08A3.16,3.16,0,0,0,242.93,16.59Zm-.47-.76h0Zm-.91-3.24a1.37,1.37,0,0,1,.85.6,1.35,1.35,0,0,1,.17,1,1.32,1.32,0,0,1-.6.85,1.36,1.36,0,0,1-1,.18,1.33,1.33,0,0,1-.85-.61,1.36,1.36,0,0,1,.42-1.87,1.34,1.34,0,0,1,.72-.21A1.1,1.1,0,0,1,241.55,12.59Z"/><path class="cls-2" d="M422.53,24.86h0a3.16,3.16,0,0,0,1.4-2,3.12,3.12,0,0,0-.41-2.38,3.15,3.15,0,1,0-1,4.36Zm-.48-.77ZM422,21.46a1.31,1.31,0,0,1,.18,1,1.37,1.37,0,1,1-.18-1Z"/><path class="cls-2" d="M83.73,20a.89.89,0,0,1-.62-.25l-5.5-5.16a.9.9,0,0,1,1.23-1.32l5.51,5.17a.9.9,0,0,1,0,1.27A.91.91,0,0,1,83.73,20Z"/><path class="cls-2" d="M78.39,20.15a.85.85,0,0,1-.61-.25.88.88,0,0,1,0-1.27l5.16-5.51a.91.91,0,0,1,1.32,1.24l-5.17,5.5A.91.91,0,0,1,78.39,20.15Z"/><path class="cls-2" d="M16.74,64.23a.91.91,0,0,1-.62-.24l-5.5-5.17a.89.89,0,0,1,0-1.27.9.9,0,0,1,1.28,0l5.51,5.16a.91.91,0,0,1,0,1.28A.9.9,0,0,1,16.74,64.23Z"/><path class="cls-2" d="M11.4,64.4a.89.89,0,0,1-.61-.24.9.9,0,0,1,0-1.28l5.17-5.5a.9.9,0,0,1,1.32,1.23l-5.17,5.51A.9.9,0,0,1,11.4,64.4Z"/><path class="cls-2" d="M172,30a.93.93,0,0,1-.62-.24l-5.5-5.16a.9.9,0,0,1,1.23-1.32l5.51,5.16a.91.91,0,0,1,0,1.28A.9.9,0,0,1,172,30Z"/><path class="cls-2" d="M166.69,30.19a.9.9,0,0,1-.62-.25.89.89,0,0,1,0-1.27l5.16-5.51a.91.91,0,0,1,1.32,1.24l-5.17,5.5A.87.87,0,0,1,166.69,30.19Z"/><path class="cls-2" d="M167.74,80a.85.85,0,0,1-.61-.25l-5.51-5.16a.91.91,0,1,1,1.24-1.32l5.5,5.17a.89.89,0,0,1,0,1.27A.88.88,0,0,1,167.74,80Z"/><path class="cls-2" d="M162.41,80.12a.91.91,0,0,1-.66-1.52l5.17-5.51a.9.9,0,0,1,1.27,0,.91.91,0,0,1,0,1.28l-5.16,5.5A.91.91,0,0,1,162.41,80.12Z"/><path class="cls-2" d="M94.43,35.73h15.14a.91.91,0,0,0,.79-.45.88.88,0,0,0,0-.9l-7.58-13.11a.9.9,0,0,0-.78-.45h0a.9.9,0,0,0-.78.45L93.65,34.38a.9.9,0,0,0,.78,1.35Zm10.57-7h0l3,5.2H96l6-10.41Z"/><path class="cls-2" d="M137.87,60.34H153A.9.9,0,0,0,153.8,59l-7.59-13.11a.9.9,0,0,0-.78-.46h0a.91.91,0,0,0-.78.46L137.09,59a.9.9,0,0,0,.78,1.35Zm10.57-7h0l3,5.21h-12l6-10.41Z"/><path class="cls-2" d="M172.49,10.73a.92.92,0,0,0,.64-.64L177-4.54a.91.91,0,0,0-.24-.87.88.88,0,0,0-.87-.23L161.31-1.71a.89.89,0,0,0-.64.63.94.94,0,0,0,.23.88l10.72,10.7a.89.89,0,0,0,.63.26A1,1,0,0,0,172.49,10.73Zm2.4-14.22-1.55,5.8h0l-1.55,5.81-8.51-8.5Z"/><path class="cls-2" d="M42.8,83.87a.92.92,0,0,0,.64-.64L47.35,68.6a.91.91,0,0,0-1.11-1.11L31.62,71.43a.87.87,0,0,0-.64.63.89.89,0,0,0,.23.88l10.72,10.7a.89.89,0,0,0,.63.26A1,1,0,0,0,42.8,83.87Zm2.4-14.23-1.55,5.81h0l-1.55,5.8-8.51-8.49Z"/><path class="cls-2" d="M38.25,6,44.8,2.21h0l6.56-3.79a.91.91,0,0,0,.45-.79.9.9,0,0,0-.45-.78L38.24-10.71a.92.92,0,0,0-.91,0,.9.9,0,0,0-.45.78V5.22a.91.91,0,0,0,.46.78.87.87,0,0,0,.45.12A.92.92,0,0,0,38.25,6ZM49.1-2.36l-5.2,3h0l-5.2,3v-12Z"/><path class="cls-2" d="M106.66,94.45A6.65,6.65,0,1,0,100,101.1,6.66,6.66,0,0,0,106.66,94.45Zm-1.81,0A4.84,4.84,0,1,1,100,89.61,4.85,4.85,0,0,1,104.85,94.45Z"/><path class="cls-2" d="M132.61,86.77a.9.9,0,0,1-.91-.9,4.84,4.84,0,1,0-9.68,0,.91.91,0,0,1-1.81,0,6.65,6.65,0,1,1,13.3,0A.9.9,0,0,1,132.61,86.77Z"/><path class="cls-2" d="M21.31,95.33a6.62,6.62,0,1,1,0-13.24.9.9,0,1,1,0,1.8,4.82,4.82,0,1,0,0,9.64.9.9,0,1,1,0,1.8Z"/><path class="cls-2" d="M25.09,34a6.65,6.65,0,1,0-6.65,6.65A6.65,6.65,0,0,0,25.09,34Zm-1.81,0a4.84,4.84,0,1,1-4.84-4.84A4.84,4.84,0,0,1,23.28,34Z"/><path class="cls-2" d="M202.22,40.57a6.65,6.65,0,1,0-6.64,6.65A6.65,6.65,0,0,0,202.22,40.57Zm-1.8,0a4.85,4.85,0,1,1-4.84-4.84A4.84,4.84,0,0,1,200.42,40.57Z"/><path class="cls-2" d="M68,39.07V27.64a.9.9,0,0,0-.9-.9H55.67a.9.9,0,0,0-.9.9V39.07a.9.9,0,0,0,.9.9H67.1A.9.9,0,0,0,68,39.07ZM56.57,28.54h9.62v9.62H56.57Z"/><path class="cls-2" d="M197.76,94.42V83a.91.91,0,0,0-.9-.91H185.43a.9.9,0,0,0-.9.91V94.42a.9.9,0,0,0,.9.91h11.43A.91.91,0,0,0,197.76,94.42ZM186.33,83.9H196v9.62h-9.62Z"/><path class="cls-2" d="M121.61,17.4c-1.71,0-2.45-1.38-3-2.49S117.46,13,116.37,13a.9.9,0,1,1,0-1.8c2.22,0,3.12,1.67,3.78,2.89s.89,1.53,1.46,1.53a.91.91,0,1,1,0,1.81Z"/><path class="cls-2" d="M132.11,17.4c-1.71,0-2.45-1.38-3.05-2.49S128,13,126.86,13a.9.9,0,0,1,0-1.8c2.23,0,3.13,1.67,3.79,2.89s.88,1.53,1.46,1.53a.91.91,0,0,1,0,1.81Z"/><path class="cls-2" d="M121.61,17.4a.91.91,0,0,1,0-1.81c.58,0,.88-.44,1.47-1.53s1.56-2.89,3.78-2.89a.9.9,0,1,1,0,1.8c-1.09,0-1.55.74-2.2,1.94S123.32,17.4,121.61,17.4Z"/><path class="cls-2" d="M137.36,12.07"/><path class="cls-2" d="M132.11,17.4a.91.91,0,0,1,0-1.81c.57,0,.87-.44,1.46-1.53s1.56-2.89,3.79-2.89a.9.9,0,1,1,0,1.8c-1.1,0-1.55.74-2.2,1.94S133.82,17.4,132.11,17.4Z"/><path class="cls-2" d="M151.51,99.78c-1.71,0-2.45-1.38-3-2.48s-1.1-1.94-2.2-1.94a.91.91,0,0,1,0-1.81c2.23,0,3.13,1.67,3.79,2.89s.88,1.54,1.46,1.54a.9.9,0,0,1,0,1.8Z"/><path class="cls-2" d="M162,99.78c-1.71,0-2.45-1.38-3.05-2.48s-1.1-1.94-2.19-1.94a.91.91,0,1,1,0-1.81c2.22,0,3.12,1.67,3.78,2.89S161.43,98,162,98a.9.9,0,1,1,0,1.8Z"/><path class="cls-2" d="M151.51,99.78a.9.9,0,1,1,0-1.8c.57,0,.87-.45,1.46-1.54s1.56-2.89,3.79-2.89a.91.91,0,0,1,0,1.81c-1.1,0-1.55.73-2.2,1.94S153.22,99.78,151.51,99.78Z"/><path class="cls-2" d="M167.25,94.46"/><path class="cls-2" d="M162,99.78a.9.9,0,0,1,0-1.8c.58,0,.88-.45,1.46-1.54s1.56-2.89,3.79-2.89h0a.91.91,0,0,1,0,1.81h0c-1.1,0-1.53.7-2.2,1.94s-1.34,2.48-3.05,2.48Z"/><path class="cls-2" d="M173.1,64.27a.9.9,0,0,1-.9-.9c0-2.23,1.67-3.13,2.89-3.78s1.54-.89,1.54-1.47a.9.9,0,0,1,1.8,0c0,1.71-1.38,2.46-2.48,3.05s-1.94,1.1-1.94,2.2A.9.9,0,0,1,173.1,64.27Z"/><path class="cls-2" d="M173.1,53.78a.91.91,0,0,1-.9-.9c0-2.23,1.67-3.13,2.89-3.79s1.54-.88,1.54-1.46a.9.9,0,0,1,1.8,0c0,1.71-1.38,2.45-2.48,3s-1.94,1.1-1.94,2.2A.91.91,0,0,1,173.1,53.78Z"/><path class="cls-2" d="M177.53,59a.9.9,0,0,1-.9-.91c0-.57-.45-.87-1.54-1.46s-2.89-1.56-2.89-3.78a.91.91,0,1,1,1.81,0c0,1.09.7,1.52,1.94,2.19s2.48,1.34,2.48,3A.9.9,0,0,1,177.53,59Z"/><path class="cls-2" d="M173.1,42.38"/><path class="cls-2" d="M177.53,48.53a.9.9,0,0,1-.9-.9c0-.58-.45-.87-1.54-1.46s-2.89-1.56-2.89-3.79a.91.91,0,0,1,1.81,0c0,1.1.73,1.55,1.94,2.2s2.48,1.34,2.48,3.05A.9.9,0,0,1,177.53,48.53Z"/><path class="cls-2" d="M64.89,72.54a.9.9,0,0,1-.91-.9c0-2.23,1.67-3.13,2.89-3.78s1.54-.89,1.54-1.47a.9.9,0,0,1,1.8,0c0,1.71-1.38,2.46-2.48,3s-1.94,1.1-1.94,2.2A.9.9,0,0,1,64.89,72.54Z"/><path class="cls-2" d="M64.89,62.05a.91.91,0,0,1-.91-.9c0-2.23,1.67-3.13,2.89-3.79s1.54-.88,1.54-1.46a.9.9,0,0,1,1.8,0c0,1.71-1.38,2.45-2.48,3.05s-1.94,1.1-1.94,2.2A.91.91,0,0,1,64.89,62.05Z"/><path class="cls-2" d="M69.31,67.3a.9.9,0,0,1-.9-.91c0-.57-.45-.87-1.54-1.46S64,63.37,64,61.15a.91.91,0,1,1,1.81,0c0,1.09.73,1.54,1.94,2.19s2.48,1.34,2.48,3A.9.9,0,0,1,69.31,67.3Z"/><path class="cls-2" d="M64.89,50.65"/><path class="cls-2" d="M69.31,56.8a.9.9,0,0,1-.9-.9c0-.58-.45-.87-1.54-1.46S64,52.88,64,50.65a.91.91,0,0,1,1.81,0c0,1.1.73,1.55,1.94,2.2s2.48,1.34,2.48,3A.9.9,0,0,1,69.31,56.8Z"/><path class="cls-2" d="M147.14,29.17H134.19a.9.9,0,1,1,0-1.8h12.95a.9.9,0,1,1,0,1.8Z"/><path class="cls-2" d="M71.47,95.33H58.52a.9.9,0,1,1,0-1.8H71.47a.9.9,0,1,1,0,1.8Z"/><path class="cls-2" d="M91.77,70.32a.89.89,0,0,1-.64-.27.9.9,0,0,1,0-1.27l9.15-9.16a.91.91,0,0,1,1.28,1.28L92.4,70.05A.86.86,0,0,1,91.77,70.32Z"/><path class="cls-2" d="M192.67,5.36A.88.88,0,0,1,192,5.1a.91.91,0,0,1,0-1.28l9.15-9.15a.91.91,0,0,1,1.28,0,.9.9,0,0,1,0,1.27L193.3,5.1A.85.85,0,0,1,192.67,5.36Z"/><path class="cls-2" d="M125.27,59.69h0a3.17,3.17,0,1,0-4.37-1,3.12,3.12,0,0,0,2,1.4,2.87,2.87,0,0,0,.71.08A3.15,3.15,0,0,0,125.27,59.69Zm-.48-.77Zm-.91-3.24a1.33,1.33,0,0,1,.85.61,1.31,1.31,0,0,1,.18,1,1.36,1.36,0,0,1-2.48.42,1.36,1.36,0,0,1,1.15-2.08A1.53,1.53,0,0,1,123.88,55.68Z"/><path class="cls-2" d="M25.9,16.59h0a3.17,3.17,0,0,0-3.37-5.36,3.17,3.17,0,0,0,1,5.77,3.51,3.51,0,0,0,.71.08A3.16,3.16,0,0,0,25.9,16.59Zm-.48-.76Zm-.9-3.24a1.37,1.37,0,0,1,.85.6,1.35,1.35,0,0,1,.17,1,1.32,1.32,0,0,1-.6.85,1.38,1.38,0,0,1-1,.18,1.33,1.33,0,0,1-.84-.61,1.36,1.36,0,0,1,.42-1.87,1.34,1.34,0,0,1,.72-.21A1.1,1.1,0,0,1,24.52,12.59Z"/><path class="cls-2" d="M205.5,24.86h0a3.18,3.18,0,1,0-1.68.48A3.16,3.16,0,0,0,205.5,24.86Zm-.48-.77ZM205,21.46a1.31,1.31,0,0,1,.18,1,1.36,1.36,0,1,1-1.33-1.66A1.37,1.37,0,0,1,205,21.46Z"/></pattern></defs><title>Asset 8</title><g id="Layer_2" data-name="Layer 2"><g id="Capa_1" data-name="Capa 1"><rect id="_Rectangle_" data-name="&lt;Rectangle&gt;" class="cls-3" width="320" height="480.15"/><rect id="_Rectangle_2" data-name="&lt;Rectangle&gt;" class="cls-4" y="0.51" width="320" height="480.15"/></g></g></svg>