<svg id="Capa_1" data-name="Capa 1" xmlns="http://www.w3.org/2000/svg" viewBox="0 0 320.26 864.14"><defs><style>.cls-1{fill:#e1b536;}</style></defs><title>bg_amarilloR</title><g id="_Grupo_" data-name="&lt;Grupo&gt;"><path class="cls-1" d="M320.26,817.37v42.8a4.15,4.15,0,0,0-.79-.08,4.92,4.92,0,0,0-4.8,4.7h-3.34a4.81,4.81,0,0,0-9.61,0h-3.34a4.81,4.81,0,0,0-9.61,0h-3.34a4.81,4.81,0,0,0-9.61,0h-3.34a4.81,4.81,0,0,0-9.61,0h-3.34a4.8,4.8,0,0,0-9.6,0h-3.35a4.81,4.81,0,0,0-9.61,0h-3.34a4.8,4.8,0,0,0-9.6,0h-3.34a4.81,4.81,0,0,0-9.61,0h-3.74a4.8,4.8,0,0,0-9.6,0h-3.35a4.8,4.8,0,0,0-9.6,0h-3.35a4.8,4.8,0,0,0-9.6,0H168.5a4.81,4.81,0,0,0-9.61,0h-3.35a4.8,4.8,0,0,0-9.6,0H142.6a4.81,4.81,0,0,0-9.61,0h-3.34a4.81,4.81,0,0,0-9.61,0H116.7a4.8,4.8,0,0,0-9.6,0h-3.35a4.81,4.81,0,0,0-9.61,0H90.8a4.8,4.8,0,0,0-9.6,0H77.85a4.8,4.8,0,0,0-9.6,0H64.91a4.81,4.81,0,0,0-9.61,0H52a4.8,4.8,0,0,0-9.6,0H39a4.81,4.81,0,0,0-9.61,0H26.06a4.92,4.92,0,0,0-4.8-4.7,4.92,4.92,0,0,0-4.81,4.7H13.11a4.92,4.92,0,0,0-4.81-4.7,4.92,4.92,0,0,0-4.8,4.7H0V817.37Z" transform="translate(0 -0.66)"/></g><rect id="_Rectángulo_" data-name="&lt;Rectángulo&gt;" class="cls-1" width="320" height="840.42"/></svg>