<svg xmlns="http://www.w3.org/2000/svg" viewBox="0 0 87.8 29.34"><defs><style>.cls-1{fill:#ecbd2f;}.cls-2{fill:#fff;}</style></defs><title>Recurso 9</title><g id="Capa_2" data-name="Capa 2"><g id="Capa_1-2" data-name="Capa 1"><g id="_Grupo_" data-name="&lt;Grupo&gt;"><path id="_Trazado_" data-name="&lt;Trazado&gt;" class="cls-1" d="M84.74,23.87,44.16,29.34a2.65,2.65,0,0,0-3-2.27l-.37-2.74a2.69,2.69,0,0,0,2.27-3,2.66,2.66,0,0,0-3-2.27l-.34-2.56a2.66,2.66,0,0,0-.71-5.27l-.37-2.74a2.64,2.64,0,0,0,2.26-3L81.52,0a3.54,3.54,0,0,1,4,3L87.77,19.9A3.54,3.54,0,0,1,84.74,23.87Z"/><g id="_Grupo_2" data-name="&lt;Grupo&gt;"><rect id="_Trazado_2" data-name="&lt;Trazado&gt;" class="cls-2" x="58.1" y="12.53" width="3.74" height="10.5" transform="translate(-1.84 8.17) rotate(-7.68)"/><path id="_Trazado_compuesto_" data-name="&lt;Trazado compuesto&gt;" class="cls-2" d="M55.19,14.51,51.93,15l.54,4c.17,1.28.45,2.2,2.05,2A2.69,2.69,0,0,0,56,20.4l.41,3.08a7.48,7.48,0,0,1-2.54.72c-2.47.34-4.51-.42-4.87-3l-.77-5.71-2.37.32-.4-3,2.37-.32-.48-3.56,3.71-.5L51.53,12l3.26-.44Z"/><polygon id="_Trazado_3" data-name="&lt;Trazado&gt;" class="cls-2" points="65.52 15.61 71.3 21.55 66.63 22.18 61.76 16.65 61.71 16.65 61.55 15.47 67.23 6.54 71.78 5.92 65.52 15.61"/><path id="_Trazado_compuesto_2" data-name="&lt;Trazado compuesto&gt;" class="cls-2" d="M82.3,14c-.52-3.83-3-6-6.48-5.54-3.71.5-6.35,3.37-5.83,7.2s3.82,5.91,7.52,5.41A6.58,6.58,0,0,0,82.26,18l-2.85-1.55A3.2,3.2,0,0,1,77,18.22a2.78,2.78,0,0,1-3.1-1.95l8.6-1.16Zm-8.78-.2a2.49,2.49,0,0,1,2.31-2.62,2.24,2.24,0,0,1,2.58,2Z"/><rect id="_Rect치ngulo_" data-name="&lt;Rect치ngulo&gt;" class="cls-2" x="56.92" y="7.4" width="3.74" height="3.29" transform="translate(-0.68 7.94) rotate(-7.68)"/></g><g id="_Grupo_3" data-name="&lt;Grupo&gt;"><rect id="_Trazado_4" data-name="&lt;Trazado&gt;" class="cls-2" x="11.86" y="13.94" width="3.74" height="10.5"/><path id="_Trazado_compuesto_3" data-name="&lt;Trazado compuesto&gt;" class="cls-2" d="M9.43,15.31H6.13v4c0,1.3.15,2.25,1.78,2.25a2.71,2.71,0,0,0,1.52-.35v3.12a7.77,7.77,0,0,1-2.62.37c-2.5,0-4.42-1-4.42-3.67V15.31H0v-3H2.39V8.73H6.13v3.59h3.3Z"/><polygon id="_Trazado_5" data-name="&lt;Trazado&gt;" class="cls-2" points="19.51 17.78 24.45 24.44 19.74 24.44 15.64 18.31 15.6 18.31 15.6 17.11 22.42 9.02 27.01 9.02 19.51 17.78"/><path id="_Trazado_compuesto_4" data-name="&lt;Trazado compuesto&gt;" class="cls-2" d="M36.36,18.38c0-3.87-2.19-6.36-5.68-6.36C26.94,12,24,14.51,24,18.38s3,6.36,6.73,6.36a6.59,6.59,0,0,0,5.11-2.39l-2.62-1.92A3.2,3.2,0,0,1,30.5,21.9a2.8,2.8,0,0,1-2.81-2.35h8.67ZM27.69,17a2.5,2.5,0,0,1,2.64-2.3A2.24,2.24,0,0,1,32.62,17Z"/><rect id="_Rect치ngulo_2" data-name="&lt;Rect치ngulo&gt;" class="cls-2" x="11.86" y="8.73" width="3.74" height="3.29"/></g></g></g></g></svg>