<svg xmlns="http://www.w3.org/2000/svg" viewBox="0 0 429.13 143.4"><defs><style>.cls-1{fill:#ecbd2f;}.cls-2{fill:#fff;}</style></defs><title>1Recurso 5</title><g id="Capa_2" data-name="Capa 2"><g id="Capa_1-2" data-name="Capa 1"><g id="_Grupo_" data-name="&lt;Grupo&gt;"><path id="_Trazado_" data-name="&lt;Trazado&gt;" class="cls-1" d="M414.17,116.66,215.83,143.4a12.93,12.93,0,0,0-14.54-11.09l-1.81-13.41a13.06,13.06,0,0,0,11.07-14.69A12.92,12.92,0,0,0,196,93.13l-1.69-12.52a13,13,0,0,0-3.47-25.77L189,41.43a12.92,12.92,0,0,0,11.08-14.54L398.47.16A17.26,17.26,0,0,1,417.88,15L429,97.25A17.26,17.26,0,0,1,414.17,116.66Z"/><g id="_Grupo_2" data-name="&lt;Grupo&gt;"><rect id="_Trazado_2" data-name="&lt;Trazado&gt;" class="cls-2" x="283.98" y="61.24" width="18.28" height="51.33" transform="translate(-8.98 39.94) rotate(-7.68)"/><path id="_Trazado_compuesto_" data-name="&lt;Trazado compuesto&gt;" class="cls-2" d="M269.77,70.94l-15.95,2.15,2.64,19.56c.85,6.29,2.19,10.78,10,9.72,1.93-.26,5.77-1,7.14-2.68l2,15.1a38,38,0,0,1-12.44,3.52c-12.08,1.62-22.05-2.07-23.78-14.88l-3.76-27.9-11.59,1.56-2-14.49L233.75,61,231.4,43.64l18.12-2.44,2.35,17.39,15.94-2.15Z"/><polygon id="_Trazado_3" data-name="&lt;Trazado&gt;" class="cls-2" points="320.23 76.3 348.5 105.34 325.67 108.42 301.85 81.37 301.61 81.4 300.83 75.6 328.6 31.95 350.83 28.96 320.23 76.3"/><path id="_Trazado_compuesto_2" data-name="&lt;Trazado compuesto&gt;" class="cls-2" d="M402.25,68.2c-2.52-18.73-14.77-29.37-31.69-27.09-18.12,2.44-31,16.47-28.46,35.2s18.65,28.85,36.77,26.41c9.42-1.27,18.39-6.79,23.19-14.93l-13.93-7.6c-2.47,4.52-6.05,8.08-12,8.87-7,1-12.81-2.82-15.19-9.52l42-5.66Zm-42.93-1c-.28-5.74,3.34-11.76,11.31-12.83A11,11,0,0,1,383.24,64Z"/><rect id="_Rect치ngulo_" data-name="&lt;Rect치ngulo&gt;" class="cls-2" x="278.23" y="36.17" width="18.28" height="16.09" transform="translate(-3.33 38.79) rotate(-7.68)"/></g><g id="_Grupo_3" data-name="&lt;Grupo&gt;"><rect id="_Trazado_4" data-name="&lt;Trazado&gt;" class="cls-2" x="57.95" y="68.13" width="18.28" height="51.33"/><path id="_Trazado_compuesto_3" data-name="&lt;Trazado compuesto&gt;" class="cls-2" d="M46.07,74.85H30V94.59c0,6.34.74,11,8.66,11,2,0,5.85-.24,7.43-1.7v15.23a37.65,37.65,0,0,1-12.79,1.83c-12.19,0-21.58-5-21.58-17.92V74.85H0V60.22H11.7V42.67H30V60.22H46.07Z"/><polygon id="_Trazado_5" data-name="&lt;Trazado&gt;" class="cls-2" points="95.36 86.91 119.5 119.46 96.47 119.46 76.47 89.47 76.23 89.47 76.23 83.62 109.59 44.07 132.02 44.07 95.36 86.91"/><path id="_Trazado_compuesto_4" data-name="&lt;Trazado compuesto&gt;" class="cls-2" d="M177.74,89.83c0-18.89-10.72-31.07-27.79-31.07C131.66,58.76,117,70.94,117,89.83s14.62,31.09,32.91,31.09c9.51,0,19.13-4.27,25-11.7l-12.79-9.39c-3.06,4.15-7.07,7.2-13,7.2-7.08,0-12.32-4.51-13.78-11.47h42.42Zm-42.42-6.7c.49-5.73,4.88-11.21,12.93-11.21a11,11,0,0,1,11.21,11.21Z"/><rect id="_Rect치ngulo_2" data-name="&lt;Rect치ngulo&gt;" class="cls-2" x="57.95" y="42.67" width="18.28" height="16.09"/></g></g></g></g></svg>