<svg id="Capa_1" data-name="Capa 1" xmlns="http://www.w3.org/2000/svg" xmlns:xlink="http://www.w3.org/1999/xlink" viewBox="0 0 1366.764 609.185"><defs><style>.cls-1{fill:none;}.cls-2{fill:#83629b;}.cls-3{fill:#e1b536;}.cls-4{fill:url(#radial-gradient);}.cls-5{opacity:0.38;fill:url(#New_Pattern);}</style><radialGradient id="radial-gradient" cx="683" cy="298.926" r="527.184" gradientUnits="userSpaceOnUse"><stop offset="0" stop-color="#593670"/><stop offset="1" stop-color="#462956"/></radialGradient><pattern id="New_Pattern" data-name="New Pattern" width="434.063" height="422.404" patternTransform="translate(0 -80)" patternUnits="userSpaceOnUse" viewBox="0 0 434.063 422.404"><rect class="cls-1" width="434.063" height="422.404"/><path class="cls-2" d="M294.436,363.172a.9.9,0,0,1-.617-.245l-5.506-5.163a.9.9,0,1,1,1.235-1.316l5.5,5.163a.9.9,0,0,1-.617,1.561Z"/><path class="cls-2" d="M289.1,363.344a.9.9,0,0,1-.658-1.52l5.164-5.5a.9.9,0,0,1,1.316,1.234l-5.164,5.506A.9.9,0,0,1,289.1,363.344Z"/><path class="cls-2" d="M231.366,355.636a.9.9,0,0,1-.618-.244l-5.5-5.164a.9.9,0,1,1,1.235-1.316l5.5,5.164a.9.9,0,0,1-.617,1.56Z"/><path class="cls-2" d="M226.03,355.808a.9.9,0,0,1-.658-1.52l5.165-5.5a.9.9,0,1,1,1.316,1.235l-5.164,5.505A.9.9,0,0,1,226.03,355.808Z"/><path class="cls-2" d="M427.161,363.037a.9.9,0,0,1-.617-.245l-5.506-5.163a.9.9,0,0,1,1.235-1.316l5.506,5.163a.9.9,0,0,1-.618,1.561Z"/><path class="cls-2" d="M421.825,363.209a.9.9,0,0,1-.658-1.52l5.165-5.5a.9.9,0,0,1,1.316,1.234l-5.164,5.506A.9.9,0,0,1,421.825,363.209Z"/><path class="cls-2" d="M362.209,391.122a.9.9,0,0,1-.617-.245l-5.506-5.163a.9.9,0,0,1,1.235-1.316l5.506,5.163a.9.9,0,0,1-.618,1.561Z"/><path class="cls-2" d="M356.874,391.294a.9.9,0,0,1-.658-1.52l5.164-5.506A.9.9,0,0,1,362.7,385.5l-5.164,5.506A.9.9,0,0,1,356.874,391.294Z"/><path class="cls-2" d="M324,378l15.142-.01a.9.9,0,0,0,.781-1.354l-7.581-13.111a.9.9,0,0,0-.781-.45h0a.9.9,0,0,0-.781.451l-7.561,13.121A.9.9,0,0,0,324,378Zm10.57-7.015h0l3.008,5.2-12.016.008,6-10.412Z"/><path class="cls-2" d="M389.521,433.135a.9.9,0,0,0,.637-.639l3.91-14.631a.9.9,0,0,0-1.106-1.105l-14.624,3.931a.9.9,0,0,0-.4,1.51l10.714,10.7a.9.9,0,0,0,.872.233Zm2.4-14.226-1.552,5.806h0l-1.551,5.805-8.5-8.492Z"/><path class="cls-2" d="M265.014,348.2a.9.9,0,0,0,.638-.638l1.954-7.315h0l1.955-7.316a.9.9,0,0,0-1.106-1.105l-14.623,3.931a.9.9,0,0,0-.4,1.51l10.714,10.7a.9.9,0,0,0,.638.264A.89.89,0,0,0,265.014,348.2Zm2.4-14.225-1.551,5.806h0l-1.55,5.8-8.5-8.49Z"/><path class="cls-2" d="M392.809,352.76l13.111-7.581a.9.9,0,0,0,0-1.563l-13.12-7.561a.9.9,0,0,0-1.353.782l.01,15.142a.9.9,0,0,0,1.354.781Zm10.854-8.361-5.2,3.008h0l-5.2,3.008-.008-12.016Z"/><path class="cls-2" d="M255.28,428.4l6.554-3.791h0l6.556-3.791a.9.9,0,0,0,0-1.563l-13.12-7.561a.9.9,0,0,0-1.353.783l.01,15.142a.9.9,0,0,0,1.355.781Zm10.852-8.361-5.2,3.008h0l-5.2,3.008-.009-12.016Z"/><path class="cls-2" d="M349.045,411.432a6.647,6.647,0,1,0-6.646,6.647A6.653,6.653,0,0,0,349.045,411.432Zm-1.805,0a4.842,4.842,0,1,1-4.841-4.841A4.846,4.846,0,0,1,347.24,411.432Z"/><path class="cls-2" d="M320.022,347.331a6.647,6.647,0,1,0-6.646,6.646A6.654,6.654,0,0,0,320.022,347.331Zm-1.805,0a4.842,4.842,0,1,1-4.841-4.842A4.847,4.847,0,0,1,318.217,347.331Z"/><path class="cls-2" d="M303.79,420.951a.9.9,0,0,1-.9-.9,4.842,4.842,0,0,0-9.684,0,.9.9,0,1,1-1.8,0,6.647,6.647,0,0,1,13.293,0A.9.9,0,0,1,303.79,420.951Z"/><path class="cls-2" d="M243.306,374.313a.9.9,0,0,1-.9-.9,4.816,4.816,0,1,0-9.632,0,.9.9,0,1,1-1.8,0,6.621,6.621,0,1,1,13.242,0A.9.9,0,0,1,243.306,374.313Z"/><path class="cls-2" d="M376.66,383.719a6.621,6.621,0,1,1,0-13.241.9.9,0,0,1,0,1.805,4.816,4.816,0,1,0,0,9.631.9.9,0,0,1,0,1.805Z"/><path class="cls-2" d="M299.984,335.053a6.621,6.621,0,1,1,0-13.241.9.9,0,0,1,0,1.8,4.816,4.816,0,1,0,0,9.632.9.9,0,0,1,0,1.805Z"/><path class="cls-2" d="M414.791,382.811V371.385a.9.9,0,0,0-.9-.9H402.462a.9.9,0,0,0-.9.9v11.426a.9.9,0,0,0,.9.9h11.427A.9.9,0,0,0,414.791,382.811Zm-11.426-10.523h9.621v9.621h-9.621Z"/><path class="cls-2" d="M285.6,388.524V377.1a.9.9,0,0,0-.9-.9H273.276a.9.9,0,0,0-.9.9v11.426a.9.9,0,0,0,.9.9H284.7A.9.9,0,0,0,285.6,388.524ZM274.179,378H283.8v9.621h-9.621Z"/><path class="cls-2" d="M367.392,334.145V322.719a.9.9,0,0,0-.9-.9H355.065a.9.9,0,0,0-.9.9v11.426a.9.9,0,0,0,.9.9H366.49A.9.9,0,0,0,367.392,334.145Zm-11.425-10.523h9.621v9.621h-9.621Z"/><path class="cls-2" d="M382.851,403.412c-1.71,0-2.454-1.377-3.051-2.484-.668-1.238-1.1-1.939-2.2-1.939a.9.9,0,1,1,0-1.8c2.226,0,3.127,1.669,3.784,2.887.59,1.092.887,1.537,1.463,1.537a.9.9,0,0,1,0,1.8Z"/><path class="cls-2" d="M393.345,403.412c-1.71,0-2.453-1.377-3.051-2.484-.668-1.238-1.1-1.939-2.2-1.939a.9.9,0,1,1,0-1.8c2.226,0,3.127,1.669,3.785,2.887.589,1.092.886,1.537,1.462,1.537a.9.9,0,0,1,0,1.8Z"/><path class="cls-2" d="M382.851,403.412a.9.9,0,1,1,0-1.8c.575,0,.872-.445,1.462-1.537.658-1.218,1.559-2.887,3.785-2.887a.9.9,0,0,1,0,1.8c-1.094,0-1.548.737-2.2,1.94C385.3,402.035,384.56,403.412,382.851,403.412Z"/><path class="cls-2" d="M398.592,398.087"/><path class="cls-2" d="M393.345,403.412a.9.9,0,1,1,0-1.8c.576,0,.873-.445,1.463-1.537.657-1.218,1.558-2.887,3.785-2.887h0a.9.9,0,0,1,0,1.8h0c-1.1,0-1.528.7-2.2,1.94C395.8,402.035,395.054,403.412,393.345,403.412Z"/><path class="cls-2" d="M236.919,398.067c-1.71,0-2.453-1.377-3.051-2.484-.668-1.239-1.1-1.94-2.2-1.94a.9.9,0,1,1,0-1.8c2.226,0,3.127,1.668,3.785,2.887.589,1.091.886,1.536,1.462,1.536a.9.9,0,0,1,0,1.805Z"/><path class="cls-2" d="M247.413,398.067c-1.71,0-2.453-1.377-3.051-2.484-.668-1.238-1.1-1.939-2.2-1.939a.9.9,0,0,1,0-1.805c2.227,0,3.127,1.669,3.785,2.887.589,1.091.886,1.536,1.462,1.536a.9.9,0,0,1,0,1.805Z"/><path class="cls-2" d="M236.919,398.067a.9.9,0,1,1,0-1.805c.575,0,.873-.445,1.462-1.536.658-1.218,1.559-2.887,3.785-2.887a.9.9,0,1,1,0,1.805c-1.094,0-1.548.737-2.2,1.939C239.372,396.69,238.628,398.067,236.919,398.067Z"/><path class="cls-2" d="M252.66,392.741"/><path class="cls-2" d="M247.413,398.067a.9.9,0,1,1,0-1.805c.575,0,.872-.445,1.462-1.536.657-1.218,1.558-2.887,3.785-2.887h0a.9.9,0,0,1,0,1.805h0c-1.1,0-1.528.7-2.2,1.939C249.866,396.69,249.122,398.067,247.413,398.067Z"/><path class="cls-2" d="M335.092,344.1a.9.9,0,0,1-.9-.9c0-2.227,1.669-3.127,2.887-3.785,1.092-.589,1.536-.887,1.536-1.462a.9.9,0,1,1,1.8,0c0,1.71-1.377,2.453-2.483,3.05-1.239.669-1.94,1.1-1.94,2.2A.9.9,0,0,1,335.092,344.1Z"/><path class="cls-2" d="M335.092,333.6a.9.9,0,0,1-.9-.9c0-2.226,1.669-3.127,2.887-3.784,1.092-.589,1.536-.887,1.536-1.462a.9.9,0,1,1,1.8,0c0,1.709-1.377,2.453-2.484,3.05-1.238.669-1.939,1.1-1.939,2.2A.9.9,0,0,1,335.092,333.6Z"/><path class="cls-2" d="M339.515,338.849a.9.9,0,0,1-.9-.9c0-.576-.444-.873-1.536-1.462-1.218-.658-2.887-1.559-2.887-3.786a.9.9,0,0,1,1.805,0c0,1.095.737,1.548,1.94,2.2,1.106.6,2.483,1.341,2.483,3.051A.9.9,0,0,1,339.515,338.849Z"/><path class="cls-2" d="M335.092,322.206"/><path class="cls-2" d="M339.515,328.355a.9.9,0,0,1-.9-.9c0-.576-.444-.873-1.536-1.462-1.218-.658-2.887-1.559-2.887-3.785a.9.9,0,1,1,1.805,0c0,1.094.737,1.548,1.94,2.2,1.106.6,2.483,1.34,2.483,3.05A.9.9,0,0,1,339.515,328.355Z"/><path class="cls-2" d="M302.915,398.989a.9.9,0,0,1-.9-.9c0-2.226,1.668-3.127,2.887-3.785,1.091-.589,1.536-.886,1.536-1.462a.9.9,0,0,1,1.805,0c0,1.71-1.377,2.453-2.484,3.051-1.239.668-1.939,1.1-1.939,2.2A.9.9,0,0,1,302.915,398.989Z"/><path class="cls-2" d="M302.915,388.494a.9.9,0,0,1-.9-.9c0-2.226,1.668-3.127,2.887-3.785,1.091-.589,1.536-.886,1.536-1.462a.9.9,0,0,1,1.805,0c0,1.71-1.377,2.453-2.484,3.051-1.239.668-1.939,1.1-1.939,2.2A.9.9,0,0,1,302.915,388.494Z"/><path class="cls-2" d="M307.338,393.742a.9.9,0,0,1-.9-.9c0-.575-.445-.873-1.536-1.462-1.219-.658-2.887-1.558-2.887-3.785a.9.9,0,0,1,1.805,0c0,1.094.737,1.548,1.939,2.2,1.107.6,2.484,1.341,2.484,3.05A.9.9,0,0,1,307.338,393.742Z"/><path class="cls-2" d="M302.915,377.1"/><path class="cls-2" d="M307.338,383.248a.9.9,0,0,1-.9-.9c0-.575-.445-.872-1.536-1.462-1.218-.657-2.887-1.558-2.887-3.785a.9.9,0,0,1,1.805,0c0,1.095.737,1.548,1.939,2.2,1.107.6,2.484,1.341,2.484,3.05A.9.9,0,0,1,307.338,383.248Z"/><path class="cls-2" d="M236.882,414.162H223.934a.9.9,0,0,1,0-1.8h12.948a.9.9,0,0,1,0,1.8Z"/><path class="cls-2" d="M365.136,353.977H352.188a.9.9,0,1,1,0-1.8h12.948a.9.9,0,0,1,0,1.8Z"/><path class="cls-2" d="M416.172,324.757H403.225a.9.9,0,1,1,0-1.805h12.947a.9.9,0,1,1,0,1.805Z"/><path class="cls-2" d="M233.011,333.912a.9.9,0,0,1-.639-1.54l9.156-9.155a.9.9,0,0,1,1.276,1.276l-9.155,9.155A.9.9,0,0,1,233.011,333.912Z"/><path class="cls-2" d="M409.7,427.768a.9.9,0,0,1-.638-1.54l9.155-9.156a.9.9,0,0,1,1.276,1.276l-9.155,9.156A.9.9,0,0,1,409.7,427.768Z"/><path class="cls-2" d="M324.471,419.855h0a3.135,3.135,0,1,0-1.68.488A3.143,3.143,0,0,0,324.472,419.854Zm-.476-.764h0Zm-.908-3.24a1.36,1.36,0,1,1-.305-.034A1.371,1.371,0,0,1,323.087,415.851Z"/><path class="cls-2" d="M266.115,367.781h0a3.15,3.15,0,1,0-1.679.487A3.141,3.141,0,0,0,266.115,367.781Zm-.477-.764h0Zm-.907-3.239a1.348,1.348,0,1,1-.305-.035A1.328,1.328,0,0,1,264.731,363.778Z"/><path class="cls-2" d="M390.567,366.656h0a3.167,3.167,0,1,0-1.681.485A3.148,3.148,0,0,0,390.568,366.656Zm-.477-.764h0Zm-.907-3.24a1.358,1.358,0,1,1-.305-.034A1.371,1.371,0,0,1,389.183,362.652Z"/><path class="cls-2" d="M77.4,363.172a.9.9,0,0,1-.617-.245l-5.506-5.163a.9.9,0,0,1,1.235-1.316l5.506,5.163a.9.9,0,0,1-.618,1.561Z"/><path class="cls-2" d="M72.069,363.344a.9.9,0,0,1-.658-1.52l5.164-5.5a.9.9,0,1,1,1.316,1.234l-5.164,5.506A.9.9,0,0,1,72.069,363.344Z"/><path class="cls-2" d="M14.334,355.636a.9.9,0,0,1-.617-.244l-5.506-5.164a.9.9,0,1,1,1.235-1.316l5.505,5.164a.9.9,0,0,1-.617,1.56Z"/><path class="cls-2" d="M9,355.808a.9.9,0,0,1-.658-1.52l5.164-5.5a.9.9,0,1,1,1.316,1.235l-5.164,5.505A.9.9,0,0,1,9,355.808Z"/><path class="cls-2" d="M210.129,363.037a.9.9,0,0,1-.617-.245l-5.5-5.163a.9.9,0,1,1,1.234-1.316l5.506,5.163a.9.9,0,0,1-.618,1.561Z"/><path class="cls-2" d="M204.794,363.209a.9.9,0,0,1-.658-1.52l5.164-5.5a.9.9,0,1,1,1.316,1.234l-5.164,5.506A.9.9,0,0,1,204.794,363.209Z"/><path class="cls-2" d="M145.177,391.122a.9.9,0,0,1-.617-.245l-5.5-5.163a.9.9,0,1,1,1.234-1.316l5.506,5.163a.9.9,0,0,1-.618,1.561Z"/><path class="cls-2" d="M139.842,391.294a.9.9,0,0,1-.657-1.52l5.164-5.506a.9.9,0,0,1,1.316,1.235l-5.164,5.506A.9.9,0,0,1,139.842,391.294Z"/><path class="cls-2" d="M106.965,378l15.141-.01a.9.9,0,0,0,.781-1.354l-7.581-13.111a.9.9,0,0,0-.781-.45h0a.9.9,0,0,0-.781.451l-7.561,13.121a.9.9,0,0,0,.782,1.353Zm10.57-7.015h0l3.007,5.2-12.015.008,6-10.412Z"/><path class="cls-2" d="M172.489,433.135a.905.905,0,0,0,.638-.639l3.91-14.631a.9.9,0,0,0-1.107-1.105l-14.623,3.931a.9.9,0,0,0-.4,1.51l10.714,10.7a.9.9,0,0,0,.638.264A.89.89,0,0,0,172.489,433.135Zm2.4-14.226-1.552,5.806h0l-1.55,5.805-8.5-8.492Z"/><path class="cls-2" d="M47.982,348.2a.9.9,0,0,0,.638-.638l1.955-7.315h0l1.956-7.316a.9.9,0,0,0-1.106-1.105L36.8,335.759a.9.9,0,0,0-.4,1.51l10.714,10.7a.9.9,0,0,0,.638.264A.89.89,0,0,0,47.982,348.2Zm2.4-14.225-1.551,5.806h0l-1.551,5.8-8.5-8.49Z"/><path class="cls-2" d="M175.778,352.76l13.11-7.581a.9.9,0,0,0,0-1.563l-13.12-7.561a.9.9,0,0,0-1.353.782l.009,15.142a.9.9,0,0,0,1.355.781Zm10.853-8.361-5.2,3.008h0l-5.2,3.008L176.22,338.4Z"/><path class="cls-2" d="M38.248,428.4,44.8,424.61h0l6.556-3.791a.9.9,0,0,0,0-1.563L38.237,411.7a.9.9,0,0,0-1.354.783l.011,15.142a.9.9,0,0,0,1.354.781ZM49.1,420.04l-5.2,3.008h0l-5.2,3.008L38.69,414.04Z"/><path class="cls-2" d="M132.014,411.432a6.647,6.647,0,1,0-6.647,6.647A6.654,6.654,0,0,0,132.014,411.432Zm-1.805,0a4.842,4.842,0,1,1-4.842-4.841A4.847,4.847,0,0,1,130.209,411.432Z"/><path class="cls-2" d="M102.991,347.331a6.647,6.647,0,1,0-6.647,6.646A6.655,6.655,0,0,0,102.991,347.331Zm-1.8,0a4.842,4.842,0,1,1-4.842-4.842A4.847,4.847,0,0,1,101.186,347.331Z"/><path class="cls-2" d="M86.759,420.951a.9.9,0,0,1-.9-.9,4.842,4.842,0,0,0-9.683,0,.9.9,0,1,1-1.805,0,6.647,6.647,0,0,1,13.293,0A.9.9,0,0,1,86.759,420.951Z"/><path class="cls-2" d="M26.274,374.313a.9.9,0,0,1-.9-.9,4.816,4.816,0,1,0-9.631,0,.9.9,0,1,1-1.8,0,6.621,6.621,0,1,1,13.241,0A.9.9,0,0,1,26.274,374.313Z"/><path class="cls-2" d="M159.628,383.719a6.621,6.621,0,1,1,0-13.241.9.9,0,0,1,0,1.805,4.816,4.816,0,1,0,0,9.631.9.9,0,0,1,0,1.805Z"/><path class="cls-2" d="M82.952,335.053a6.621,6.621,0,1,1,0-13.241.9.9,0,1,1,0,1.8,4.816,4.816,0,1,0,0,9.632.9.9,0,1,1,0,1.805Z"/><path class="cls-2" d="M197.759,382.811V371.385a.9.9,0,0,0-.9-.9H185.431a.9.9,0,0,0-.9.9v11.426a.9.9,0,0,0,.9.9h11.426A.9.9,0,0,0,197.759,382.811Zm-11.426-10.523h9.621v9.621h-9.621Z"/><path class="cls-2" d="M68.573,388.524V377.1a.9.9,0,0,0-.9-.9H56.244a.9.9,0,0,0-.9.9v11.426a.9.9,0,0,0,.9.9H67.67A.9.9,0,0,0,68.573,388.524ZM57.147,378h9.621v9.621H57.147Z"/><path class="cls-2" d="M150.361,334.145V322.719a.9.9,0,0,0-.9-.9H138.033a.9.9,0,0,0-.9.9v11.426a.9.9,0,0,0,.9.9h11.425A.9.9,0,0,0,150.361,334.145Zm-11.426-10.523h9.621v9.621h-9.621Z"/><path class="cls-2" d="M165.819,403.412c-1.71,0-2.453-1.377-3.051-2.484-.668-1.238-1.1-1.939-2.2-1.939a.9.9,0,0,1,0-1.8c2.227,0,3.127,1.669,3.785,2.887.589,1.092.886,1.537,1.462,1.537a.9.9,0,1,1,0,1.8Z"/><path class="cls-2" d="M176.313,403.412c-1.71,0-2.453-1.377-3.051-2.484-.668-1.238-1.1-1.939-2.2-1.939a.9.9,0,0,1,0-1.8c2.227,0,3.127,1.669,3.785,2.887.589,1.092.886,1.537,1.462,1.537a.9.9,0,1,1,0,1.8Z"/><path class="cls-2" d="M165.819,403.412a.9.9,0,1,1,0-1.8c.575,0,.873-.445,1.462-1.537.658-1.218,1.559-2.887,3.785-2.887a.9.9,0,1,1,0,1.8c-1.094,0-1.547.737-2.2,1.94C168.272,402.035,167.528,403.412,165.819,403.412Z"/><path class="cls-2" d="M181.56,398.087"/><path class="cls-2" d="M176.313,403.412a.9.9,0,1,1,0-1.8c.575,0,.873-.445,1.462-1.537.657-1.218,1.558-2.887,3.785-2.887h0a.9.9,0,1,1,0,1.8h0c-1.1,0-1.528.7-2.2,1.94C178.766,402.035,178.023,403.412,176.313,403.412Z"/><path class="cls-2" d="M19.887,398.067c-1.71,0-2.453-1.377-3.05-2.484-.669-1.239-1.1-1.94-2.2-1.94a.9.9,0,0,1,0-1.8c2.227,0,3.127,1.668,3.785,2.887.589,1.091.886,1.536,1.462,1.536a.9.9,0,0,1,0,1.805Z"/><path class="cls-2" d="M30.381,398.067c-1.71,0-2.453-1.377-3.05-2.484-.669-1.238-1.1-1.939-2.2-1.939a.9.9,0,0,1,0-1.805c2.227,0,3.127,1.669,3.785,2.887.589,1.091.886,1.536,1.462,1.536a.9.9,0,1,1,0,1.805Z"/><path class="cls-2" d="M19.887,398.067a.9.9,0,0,1,0-1.805c.576,0,.873-.445,1.462-1.536.658-1.218,1.559-2.887,3.785-2.887a.9.9,0,1,1,0,1.805c-1.094,0-1.547.737-2.2,1.939C22.34,396.69,21.6,398.067,19.887,398.067Z"/><path class="cls-2" d="M35.628,392.741"/><path class="cls-2" d="M30.381,398.067a.9.9,0,0,1,0-1.805c.576,0,.873-.445,1.462-1.536.658-1.218,1.559-2.887,3.785-2.887h0a.9.9,0,1,1,0,1.805h0c-1.1,0-1.528.7-2.2,1.939C32.834,396.69,32.091,398.067,30.381,398.067Z"/><path class="cls-2" d="M118.06,344.1a.9.9,0,0,1-.9-.9c0-2.227,1.668-3.127,2.887-3.785,1.091-.589,1.536-.887,1.536-1.462a.9.9,0,1,1,1.8,0c0,1.71-1.378,2.453-2.484,3.05-1.239.669-1.94,1.1-1.94,2.2A.9.9,0,0,1,118.06,344.1Z"/><path class="cls-2" d="M118.06,333.6a.9.9,0,0,1-.9-.9c0-2.226,1.668-3.127,2.887-3.784,1.091-.589,1.536-.887,1.536-1.462a.9.9,0,1,1,1.8,0c0,1.709-1.378,2.453-2.484,3.05-1.239.669-1.94,1.1-1.94,2.2A.9.9,0,0,1,118.06,333.6Z"/><path class="cls-2" d="M122.483,338.849a.9.9,0,0,1-.9-.9c0-.576-.445-.873-1.536-1.462-1.219-.658-2.887-1.559-2.887-3.786a.9.9,0,0,1,1.8,0c0,1.095.737,1.548,1.94,2.2,1.107.6,2.484,1.341,2.484,3.051A.9.9,0,0,1,122.483,338.849Z"/><path class="cls-2" d="M118.06,322.206"/><path class="cls-2" d="M122.483,328.355a.9.9,0,0,1-.9-.9c0-.576-.445-.873-1.536-1.462-1.219-.658-2.887-1.559-2.887-3.785a.9.9,0,1,1,1.8,0c0,1.094.737,1.548,1.94,2.2,1.107.6,2.484,1.34,2.484,3.05A.9.9,0,0,1,122.483,328.355Z"/><path class="cls-2" d="M85.883,398.989a.9.9,0,0,1-.9-.9c0-2.226,1.669-3.127,2.887-3.785,1.092-.589,1.536-.886,1.536-1.462a.9.9,0,0,1,1.805,0c0,1.71-1.377,2.453-2.484,3.051-1.238.668-1.939,1.1-1.939,2.2A.9.9,0,0,1,85.883,398.989Z"/><path class="cls-2" d="M85.883,388.494a.9.9,0,0,1-.9-.9c0-2.226,1.669-3.127,2.887-3.785,1.092-.589,1.536-.886,1.536-1.462a.9.9,0,0,1,1.805,0c0,1.71-1.377,2.453-2.484,3.051-1.238.668-1.939,1.1-1.939,2.2A.9.9,0,0,1,85.883,388.494Z"/><path class="cls-2" d="M90.307,393.742a.9.9,0,0,1-.9-.9c0-.575-.444-.873-1.536-1.462-1.218-.658-2.887-1.558-2.887-3.785a.9.9,0,0,1,1.805,0c0,1.094.737,1.548,1.939,2.2,1.107.6,2.484,1.341,2.484,3.05A.9.9,0,0,1,90.307,393.742Z"/><path class="cls-2" d="M85.883,377.1"/><path class="cls-2" d="M90.307,383.248a.9.9,0,0,1-.9-.9c0-.575-.444-.872-1.536-1.462-1.218-.657-2.887-1.558-2.887-3.785a.9.9,0,0,1,1.805,0c0,1.095.737,1.548,1.939,2.2,1.107.6,2.484,1.341,2.484,3.05A.9.9,0,0,1,90.307,383.248Z"/><path class="cls-2" d="M19.85,414.162H6.9a.9.9,0,0,1,0-1.8H19.85a.9.9,0,0,1,0,1.8Z"/><path class="cls-2" d="M148.1,353.977H135.156a.9.9,0,1,1,0-1.8H148.1a.9.9,0,1,1,0,1.8Z"/><path class="cls-2" d="M199.14,324.757H186.193a.9.9,0,1,1,0-1.805H199.14a.9.9,0,1,1,0,1.805Z"/><path class="cls-2" d="M15.979,333.912a.9.9,0,0,1-.638-1.54l9.155-9.155a.9.9,0,0,1,1.276,1.276l-9.155,9.155A.9.9,0,0,1,15.979,333.912Z"/><path class="cls-2" d="M192.666,427.768a.9.9,0,0,1-.638-1.54l9.156-9.156a.9.9,0,0,1,1.276,1.276L193.3,427.5A.9.9,0,0,1,192.666,427.768Z"/><path class="cls-2" d="M107.439,419.855h0a3.135,3.135,0,1,0-1.68.488A3.139,3.139,0,0,0,107.44,419.854Zm-.476-.764h0Zm-.907-3.24a1.362,1.362,0,1,1-.3-.034A1.384,1.384,0,0,1,106.056,415.851Z"/><path class="cls-2" d="M49.083,367.781h0a3.153,3.153,0,1,0-1.68.487A3.148,3.148,0,0,0,49.084,367.781Zm-.477-.764h0Zm-.907-3.239a1.345,1.345,0,1,1-.3-.035A1.316,1.316,0,0,1,47.7,363.778Z"/><path class="cls-2" d="M173.535,366.656h0a3.167,3.167,0,1,0-1.68.485A3.141,3.141,0,0,0,173.536,366.656Zm-.476-.764h0Zm-.908-3.24a1.356,1.356,0,1,1-.305-.034A1.371,1.371,0,0,1,172.151,362.652Z"/><path class="cls-2" d="M402.952,151.97a.9.9,0,0,1-.618-.245l-5.5-5.163a.9.9,0,1,1,1.235-1.316l5.5,5.163a.9.9,0,0,1-.617,1.561Z"/><path class="cls-2" d="M397.617,152.142a.9.9,0,0,1-.658-1.52l5.164-5.506a.9.9,0,0,1,1.316,1.235l-5.164,5.506A.9.9,0,0,1,397.617,152.142Z"/><path class="cls-2" d="M409.277,231.179a.9.9,0,0,1-.618-.245l-5.5-5.163a.9.9,0,1,1,1.235-1.316l5.5,5.163a.9.9,0,0,1-.617,1.561Z"/><path class="cls-2" d="M403.942,231.351a.9.9,0,0,1-.658-1.52l5.164-5.506a.9.9,0,0,1,1.316,1.235l-5.164,5.506A.9.9,0,0,1,403.942,231.351Z"/><path class="cls-2" d="M342.286,275.433a.9.9,0,0,1-.618-.244l-5.5-5.164a.9.9,0,1,1,1.235-1.316l5.5,5.163a.9.9,0,0,1-.617,1.561Z"/><path class="cls-2" d="M336.95,275.605a.9.9,0,0,1-.658-1.52l5.165-5.5a.9.9,0,0,1,1.316,1.234l-5.164,5.506A.9.9,0,0,1,336.95,275.605Z"/><path class="cls-2" d="M339.881,144.434a.9.9,0,0,1-.617-.244l-5.5-5.164a.9.9,0,1,1,1.235-1.316l5.5,5.164a.9.9,0,0,1-.618,1.56Z"/><path class="cls-2" d="M334.546,144.606a.9.9,0,0,1-.658-1.52l5.165-5.505a.9.9,0,1,1,1.316,1.235l-5.164,5.5A.9.9,0,0,1,334.546,144.606Z"/><path class="cls-2" d="M432.512,166.8l15.142-.009a.9.9,0,0,0,.781-1.355l-7.581-13.11a.9.9,0,0,0-.781-.451h0a.9.9,0,0,0-.781.452l-7.561,13.12a.9.9,0,0,0,.782,1.353Zm10.57-7.015h0l3.008,5.2-12.016.008,6-10.411Z"/><path class="cls-2" d="M419.98,246.933l15.142-.01a.9.9,0,0,0,.78-1.354l-7.581-13.11a.9.9,0,0,0-.781-.451h0a.905.905,0,0,0-.781.452L419.2,245.58a.9.9,0,0,0,.782,1.353Zm10.57-7.015h0l3.007,5.2-12.015.008,6-10.411Z"/><path class="cls-2" d="M373.53,137a.9.9,0,0,0,.638-.638l1.954-7.315h0l1.955-7.316a.9.9,0,0,0-1.106-1.1l-14.624,3.931a.9.9,0,0,0-.4,1.51l10.714,10.7a.905.905,0,0,0,.638.264A.89.89,0,0,0,373.53,137Zm2.4-14.225-1.552,5.806h0l-1.55,5.8-8.5-8.491Z"/><path class="cls-2" d="M368.345,295.071a.9.9,0,0,0,.638-.639l3.91-14.631a.9.9,0,0,0-1.106-1.1l-14.624,3.931a.9.9,0,0,0-.4,1.51l10.714,10.7a.905.905,0,0,0,.638.264A.89.89,0,0,0,368.345,295.071Zm2.4-14.225-1.551,5.806h0l-1.551,5.8-8.5-8.491Z"/><path class="cls-2" d="M363.8,217.2l6.554-3.791h0l6.555-3.791a.9.9,0,0,0,0-1.563l-13.12-7.561a.9.9,0,0,0-1.353.783l.01,15.142a.9.9,0,0,0,1.355.781Zm10.852-8.361-5.2,3.008h0l-5.2,3.008-.008-12.016Z"/><path class="cls-2" d="M428.538,136.129a6.647,6.647,0,1,0-6.646,6.646A6.655,6.655,0,0,0,428.538,136.129Zm-1.805,0a4.842,4.842,0,1,1-4.841-4.842A4.847,4.847,0,0,1,426.733,136.129Z"/><path class="cls-2" d="M432.2,305.656a6.647,6.647,0,1,0-6.647,6.647A6.655,6.655,0,0,0,432.2,305.656Zm-1.805,0a4.842,4.842,0,1,1-4.842-4.841A4.847,4.847,0,0,1,430.4,305.656Z"/><path class="cls-2" d="M412.306,209.748a.9.9,0,0,1-.9-.9,4.842,4.842,0,0,0-9.684,0,.9.9,0,0,1-1.805,0,6.647,6.647,0,0,1,13.294,0A.9.9,0,0,1,412.306,209.748Z"/><path class="cls-2" d="M351.822,163.111a.9.9,0,0,1-.9-.9,4.816,4.816,0,1,0-9.632,0,.9.9,0,1,1-1.805,0,6.621,6.621,0,1,1,13.241,0A.9.9,0,0,1,351.822,163.111Z"/><path class="cls-2" d="M346.862,306.533a6.621,6.621,0,1,1,0-13.241.9.9,0,0,1,0,1.805,4.816,4.816,0,1,0,0,9.631.9.9,0,0,1,0,1.805Z"/><path class="cls-2" d="M408.5,123.851a6.621,6.621,0,1,1,0-13.242.9.9,0,0,1,0,1.805,4.816,4.816,0,1,0,0,9.632.9.9,0,0,1,0,1.8Z"/><path class="cls-2" d="M350.636,245.214a6.647,6.647,0,1,0-6.646,6.647A6.653,6.653,0,0,0,350.636,245.214Zm-1.805,0a4.842,4.842,0,1,1-4.841-4.841A4.848,4.848,0,0,1,348.831,245.214Z"/><path class="cls-2" d="M394.12,177.322V165.9a.9.9,0,0,0-.9-.9H381.792a.9.9,0,0,0-.9.9v11.426a.9.9,0,0,0,.9.9h11.426A.9.9,0,0,0,394.12,177.322ZM382.694,166.8h9.621v9.622h-9.621Z"/><path class="cls-2" d="M393.547,250.268V238.842a.9.9,0,0,0-.9-.9H381.219a.9.9,0,0,0-.9.9v11.426a.9.9,0,0,0,.9.9h11.425A.9.9,0,0,0,393.547,250.268Zm-11.426-10.524h9.621v9.622h-9.621Z"/><path class="cls-2" d="M345.435,186.865c-1.71,0-2.453-1.377-3.051-2.484-.668-1.239-1.1-1.94-2.2-1.94a.9.9,0,1,1,0-1.805c2.226,0,3.127,1.669,3.785,2.888.589,1.091.886,1.536,1.462,1.536a.9.9,0,0,1,0,1.805Z"/><path class="cls-2" d="M355.929,186.865c-1.71,0-2.453-1.377-3.051-2.484-.668-1.239-1.1-1.939-2.2-1.939a.9.9,0,0,1,0-1.805c2.226,0,3.127,1.668,3.785,2.887.589,1.091.886,1.536,1.462,1.536a.9.9,0,0,1,0,1.805Z"/><path class="cls-2" d="M345.435,186.865a.9.9,0,1,1,0-1.805c.575,0,.873-.445,1.462-1.536.658-1.219,1.558-2.887,3.785-2.887a.9.9,0,0,1,0,1.805c-1.094,0-1.548.737-2.2,1.939C347.888,185.488,347.144,186.865,345.435,186.865Z"/><path class="cls-2" d="M361.176,181.539"/><path class="cls-2" d="M355.929,186.865a.9.9,0,1,1,0-1.805c.575,0,.872-.445,1.462-1.536.657-1.219,1.558-2.887,3.784-2.887h0a.9.9,0,0,1,0,1.805h0c-1.1,0-1.528.7-2.2,1.939C358.381,185.488,357.638,186.865,355.929,186.865Z"/><path class="cls-2" d="M411.431,187.787a.9.9,0,0,1-.9-.9c0-2.226,1.668-3.127,2.887-3.785,1.091-.589,1.536-.886,1.536-1.462a.9.9,0,0,1,1.805,0c0,1.71-1.378,2.453-2.484,3.05-1.239.669-1.94,1.1-1.94,2.2A.9.9,0,0,1,411.431,187.787Z"/><path class="cls-2" d="M411.431,177.292a.9.9,0,0,1-.9-.9c0-2.227,1.668-3.127,2.887-3.785,1.091-.589,1.536-.886,1.536-1.462a.9.9,0,0,1,1.805,0c0,1.71-1.378,2.453-2.484,3.05-1.239.669-1.94,1.1-1.94,2.2A.9.9,0,0,1,411.431,177.292Z"/><path class="cls-2" d="M415.854,182.54a.9.9,0,0,1-.9-.9c0-.575-.445-.873-1.536-1.462-1.219-.658-2.887-1.559-2.887-3.785a.9.9,0,1,1,1.8,0c0,1.094.738,1.548,1.94,2.2,1.107.6,2.484,1.341,2.484,3.05A.9.9,0,0,1,415.854,182.54Z"/><path class="cls-2" d="M411.431,165.9"/><path class="cls-2" d="M415.854,172.045a.9.9,0,0,1-.9-.9c0-.575-.445-.873-1.536-1.462-1.219-.658-2.887-1.558-2.887-3.785a.9.9,0,1,1,1.8,0c0,1.094.738,1.548,1.94,2.2,1.107.6,2.484,1.341,2.484,3.05A.9.9,0,0,1,415.854,172.045Z"/><path class="cls-2" d="M390.433,283.745a.9.9,0,0,1-.9-.9c0-2.226,1.669-3.127,2.887-3.784,1.092-.59,1.536-.887,1.536-1.462a.9.9,0,0,1,1.805,0c0,1.71-1.377,2.453-2.483,3.05-1.239.669-1.94,1.1-1.94,2.2A.9.9,0,0,1,390.433,283.745Z"/><path class="cls-2" d="M390.433,273.251a.9.9,0,0,1-.9-.9c0-2.226,1.669-3.127,2.887-3.784,1.092-.59,1.536-.887,1.536-1.462a.9.9,0,1,1,1.805,0c0,1.709-1.377,2.453-2.484,3.05-1.238.668-1.939,1.1-1.939,2.2A.9.9,0,0,1,390.433,273.251Z"/><path class="cls-2" d="M394.856,278.5a.9.9,0,0,1-.9-.9c0-.576-.444-.873-1.536-1.463-1.218-.657-2.887-1.558-2.887-3.785a.9.9,0,0,1,1.805,0c0,1.094.737,1.548,1.94,2.2,1.106.6,2.483,1.341,2.483,3.051A.9.9,0,0,1,394.856,278.5Z"/><path class="cls-2" d="M390.433,261.854"/><path class="cls-2" d="M394.856,268a.9.9,0,0,1-.9-.9c0-.576-.444-.873-1.536-1.463-1.218-.657-2.887-1.558-2.887-3.785a.9.9,0,0,1,1.805,0c0,1.1.737,1.548,1.94,2.2,1.106.6,2.483,1.341,2.483,3.051A.9.9,0,0,1,394.856,268Z"/><path class="cls-2" d="M345.4,202.96H332.45a.9.9,0,0,1,0-1.805H345.4a.9.9,0,0,1,0,1.805Z"/><path class="cls-2" d="M397.015,306.533H384.067a.9.9,0,0,1,0-1.805h12.948a.9.9,0,0,1,0,1.805Z"/><path class="cls-2" d="M417.314,281.519a.9.9,0,0,1-.638-1.54l9.155-9.156a.9.9,0,0,1,1.276,1.276l-9.155,9.156A.9.9,0,0,1,417.314,281.519Z"/><path class="cls-2" d="M341.526,122.71a.9.9,0,0,1-.638-1.54l9.156-9.155a.9.9,0,1,1,1.276,1.276l-9.156,9.155A.9.9,0,0,1,341.526,122.71Z"/><path class="cls-2" d="M432.987,208.653h0a3.15,3.15,0,1,0-1.68.487A3.148,3.148,0,0,0,432.988,208.652Zm-.476-.764h0Zm-.908-3.24a1.345,1.345,0,1,1-.305-.035A1.372,1.372,0,0,1,431.6,204.649Z"/><path class="cls-2" d="M351.448,227.792h0a3.153,3.153,0,1,0-1.68.487A3.148,3.148,0,0,0,351.449,227.791Zm-.477-.764h0Zm-.907-3.241a1.358,1.358,0,1,1-.305-.034A1.371,1.371,0,0,1,350.064,223.787Z"/><path class="cls-2" d="M374.631,156.579h0a3.163,3.163,0,1,0-2.388.407,3.223,3.223,0,0,0,.708.08A3.152,3.152,0,0,0,374.631,156.579Zm-.477-.764h0Zm-.907-3.24a1.358,1.358,0,1,1-.305-.034A1.384,1.384,0,0,1,373.247,152.575Z"/><path class="cls-2" d="M185.92,151.97a.9.9,0,0,1-.617-.245l-5.506-5.163a.9.9,0,0,1,1.235-1.316l5.506,5.163a.9.9,0,0,1-.618,1.561Z"/><path class="cls-2" d="M180.585,152.142a.9.9,0,0,1-.658-1.52l5.164-5.506a.9.9,0,0,1,1.316,1.235l-5.164,5.506A.9.9,0,0,1,180.585,152.142Z"/><path class="cls-2" d="M192.245,231.179a.9.9,0,0,1-.617-.245l-5.506-5.163a.9.9,0,0,1,1.235-1.316l5.506,5.163a.9.9,0,0,1-.618,1.561Z"/><path class="cls-2" d="M186.91,231.351a.9.9,0,0,1-.658-1.52l5.164-5.506a.9.9,0,0,1,1.316,1.235l-5.164,5.506A.9.9,0,0,1,186.91,231.351Z"/><path class="cls-2" d="M125.254,275.433a.9.9,0,0,1-.617-.244l-5.506-5.164a.9.9,0,1,1,1.235-1.316l5.5,5.163a.9.9,0,0,1-.617,1.561Z"/><path class="cls-2" d="M119.919,275.605a.9.9,0,0,1-.658-1.52l5.164-5.5a.9.9,0,0,1,1.316,1.234l-5.164,5.506A.9.9,0,0,1,119.919,275.605Z"/><path class="cls-2" d="M122.85,144.434a.9.9,0,0,1-.618-.244l-5.5-5.164a.9.9,0,1,1,1.235-1.316l5.5,5.164a.9.9,0,0,1-.617,1.56Z"/><path class="cls-2" d="M117.515,144.606a.9.9,0,0,1-.658-1.52l5.164-5.505a.9.9,0,1,1,1.316,1.235l-5.164,5.5A.9.9,0,0,1,117.515,144.606Z"/><path class="cls-2" d="M318.645,151.835a.9.9,0,0,1-.617-.245l-5.506-5.163a.9.9,0,0,1,1.235-1.316l5.506,5.163a.9.9,0,0,1-.618,1.561Z"/><path class="cls-2" d="M313.31,152.007a.9.9,0,0,1-.658-1.52l5.164-5.506a.9.9,0,0,1,1.316,1.235l-5.164,5.506A.9.9,0,0,1,313.31,152.007Z"/><path class="cls-2" d="M253.693,179.919a.9.9,0,0,1-.617-.244l-5.506-5.163a.9.9,0,0,1,1.235-1.317l5.506,5.164a.9.9,0,0,1-.618,1.56Z"/><path class="cls-2" d="M248.358,180.091a.9.9,0,0,1-.658-1.519l5.165-5.506a.9.9,0,1,1,1.316,1.235l-5.164,5.505A.9.9,0,0,1,248.358,180.091Z"/><path class="cls-2" d="M280.536,241.216a.9.9,0,0,1-.617-.244l-5.5-5.164a.9.9,0,1,1,1.235-1.316l5.5,5.163a.9.9,0,0,1-.618,1.561Z"/><path class="cls-2" d="M275.2,241.388a.9.9,0,0,1-.658-1.52l5.164-5.5a.9.9,0,1,1,1.316,1.234l-5.164,5.506A.9.9,0,0,1,275.2,241.388Z"/><path class="cls-2" d="M276.261,291.148a.9.9,0,0,1-.618-.244l-5.5-5.164a.9.9,0,1,1,1.235-1.316l5.5,5.164a.9.9,0,0,1-.617,1.56Z"/><path class="cls-2" d="M270.925,291.32a.9.9,0,0,1-.658-1.52l5.164-5.5a.9.9,0,0,1,1.317,1.234l-5.165,5.506A.9.9,0,0,1,270.925,291.32Z"/><path class="cls-2" d="M215.481,166.8l15.141-.009a.9.9,0,0,0,.781-1.355l-7.581-13.11a.9.9,0,0,0-.781-.451h0a.905.905,0,0,0-.781.452l-7.561,13.12a.9.9,0,0,0,.782,1.353Zm10.57-7.015h0l3.007,5.2-12.016.008,6-10.411Z"/><path class="cls-2" d="M202.948,246.933l15.142-.01a.9.9,0,0,0,.781-1.354l-7.581-13.11a.9.9,0,0,0-.782-.451h0a.9.9,0,0,0-.781.452l-7.562,13.12a.9.9,0,0,0,.782,1.353Zm10.57-7.015h0l3.008,5.2-12.016.008,6-10.411Z"/><path class="cls-2" d="M246.389,271.542l15.142-.01a.9.9,0,0,0,.78-1.354l-7.581-13.111a.9.9,0,0,0-.781-.45h0a.9.9,0,0,0-.782.452l-7.561,13.12a.9.9,0,0,0,.782,1.353Zm10.57-7.015h0l3.007,5.2-12.015.008,6-10.412Z"/><path class="cls-2" d="M281.005,221.933a.907.907,0,0,0,.638-.639l3.909-14.631a.9.9,0,0,0-1.106-1.105l-14.623,3.931a.9.9,0,0,0-.4,1.51l10.714,10.7a.9.9,0,0,0,.638.264A.939.939,0,0,0,281.005,221.933Zm2.4-14.226-1.552,5.806h0l-1.551,5.805-8.5-8.492Z"/><path class="cls-2" d="M156.5,137a.9.9,0,0,0,.638-.638l1.954-7.315h0l1.956-7.316a.9.9,0,0,0-1.107-1.1l-14.623,3.931a.9.9,0,0,0-.4,1.51l10.714,10.7a.905.905,0,0,0,.638.264A.89.89,0,0,0,156.5,137Zm2.4-14.225-1.551,5.806h0l-1.551,5.8-8.5-8.491Z"/><path class="cls-2" d="M151.314,295.071a.9.9,0,0,0,.637-.639l3.91-14.631a.9.9,0,0,0-1.106-1.1l-14.624,3.931a.9.9,0,0,0-.4,1.51l10.714,10.7a.9.9,0,0,0,.872.233Zm2.4-14.225-1.552,5.806h0l-1.551,5.8-8.5-8.491Z"/><path class="cls-2" d="M284.293,141.558l13.111-7.581a.9.9,0,0,0,0-1.563l-13.12-7.562a.9.9,0,0,0-1.354.783l.01,15.142a.9.9,0,0,0,1.354.781Zm10.854-8.361-5.2,3.008h0l-5.2,3.008-.008-12.016Z"/><path class="cls-2" d="M146.764,217.2l6.554-3.791h0l6.556-3.791a.9.9,0,0,0,0-1.563l-13.12-7.561a.9.9,0,0,0-1.353.783l.011,15.142a.9.9,0,0,0,1.354.781Zm10.853-8.361-5.2,3.008h0l-5.2,3.008-.008-12.016Z"/><path class="cls-2" d="M240.529,200.23a6.647,6.647,0,1,0-6.646,6.647A6.653,6.653,0,0,0,240.529,200.23Zm-1.8,0a4.842,4.842,0,1,1-4.842-4.842A4.847,4.847,0,0,1,238.725,200.23Z"/><path class="cls-2" d="M211.506,136.129a6.647,6.647,0,1,0-6.646,6.646A6.654,6.654,0,0,0,211.506,136.129Zm-1.8,0a4.842,4.842,0,1,1-4.842-4.842A4.847,4.847,0,0,1,209.7,136.129Z"/><path class="cls-2" d="M215.172,305.656a6.647,6.647,0,1,0-6.646,6.647A6.654,6.654,0,0,0,215.172,305.656Zm-1.805,0a4.842,4.842,0,1,1-4.841-4.841A4.847,4.847,0,0,1,213.367,305.656Z"/><path class="cls-2" d="M241.122,297.974a.9.9,0,0,1-.9-.9,4.842,4.842,0,0,0-9.684,0,.9.9,0,0,1-1.805,0,6.647,6.647,0,0,1,13.294,0A.9.9,0,0,1,241.122,297.974Z"/><path class="cls-2" d="M195.275,209.748a.9.9,0,0,1-.9-.9,4.842,4.842,0,0,0-9.684,0,.9.9,0,0,1-1.8,0,6.647,6.647,0,0,1,13.293,0A.9.9,0,0,1,195.275,209.748Z"/><path class="cls-2" d="M134.79,163.111a.9.9,0,0,1-.9-.9,4.816,4.816,0,1,0-9.632,0,.9.9,0,1,1-1.8,0,6.621,6.621,0,1,1,13.241,0A.9.9,0,0,1,134.79,163.111Z"/><path class="cls-2" d="M268.144,172.517a6.621,6.621,0,1,1,0-13.241.9.9,0,0,1,0,1.8,4.816,4.816,0,1,0,0,9.632.9.9,0,0,1,0,1.805Z"/><path class="cls-2" d="M129.83,306.533a6.621,6.621,0,1,1,0-13.241.9.9,0,0,1,0,1.805,4.816,4.816,0,1,0,0,9.631.9.9,0,0,1,0,1.805Z"/><path class="cls-2" d="M191.468,123.851a6.621,6.621,0,1,1,0-13.242.9.9,0,1,1,0,1.805,4.816,4.816,0,1,0,0,9.632.9.9,0,1,1,0,1.8Z"/><path class="cls-2" d="M133.6,245.214a6.647,6.647,0,1,0-6.646,6.647A6.653,6.653,0,0,0,133.6,245.214Zm-1.8,0a4.842,4.842,0,1,1-4.842-4.841A4.848,4.848,0,0,1,131.8,245.214Z"/><path class="cls-2" d="M310.738,251.775a6.647,6.647,0,1,0-6.646,6.646A6.655,6.655,0,0,0,310.738,251.775Zm-1.805,0a4.842,4.842,0,1,1-4.841-4.842A4.847,4.847,0,0,1,308.933,251.775Z"/><path class="cls-2" d="M306.275,171.609V160.183a.9.9,0,0,0-.9-.9H293.947a.9.9,0,0,0-.9.9v11.426a.9.9,0,0,0,.9.9h11.426A.9.9,0,0,0,306.275,171.609Zm-11.426-10.524h9.621v9.622h-9.621Z"/><path class="cls-2" d="M177.088,177.322V165.9a.9.9,0,0,0-.9-.9H164.76a.9.9,0,0,0-.9.9v11.426a.9.9,0,0,0,.9.9h11.426A.9.9,0,0,0,177.088,177.322ZM165.663,166.8h9.621v9.622h-9.621Z"/><path class="cls-2" d="M176.515,250.268V238.842a.9.9,0,0,0-.9-.9H164.187a.9.9,0,0,0-.9.9v11.426a.9.9,0,0,0,.9.9h11.426A.9.9,0,0,0,176.515,250.268Zm-11.426-10.524h9.621v9.622h-9.621Z"/><path class="cls-2" d="M306.274,305.625V294.2a.9.9,0,0,0-.9-.9H293.947a.9.9,0,0,0-.9.9v11.426a.9.9,0,0,0,.9.9h11.425A.9.9,0,0,0,306.274,305.625ZM294.849,295.1h9.621v9.621h-9.621Z"/><path class="cls-2" d="M258.877,122.943V111.517a.9.9,0,0,0-.9-.9H246.549a.9.9,0,0,0-.9.9v11.426a.9.9,0,0,0,.9.9h11.425A.9.9,0,0,0,258.877,122.943ZM247.451,112.42h9.621v9.621h-9.621Z"/><path class="cls-2" d="M230.13,228.6c-1.709,0-2.452-1.377-3.05-2.483-.649-1.2-1.1-1.94-2.2-1.94a.9.9,0,0,1,0-1.805c2.227,0,3.128,1.669,3.785,2.887.59,1.092.887,1.536,1.462,1.536a.9.9,0,1,1,0,1.805Z"/><path class="cls-2" d="M240.625,228.6c-1.71,0-2.454-1.377-3.051-2.484-.668-1.238-1.1-1.939-2.2-1.939a.9.9,0,1,1,0-1.805c2.226,0,3.127,1.669,3.785,2.887.589,1.092.886,1.536,1.462,1.536a.9.9,0,0,1,0,1.805Z"/><path class="cls-2" d="M230.13,228.6a.9.9,0,0,1,0-1.805c.576,0,.873-.444,1.462-1.536.658-1.218,1.559-2.887,3.786-2.887a.9.9,0,0,1,0,1.805c-1.095,0-1.548.737-2.2,1.94C232.583,227.221,231.84,228.6,230.13,228.6Z"/><path class="cls-2" d="M245.871,223.273"/><path class="cls-2" d="M240.625,228.6a.9.9,0,1,1,0-1.805c.575,0,.872-.444,1.461-1.536.658-1.218,1.559-2.887,3.785-2.887a.9.9,0,1,1,0,1.805c-1.094,0-1.547.737-2.2,1.94C243.077,227.221,242.334,228.6,240.625,228.6Z"/><path class="cls-2" d="M260.025,310.983c-1.71,0-2.453-1.377-3.05-2.484-.65-1.2-1.1-1.94-2.2-1.94a.9.9,0,1,1,0-1.805c2.227,0,3.127,1.669,3.785,2.887.589,1.092.886,1.537,1.462,1.537a.9.9,0,0,1,0,1.805Z"/><path class="cls-2" d="M270.519,310.983c-1.71,0-2.453-1.377-3.05-2.484-.669-1.239-1.1-1.939-2.2-1.939a.9.9,0,0,1,0-1.805c2.227,0,3.128,1.669,3.785,2.887.589,1.091.886,1.536,1.462,1.536a.9.9,0,1,1,0,1.805Z"/><path class="cls-2" d="M260.025,310.983a.9.9,0,0,1,0-1.805c.576,0,.873-.445,1.462-1.536.658-1.218,1.559-2.887,3.785-2.887a.9.9,0,1,1,0,1.805c-1.094,0-1.548.737-2.2,1.939C262.478,309.606,261.735,310.983,260.025,310.983Z"/><path class="cls-2" d="M275.766,305.657"/><path class="cls-2" d="M270.519,310.983a.9.9,0,0,1,0-1.805c.575,0,.872-.445,1.462-1.536.657-1.219,1.558-2.887,3.784-2.887h0a.9.9,0,0,1,0,1.805h0c-1.1,0-1.527.7-2.2,1.939-.6,1.106-1.341,2.483-3.05,2.484Z"/><path class="cls-2" d="M274.335,192.21c-1.71,0-2.453-1.377-3.051-2.484-.668-1.239-1.1-1.939-2.2-1.939a.9.9,0,0,1,0-1.805c2.226,0,3.127,1.669,3.785,2.887.589,1.092.886,1.536,1.462,1.536a.9.9,0,0,1,0,1.805Z"/><path class="cls-2" d="M284.829,192.21c-1.71,0-2.453-1.377-3.051-2.484-.668-1.238-1.1-1.939-2.2-1.939a.9.9,0,0,1,0-1.805c2.226,0,3.127,1.669,3.785,2.887.589,1.092.886,1.536,1.462,1.536a.9.9,0,0,1,0,1.805Z"/><path class="cls-2" d="M274.335,192.21a.9.9,0,1,1,0-1.805c.575,0,.873-.444,1.462-1.536.658-1.218,1.559-2.887,3.785-2.887a.9.9,0,0,1,0,1.805c-1.094,0-1.547.737-2.2,1.939C276.788,190.833,276.044,192.21,274.335,192.21Z"/><path class="cls-2" d="M290.076,186.885"/><path class="cls-2" d="M284.829,192.21a.9.9,0,1,1,0-1.805c.575,0,.873-.444,1.462-1.536.657-1.218,1.558-2.887,3.785-2.887h0a.9.9,0,1,1,0,1.805h0c-1.1,0-1.528.7-2.2,1.939C287.282,190.833,286.538,192.21,284.829,192.21Z"/><path class="cls-2" d="M128.4,186.865c-1.71,0-2.453-1.377-3.051-2.484-.668-1.239-1.1-1.94-2.2-1.94a.9.9,0,1,1,0-1.805c2.226,0,3.127,1.669,3.785,2.888.589,1.091.886,1.536,1.462,1.536a.9.9,0,0,1,0,1.805Z"/><path class="cls-2" d="M138.9,186.865c-1.71,0-2.453-1.377-3.05-2.484-.669-1.239-1.1-1.939-2.2-1.939a.9.9,0,0,1,0-1.805c2.227,0,3.127,1.668,3.785,2.887.589,1.091.886,1.536,1.462,1.536a.9.9,0,0,1,0,1.805Z"/><path class="cls-2" d="M128.4,186.865a.9.9,0,1,1,0-1.805c.576,0,.873-.445,1.462-1.536.658-1.219,1.559-2.887,3.785-2.887a.9.9,0,1,1,0,1.805c-1.094,0-1.548.737-2.2,1.939C130.856,185.488,130.113,186.865,128.4,186.865Z"/><path class="cls-2" d="M144.144,181.539"/><path class="cls-2" d="M138.9,186.865a.9.9,0,0,1,0-1.805c.575,0,.873-.445,1.462-1.536.657-1.219,1.558-2.887,3.785-2.887h0a.9.9,0,0,1,0,1.805h0c-1.1,0-1.528.7-2.2,1.939C141.35,185.488,140.606,186.865,138.9,186.865Z"/><path class="cls-2" d="M226.576,132.894a.9.9,0,0,1-.9-.9c0-2.227,1.669-3.128,2.887-3.785,1.092-.59,1.537-.887,1.537-1.462a.9.9,0,1,1,1.8,0c0,1.709-1.377,2.453-2.483,3.05-1.239.669-1.94,1.1-1.94,2.2A.9.9,0,0,1,226.576,132.894Z"/><path class="cls-2" d="M226.576,122.4a.9.9,0,0,1-.9-.9c0-2.226,1.669-3.127,2.887-3.784,1.092-.59,1.537-.887,1.537-1.462a.9.9,0,1,1,1.8,0c0,1.709-1.377,2.453-2.483,3.05-1.239.669-1.94,1.1-1.94,2.2A.9.9,0,0,1,226.576,122.4Z"/><path class="cls-2" d="M231,127.647a.9.9,0,0,1-.9-.9c0-.576-.445-.873-1.537-1.463-1.218-.657-2.887-1.558-2.887-3.785a.9.9,0,0,1,1.805,0c0,1.095.737,1.548,1.94,2.2,1.106.6,2.483,1.341,2.483,3.051A.9.9,0,0,1,231,127.647Z"/><path class="cls-2" d="M226.576,111"/><path class="cls-2" d="M231,117.153a.9.9,0,0,1-.9-.9c0-.576-.445-.873-1.536-1.462-1.219-.658-2.888-1.559-2.888-3.785a.9.9,0,1,1,1.805,0c0,1.094.737,1.547,1.94,2.2,1.106.6,2.483,1.34,2.483,3.05A.9.9,0,0,1,231,117.153Z"/><path class="cls-2" d="M194.4,187.787a.9.9,0,0,1-.9-.9c0-2.226,1.668-3.127,2.887-3.785,1.092-.589,1.536-.886,1.536-1.462a.9.9,0,0,1,1.805,0c0,1.71-1.377,2.453-2.484,3.05-1.239.669-1.939,1.1-1.939,2.2A.9.9,0,0,1,194.4,187.787Z"/><path class="cls-2" d="M194.4,177.292a.9.9,0,0,1-.9-.9c0-2.227,1.668-3.127,2.887-3.785,1.091-.589,1.536-.886,1.536-1.462a.9.9,0,0,1,1.805,0c0,1.71-1.377,2.453-2.484,3.05-1.239.669-1.939,1.1-1.939,2.2A.9.9,0,0,1,194.4,177.292Z"/><path class="cls-2" d="M198.823,182.54a.9.9,0,0,1-.9-.9c0-.575-.445-.873-1.536-1.462-1.219-.658-2.887-1.559-2.887-3.785a.9.9,0,1,1,1.8,0c0,1.094.737,1.548,1.939,2.2,1.107.6,2.484,1.341,2.484,3.05A.9.9,0,0,1,198.823,182.54Z"/><path class="cls-2" d="M194.4,165.9"/><path class="cls-2" d="M198.823,172.045a.9.9,0,0,1-.9-.9c0-.575-.444-.873-1.536-1.462-1.218-.658-2.887-1.558-2.887-3.785a.9.9,0,0,1,1.8,0c0,1.094.737,1.548,1.939,2.2,1.107.6,2.484,1.341,2.484,3.05A.9.9,0,0,1,198.823,172.045Z"/><path class="cls-2" d="M281.62,275.476a.9.9,0,0,1-.9-.9c0-2.226,1.668-3.127,2.887-3.785,1.091-.589,1.536-.886,1.536-1.462a.9.9,0,1,1,1.805,0c0,1.71-1.377,2.453-2.484,3.05-1.239.669-1.939,1.1-1.939,2.2A.9.9,0,0,1,281.62,275.476Z"/><path class="cls-2" d="M281.62,264.981a.9.9,0,0,1-.9-.9c0-2.226,1.668-3.127,2.887-3.784,1.091-.589,1.536-.887,1.536-1.462a.9.9,0,1,1,1.805,0c0,1.709-1.377,2.453-2.484,3.05-1.239.669-1.939,1.1-1.939,2.2A.9.9,0,0,1,281.62,264.981Z"/><path class="cls-2" d="M286.043,270.228a.9.9,0,0,1-.9-.9c0-.576-.444-.873-1.536-1.462-1.218-.658-2.887-1.558-2.887-3.786a.9.9,0,0,1,1.805,0c0,1.1.7,1.529,1.939,2.2,1.107.6,2.484,1.34,2.484,3.05A.9.9,0,0,1,286.043,270.228Z"/><path class="cls-2" d="M281.62,253.585"/><path class="cls-2" d="M286.043,259.734a.9.9,0,0,1-.9-.9c0-.576-.444-.873-1.536-1.462-1.218-.657-2.887-1.558-2.887-3.785a.9.9,0,0,1,1.805,0c0,1.094.737,1.548,1.939,2.2,1.107.6,2.484,1.34,2.484,3.05A.9.9,0,0,1,286.043,259.734Z"/><path class="cls-2" d="M173.4,283.745a.9.9,0,0,1-.9-.9c0-2.226,1.669-3.127,2.888-3.784,1.091-.59,1.536-.887,1.536-1.462a.9.9,0,0,1,1.805,0c0,1.71-1.378,2.453-2.484,3.05-1.239.669-1.94,1.1-1.94,2.2A.9.9,0,0,1,173.4,283.745Z"/><path class="cls-2" d="M173.4,273.251a.9.9,0,0,1-.9-.9c0-2.226,1.669-3.127,2.888-3.784,1.091-.59,1.536-.887,1.536-1.462a.9.9,0,1,1,1.805,0c0,1.709-1.378,2.453-2.484,3.05-1.239.668-1.94,1.1-1.94,2.2A.9.9,0,0,1,173.4,273.251Z"/><path class="cls-2" d="M177.824,278.5a.9.9,0,0,1-.9-.9c0-.576-.445-.873-1.537-1.463-1.218-.657-2.887-1.558-2.887-3.785a.9.9,0,0,1,1.805,0c0,1.094.737,1.548,1.94,2.2,1.106.6,2.484,1.341,2.484,3.051A.9.9,0,0,1,177.824,278.5Z"/><path class="cls-2" d="M173.4,261.854"/><path class="cls-2" d="M177.824,268a.9.9,0,0,1-.9-.9c0-.576-.445-.873-1.536-1.463-1.219-.657-2.888-1.558-2.888-3.785a.9.9,0,0,1,1.805,0c0,1.1.737,1.548,1.94,2.2,1.106.6,2.484,1.341,2.484,3.051A.9.9,0,0,1,177.824,268Z"/><path class="cls-2" d="M255.652,240.373H242.7a.9.9,0,1,1,0-1.8h12.948a.9.9,0,1,1,0,1.8Z"/><path class="cls-2" d="M128.366,202.96H115.418a.9.9,0,0,1,0-1.805h12.948a.9.9,0,0,1,0,1.805Z"/><path class="cls-2" d="M256.62,142.775H243.672a.9.9,0,0,1,0-1.805H256.62a.9.9,0,0,1,0,1.805Z"/><path class="cls-2" d="M307.656,113.555H294.709a.9.9,0,1,1,0-1.805h12.947a.9.9,0,1,1,0,1.805Z"/><path class="cls-2" d="M179.983,306.533H167.036a.9.9,0,1,1,0-1.805h12.947a.9.9,0,1,1,0,1.805Z"/><path class="cls-2" d="M200.282,281.519a.9.9,0,0,1-.638-1.54l9.155-9.156a.9.9,0,0,1,1.276,1.276l-9.155,9.156A.9.9,0,0,1,200.282,281.519Z"/><path class="cls-2" d="M124.5,122.71a.9.9,0,0,1-.638-1.54l9.155-9.155a.9.9,0,1,1,1.276,1.276l-9.155,9.155A.9.9,0,0,1,124.5,122.71Z"/><path class="cls-2" d="M301.182,216.566a.9.9,0,0,1-.638-1.541l9.155-9.155a.9.9,0,0,1,1.276,1.276L301.82,216.3A.9.9,0,0,1,301.182,216.566Z"/><path class="cls-2" d="M233.784,270.889h0a3.165,3.165,0,1,0-2.389.407,3.154,3.154,0,0,0,2.388-.406Zm-.477-.764h0Zm-.907-3.24a1.348,1.348,0,1,1-.305-.035A1.379,1.379,0,0,1,232.4,266.885Z"/><path class="cls-2" d="M215.955,208.653h0a3.15,3.15,0,1,0-1.68.487A3.141,3.141,0,0,0,215.956,208.652Zm-.476-.764h0Zm-.908-3.24a1.345,1.345,0,1,1-.305-.035A1.372,1.372,0,0,1,214.571,204.649Z"/><path class="cls-2" d="M134.416,227.792h0a3.15,3.15,0,1,0-1.68.487A3.141,3.141,0,0,0,134.417,227.791Zm-.476-.764h0Zm-.907-3.241a1.358,1.358,0,1,1-.306-.034A1.386,1.386,0,0,1,133.033,223.787Z"/><path class="cls-2" d="M157.6,156.579h0a3.163,3.163,0,1,0-2.388.407,3.232,3.232,0,0,0,.709.08A3.151,3.151,0,0,0,157.6,156.579Zm-.477-.764h0Zm-.907-3.24a1.358,1.358,0,1,1-.305-.034A1.378,1.378,0,0,1,156.215,152.575Z"/><path class="cls-2" d="M282.051,155.454h0a3.169,3.169,0,1,0-1.681.484A3.148,3.148,0,0,0,282.052,155.454Zm-.477-.764h0Zm-.907-3.24a1.358,1.358,0,1,1-.3-.034A1.371,1.371,0,0,1,280.667,151.45Z"/><path class="cls-2" d="M314.013,236.061h0a3.166,3.166,0,1,0-1.68.485A3.144,3.144,0,0,0,314.013,236.06Zm-.477-.764h0Zm-.058-2.639a1.362,1.362,0,1,1-1.153-.635A1.355,1.355,0,0,1,313.478,232.658Z"/><path class="cls-2" d="M101.613,151.835a.9.9,0,0,1-.617-.245l-5.5-5.163a.9.9,0,1,1,1.235-1.316l5.5,5.163a.9.9,0,0,1-.618,1.561Z"/><path class="cls-2" d="M96.278,152.007a.9.9,0,0,1-.658-1.52l5.164-5.506a.9.9,0,0,1,1.316,1.235l-5.164,5.506A.9.9,0,0,1,96.278,152.007Z"/><path class="cls-2" d="M36.661,179.919a.9.9,0,0,1-.617-.244l-5.5-5.163a.9.9,0,1,1,1.235-1.317l5.505,5.164a.9.9,0,0,1-.618,1.56Z"/><path class="cls-2" d="M31.327,180.091a.9.9,0,0,1-.658-1.519l5.164-5.506a.9.9,0,1,1,1.316,1.235l-5.164,5.505A.9.9,0,0,1,31.327,180.091Z"/><path class="cls-2" d="M63.505,241.216a.9.9,0,0,1-.618-.244l-5.505-5.164a.9.9,0,1,1,1.235-1.316l5.505,5.163a.9.9,0,0,1-.617,1.561Z"/><path class="cls-2" d="M58.169,241.388a.9.9,0,0,1-.658-1.52l5.164-5.5a.9.9,0,0,1,1.317,1.234L58.827,241.1A.9.9,0,0,1,58.169,241.388Z"/><path class="cls-2" d="M59.229,291.148a.9.9,0,0,1-.617-.244l-5.506-5.164a.9.9,0,1,1,1.235-1.316l5.5,5.164a.9.9,0,0,1-.617,1.56Z"/><path class="cls-2" d="M53.893,291.32a.9.9,0,0,1-.658-1.52l5.165-5.5a.9.9,0,1,1,1.316,1.234l-5.164,5.506A.9.9,0,0,1,53.893,291.32Z"/><path class="cls-2" d="M-1.551,166.8l15.141-.009a.9.9,0,0,0,.781-1.355L6.79,152.324a.9.9,0,0,0-.781-.451h0a.905.905,0,0,0-.781.452l-7.561,13.12a.9.9,0,0,0,0,.9.9.9,0,0,0,.781.45Zm10.57-7.015h0l3.007,5.2-12.015.008,6-10.411Z"/><path class="cls-2" d="M-14.084,246.933l15.142-.01a.9.9,0,0,0,.781-1.354l-7.581-13.11a.9.9,0,0,0-.781-.451h0a.9.9,0,0,0-.781.452l-7.561,13.12a.9.9,0,0,0,0,.9.9.9,0,0,0,.781.45Zm10.57-7.015h0l3.008,5.2-12.016.008,6-10.411Z"/><path class="cls-2" d="M29.357,271.542l15.142-.01a.9.9,0,0,0,.781-1.354L37.7,257.067a.9.9,0,0,0-.781-.45h0a.9.9,0,0,0-.781.452l-7.562,13.12a.9.9,0,0,0,.782,1.353Zm10.57-7.015h0l3.008,5.2-12.016.008,6-10.412Z"/><path class="cls-2" d="M63.973,221.933a.907.907,0,0,0,.638-.639l3.91-14.631a.9.9,0,0,0-1.106-1.105l-14.624,3.931a.9.9,0,0,0-.4,1.51L63.1,221.7a.9.9,0,0,0,.638.264A.933.933,0,0,0,63.973,221.933Zm2.4-14.226-1.552,5.806h0l-1.55,5.805-8.5-8.492Z"/><path class="cls-2" d="M67.262,141.558l13.11-7.581a.9.9,0,0,0,0-1.563l-13.12-7.562a.9.9,0,0,0-1.353.783l.01,15.142a.9.9,0,0,0,1.354.781ZM78.115,133.2l-5.2,3.008h0l-5.2,3.008L67.7,127.2Z"/><path class="cls-2" d="M23.5,200.23a6.647,6.647,0,1,0-6.646,6.647A6.654,6.654,0,0,0,23.5,200.23Zm-1.8,0a4.842,4.842,0,1,1-4.841-4.842A4.847,4.847,0,0,1,21.693,200.23Z"/><path class="cls-2" d="M24.09,297.974a.9.9,0,0,1-.9-.9,4.842,4.842,0,0,0-9.684,0,.9.9,0,0,1-1.8,0,6.647,6.647,0,1,1,13.293,0A.9.9,0,0,1,24.09,297.974Z"/><path class="cls-2" d="M51.112,172.517a6.621,6.621,0,1,1,0-13.241.9.9,0,1,1,0,1.8,4.816,4.816,0,1,0,0,9.632.9.9,0,1,1,0,1.805Z"/><path class="cls-2" d="M93.706,251.775a6.647,6.647,0,1,0-6.646,6.646A6.654,6.654,0,0,0,93.706,251.775Zm-1.805,0a4.842,4.842,0,1,1-4.841-4.842A4.846,4.846,0,0,1,91.9,251.775Z"/><path class="cls-2" d="M89.243,171.609V160.183a.9.9,0,0,0-.9-.9H76.915a.9.9,0,0,0-.9.9v11.426a.9.9,0,0,0,.9.9H88.341A.9.9,0,0,0,89.243,171.609ZM77.817,161.085h9.622v9.622H77.817Z"/><path class="cls-2" d="M89.243,305.625V294.2a.9.9,0,0,0-.9-.9H76.915a.9.9,0,0,0-.9.9v11.426a.9.9,0,0,0,.9.9H88.34A.9.9,0,0,0,89.243,305.625ZM77.817,295.1h9.621v9.621H77.817Z"/><path class="cls-2" d="M41.845,122.943V111.517a.9.9,0,0,0-.9-.9H29.517a.9.9,0,0,0-.9.9v11.426a.9.9,0,0,0,.9.9H40.942A.9.9,0,0,0,41.845,122.943ZM30.419,112.42H40.04v9.621H30.419Z"/><path class="cls-2" d="M13.1,228.6c-1.71,0-2.453-1.377-3.05-2.483-.65-1.2-1.1-1.94-2.2-1.94a.9.9,0,0,1,0-1.805c2.227,0,3.128,1.669,3.786,2.887.589,1.092.886,1.536,1.462,1.536a.9.9,0,0,1,0,1.805Z"/><path class="cls-2" d="M23.593,228.6c-1.71,0-2.453-1.377-3.051-2.484-.668-1.238-1.1-1.939-2.2-1.939a.9.9,0,0,1,0-1.805c2.227,0,3.127,1.669,3.785,2.887.589,1.092.886,1.536,1.462,1.536a.9.9,0,0,1,0,1.805Z"/><path class="cls-2" d="M13.1,228.6a.9.9,0,1,1,0-1.805c.575,0,.873-.444,1.462-1.536.658-1.218,1.558-2.887,3.785-2.887a.9.9,0,1,1,0,1.805c-1.094,0-1.548.737-2.2,1.94C15.552,227.221,14.808,228.6,13.1,228.6Z"/><path class="cls-2" d="M28.839,223.273"/><path class="cls-2" d="M23.593,228.6a.9.9,0,1,1,0-1.805c.575,0,.872-.444,1.461-1.536.658-1.218,1.559-2.887,3.786-2.887a.9.9,0,0,1,0,1.805c-1.095,0-1.548.737-2.2,1.94C26.045,227.221,25.3,228.6,23.593,228.6Z"/><path class="cls-2" d="M42.993,310.983c-1.709,0-2.453-1.377-3.05-2.484-.649-1.2-1.1-1.94-2.2-1.94a.9.9,0,1,1,0-1.805c2.227,0,3.128,1.669,3.785,2.887.589,1.092.887,1.537,1.462,1.537a.9.9,0,1,1,0,1.805Z"/><path class="cls-2" d="M53.487,310.983c-1.709,0-2.453-1.377-3.05-2.484-.669-1.239-1.1-1.939-2.2-1.939a.9.9,0,1,1,0-1.805c2.226,0,3.127,1.669,3.784,2.887.59,1.091.887,1.536,1.462,1.536a.9.9,0,1,1,0,1.805Z"/><path class="cls-2" d="M42.993,310.983a.9.9,0,0,1,0-1.805c.576,0,.873-.445,1.462-1.536.658-1.218,1.559-2.887,3.786-2.887a.9.9,0,0,1,0,1.805c-1.095,0-1.548.737-2.2,1.939C45.446,309.606,44.7,310.983,42.993,310.983Z"/><path class="cls-2" d="M58.734,305.657"/><path class="cls-2" d="M53.487,310.983a.9.9,0,0,1,0-1.805c.575,0,.873-.445,1.462-1.536.658-1.219,1.558-2.887,3.784-2.887h0a.9.9,0,0,1,0,1.805h0c-1.1,0-1.527.7-2.2,1.939-.6,1.106-1.34,2.483-3.049,2.484Z"/><path class="cls-2" d="M57.3,192.21c-1.71,0-2.453-1.377-3.051-2.484-.668-1.239-1.1-1.939-2.2-1.939a.9.9,0,0,1,0-1.805c2.227,0,3.127,1.669,3.785,2.887.589,1.092.886,1.536,1.462,1.536a.9.9,0,0,1,0,1.805Z"/><path class="cls-2" d="M67.8,192.21c-1.71,0-2.453-1.377-3.05-2.484-.669-1.238-1.1-1.939-2.2-1.939a.9.9,0,0,1,0-1.805c2.227,0,3.127,1.669,3.785,2.887.589,1.092.886,1.536,1.462,1.536a.9.9,0,0,1,0,1.805Z"/><path class="cls-2" d="M57.3,192.21a.9.9,0,1,1,0-1.805c.576,0,.873-.444,1.462-1.536.658-1.218,1.559-2.887,3.785-2.887a.9.9,0,1,1,0,1.805c-1.094,0-1.547.737-2.2,1.939C59.756,190.833,59.013,192.21,57.3,192.21Z"/><path class="cls-2" d="M73.044,186.885"/><path class="cls-2" d="M67.8,192.21a.9.9,0,0,1,0-1.805c.575,0,.873-.444,1.462-1.536.658-1.218,1.559-2.887,3.785-2.887h0a.9.9,0,1,1,0,1.805h0c-1.1,0-1.528.7-2.2,1.939C70.25,190.833,69.507,192.21,67.8,192.21Z"/><path class="cls-2" d="M9.544,132.894a.9.9,0,0,1-.9-.9c0-2.227,1.668-3.128,2.887-3.785,1.091-.59,1.536-.887,1.536-1.462a.9.9,0,1,1,1.8,0c0,1.709-1.378,2.453-2.484,3.05-1.239.669-1.94,1.1-1.94,2.2A.9.9,0,0,1,9.544,132.894Z"/><path class="cls-2" d="M9.544,122.4a.9.9,0,0,1-.9-.9c0-2.226,1.668-3.127,2.887-3.784,1.091-.59,1.536-.887,1.536-1.462a.9.9,0,1,1,1.8,0c0,1.709-1.378,2.453-2.484,3.05-1.239.669-1.94,1.1-1.94,2.2A.9.9,0,0,1,9.544,122.4Z"/><path class="cls-2" d="M13.967,127.647a.9.9,0,0,1-.9-.9c0-.576-.445-.873-1.536-1.463-1.219-.657-2.887-1.558-2.887-3.785a.9.9,0,1,1,1.8,0c0,1.095.738,1.548,1.94,2.2,1.107.6,2.484,1.341,2.484,3.051A.9.9,0,0,1,13.967,127.647Z"/><path class="cls-2" d="M9.544,111"/><path class="cls-2" d="M13.967,117.153a.9.9,0,0,1-.9-.9c0-.576-.445-.873-1.536-1.462-1.219-.658-2.887-1.559-2.887-3.785a.9.9,0,1,1,1.8,0c0,1.094.738,1.547,1.94,2.2,1.107.6,2.484,1.34,2.484,3.05A.9.9,0,0,1,13.967,117.153Z"/><path class="cls-2" d="M64.588,275.476a.9.9,0,0,1-.9-.9c0-2.226,1.669-3.127,2.887-3.785,1.092-.589,1.536-.886,1.536-1.462a.9.9,0,1,1,1.805,0c0,1.71-1.377,2.453-2.484,3.05-1.238.669-1.939,1.1-1.939,2.2A.9.9,0,0,1,64.588,275.476Z"/><path class="cls-2" d="M64.588,264.981a.9.9,0,0,1-.9-.9c0-2.226,1.669-3.127,2.887-3.784,1.092-.589,1.536-.887,1.536-1.462a.9.9,0,1,1,1.805,0c0,1.709-1.377,2.453-2.484,3.05-1.238.669-1.939,1.1-1.939,2.2A.9.9,0,0,1,64.588,264.981Z"/><path class="cls-2" d="M69.012,270.228a.9.9,0,0,1-.9-.9c0-.576-.444-.873-1.536-1.462-1.218-.658-2.887-1.558-2.887-3.786a.9.9,0,0,1,1.8,0c0,1.1.7,1.529,1.94,2.2,1.106.6,2.483,1.34,2.483,3.05A.9.9,0,0,1,69.012,270.228Z"/><path class="cls-2" d="M64.588,253.585"/><path class="cls-2" d="M69.012,259.734a.9.9,0,0,1-.9-.9c0-.576-.444-.873-1.536-1.462-1.218-.657-2.887-1.558-2.887-3.785a.9.9,0,0,1,1.8,0c0,1.094.737,1.548,1.94,2.2,1.106.6,2.483,1.34,2.483,3.05A.9.9,0,0,1,69.012,259.734Z"/><path class="cls-2" d="M38.62,240.373H25.673a.9.9,0,1,1,0-1.8H38.62a.9.9,0,1,1,0,1.8Z"/><path class="cls-2" d="M39.588,142.775H26.641a.9.9,0,1,1,0-1.805H39.588a.9.9,0,1,1,0,1.805Z"/><path class="cls-2" d="M90.625,113.555H77.677a.9.9,0,0,1,0-1.805H90.625a.9.9,0,0,1,0,1.805Z"/><path class="cls-2" d="M84.15,216.566a.9.9,0,0,1-.638-1.541l9.156-9.155a.9.9,0,1,1,1.276,1.276L84.788,216.3A.9.9,0,0,1,84.15,216.566Z"/><path class="cls-2" d="M16.752,270.889h0a3.153,3.153,0,1,0-1.68.487A3.146,3.146,0,0,0,16.753,270.888Zm-.476-.764h0Zm-.908-3.24a1.345,1.345,0,1,1-.3-.035A1.379,1.379,0,0,1,15.368,266.885Z"/><path class="cls-2" d="M-1.076,208.653h0a3.141,3.141,0,0,0,1.4-1.976,3.138,3.138,0,0,0-.407-2.386,3.139,3.139,0,0,0-1.976-1.4,3.149,3.149,0,0,0-2.387.406,3.145,3.145,0,0,0-1.4,1.976,3.141,3.141,0,0,0,.407,2.387,3.14,3.14,0,0,0,1.976,1.4,3.164,3.164,0,0,0,.708.08A3.151,3.151,0,0,0-1.076,208.653Zm-.477-.764h0Zm-.907-3.24a1.349,1.349,0,0,1,.849.6,1.353,1.353,0,0,1,.175,1.025,1.352,1.352,0,0,1-.6.849,1.357,1.357,0,0,1-1.026.175,1.354,1.354,0,0,1-.849-.6,1.349,1.349,0,0,1-.175-1.025,1.351,1.351,0,0,1,.6-.849,1.349,1.349,0,0,1,.721-.209A1.386,1.386,0,0,1-2.46,204.649Z"/><path class="cls-2" d="M65.019,155.454h0a3.169,3.169,0,1,0-1.68.484A3.141,3.141,0,0,0,65.02,155.454Zm-.476-.764h0Zm-.908-3.24a1.356,1.356,0,1,1-.3-.034A1.369,1.369,0,0,1,63.635,151.45Z"/><path class="cls-2" d="M96.981,236.061h0a3.167,3.167,0,1,0-1.681.485A3.146,3.146,0,0,0,96.982,236.06ZM96.5,235.3h0Zm-.057-2.639a1.363,1.363,0,1,1-1.154-.635A1.351,1.351,0,0,1,96.447,232.658Z"/><path class="cls-2" d="M300.761,19.976a.894.894,0,0,1-.617-.244l-5.506-5.163a.9.9,0,0,1,1.235-1.317l5.5,5.164a.9.9,0,0,1-.617,1.56Z"/><path class="cls-2" d="M295.426,20.148a.9.9,0,0,1-.658-1.519l5.164-5.506a.9.9,0,1,1,1.316,1.235l-5.164,5.5A.9.9,0,0,1,295.426,20.148Z"/><path class="cls-2" d="M233.77,64.231a.9.9,0,0,1-.618-.244l-5.5-5.164a.9.9,0,1,1,1.235-1.317l5.5,5.164a.9.9,0,0,1-.617,1.561Z"/><path class="cls-2" d="M228.434,64.4a.9.9,0,0,1-.657-1.52l5.164-5.506a.9.9,0,0,1,1.316,1.235l-5.164,5.505A.9.9,0,0,1,228.434,64.4Z"/><path class="cls-2" d="M389.052,30.014a.9.9,0,0,1-.617-.245l-5.5-5.163a.9.9,0,1,1,1.234-1.316l5.506,5.163a.9.9,0,0,1-.618,1.561Z"/><path class="cls-2" d="M383.717,30.186a.9.9,0,0,1-.658-1.52l5.164-5.506a.9.9,0,0,1,1.316,1.235L384.375,29.9A.9.9,0,0,1,383.717,30.186Z"/><path class="cls-2" d="M384.776,79.946a.9.9,0,0,1-.617-.244l-5.5-5.164a.9.9,0,1,1,1.235-1.316l5.5,5.163a.9.9,0,0,1-.618,1.561Z"/><path class="cls-2" d="M379.441,80.118a.9.9,0,0,1-.658-1.52l5.164-5.5a.9.9,0,1,1,1.316,1.234L380.1,79.833A.9.9,0,0,1,379.441,80.118Z"/><path class="cls-2" d="M311.464,35.731l15.142-.01a.9.9,0,0,0,.781-1.354l-7.582-13.11a.9.9,0,0,0-.781-.451h0a.9.9,0,0,0-.782.452l-7.561,13.12a.9.9,0,0,0,.782,1.353Zm10.57-7.015h0l3.008,5.2-12.016.008,6-10.411Z"/><path class="cls-2" d="M354.905,60.34l15.141-.01a.9.9,0,0,0,.781-1.354l-7.581-13.111a.9.9,0,0,0-.781-.451h0a.905.905,0,0,0-.781.452l-7.561,13.121a.9.9,0,0,0,.782,1.353Zm10.57-7.016h0l3.007,5.2-12.015.008,6-10.412Z"/><path class="cls-2" d="M389.521,10.73a.9.9,0,0,0,.637-.638l3.91-14.632a.9.9,0,0,0-.234-.871.9.9,0,0,0-.872-.233l-14.624,3.93a.9.9,0,0,0-.637.639.9.9,0,0,0,.234.872l10.714,10.7a.9.9,0,0,0,.872.233Zm2.4-14.225L390.369,2.31h0l-1.551,5.8-8.5-8.491Z"/><path class="cls-2" d="M259.829,83.869a.9.9,0,0,0,.638-.639l3.91-14.631a.9.9,0,0,0-1.106-1.1l-14.624,3.931a.9.9,0,0,0-.4,1.51l10.714,10.7a.9.9,0,0,0,.637.264A.928.928,0,0,0,259.829,83.869Zm2.4-14.225-1.552,5.806h0l-1.551,5.8-8.5-8.491Z"/><path class="cls-2" d="M255.28,6l6.554-3.791h0l6.556-3.791a.9.9,0,0,0,.45-.782.9.9,0,0,0-.452-.781l-13.12-7.561a.9.9,0,0,0-.9,0,.9.9,0,0,0-.451.782l.01,15.142A.9.9,0,0,0,255.28,6Zm10.852-8.362L260.93.643h0l-5.2,3.009-.009-12.017Z"/><path class="cls-2" d="M323.688,94.454a6.647,6.647,0,1,0-6.647,6.647A6.655,6.655,0,0,0,323.688,94.454Zm-1.805,0a4.842,4.842,0,1,1-4.842-4.841A4.847,4.847,0,0,1,321.883,94.454Z"/><path class="cls-2" d="M349.637,86.772a.9.9,0,0,1-.9-.9,4.842,4.842,0,0,0-9.684,0,.9.9,0,1,1-1.805,0,6.647,6.647,0,0,1,13.294,0A.9.9,0,0,1,349.637,86.772Z"/><path class="cls-2" d="M238.346,95.331a6.621,6.621,0,1,1,0-13.241.9.9,0,0,1,0,1.8,4.816,4.816,0,1,0,0,9.631.9.9,0,0,1,0,1.805Z"/><path class="cls-2" d="M242.12,34.012a6.647,6.647,0,1,0-6.646,6.647A6.654,6.654,0,0,0,242.12,34.012Zm-1.8,0a4.842,4.842,0,1,1-4.842-4.841A4.847,4.847,0,0,1,240.316,34.012Z"/><path class="cls-2" d="M419.254,40.573a6.647,6.647,0,1,0-6.646,6.646A6.655,6.655,0,0,0,419.254,40.573Zm-1.805,0a4.842,4.842,0,1,1-4.841-4.842A4.846,4.846,0,0,1,417.449,40.573Z"/><path class="cls-2" d="M285.031,39.066V27.64a.9.9,0,0,0-.9-.9H272.7a.9.9,0,0,0-.9.9V39.066a.9.9,0,0,0,.9.9h11.425A.9.9,0,0,0,285.031,39.066ZM273.605,28.542h9.621v9.621h-9.621Z"/><path class="cls-2" d="M414.79,94.423V83a.9.9,0,0,0-.9-.9H402.462a.9.9,0,0,0-.9.9V94.423a.9.9,0,0,0,.9.9h11.426A.9.9,0,0,0,414.79,94.423ZM403.365,83.9h9.62v9.621h-9.62Z"/><path class="cls-2" d="M338.646,17.4c-1.709,0-2.453-1.377-3.05-2.483-.649-1.2-1.1-1.94-2.2-1.94a.9.9,0,0,1,0-1.805c2.227,0,3.128,1.669,3.785,2.887.59,1.092.887,1.536,1.462,1.536a.9.9,0,1,1,0,1.805Z"/><path class="cls-2" d="M349.14,17.4c-1.709,0-2.453-1.377-3.05-2.484-.669-1.238-1.1-1.939-2.2-1.939a.9.9,0,1,1,0-1.805c2.226,0,3.127,1.669,3.784,2.887.59,1.092.887,1.536,1.462,1.536a.9.9,0,1,1,0,1.805Z"/><path class="cls-2" d="M338.646,17.4a.9.9,0,0,1,0-1.805c.576,0,.873-.444,1.462-1.536.658-1.218,1.559-2.887,3.786-2.887a.9.9,0,0,1,0,1.805c-1.1,0-1.548.737-2.2,1.94C341.1,16.019,340.356,17.4,338.646,17.4Z"/><path class="cls-2" d="M354.387,12.07"/><path class="cls-2" d="M349.14,17.4a.9.9,0,0,1,0-1.805c.576,0,.873-.444,1.462-1.536.658-1.218,1.559-2.887,3.785-2.887a.9.9,0,1,1,0,1.805c-1.094,0-1.548.737-2.2,1.94C351.593,16.019,350.85,17.4,349.14,17.4Z"/><path class="cls-2" d="M368.541,99.781c-1.71,0-2.453-1.378-3.05-2.484-.65-1.2-1.1-1.94-2.2-1.94a.9.9,0,1,1,0-1.8c2.226,0,3.127,1.669,3.785,2.887.589,1.092.886,1.537,1.462,1.537a.9.9,0,0,1,0,1.805Z"/><path class="cls-2" d="M379.035,99.781c-1.71,0-2.453-1.378-3.05-2.484-.669-1.239-1.1-1.94-2.2-1.94a.9.9,0,1,1,0-1.8c2.227,0,3.127,1.668,3.785,2.887.589,1.091.886,1.536,1.462,1.536a.9.9,0,0,1,0,1.805Z"/><path class="cls-2" d="M368.541,99.781a.9.9,0,1,1,0-1.805c.576,0,.873-.445,1.462-1.536.658-1.219,1.559-2.887,3.785-2.887a.9.9,0,1,1,0,1.8c-1.094,0-1.548.738-2.2,1.94C370.994,98.4,370.251,99.781,368.541,99.781Z"/><path class="cls-2" d="M384.282,94.455"/><path class="cls-2" d="M379.035,99.781a.9.9,0,0,1,0-1.805c.575,0,.872-.445,1.461-1.536.658-1.219,1.559-2.887,3.785-2.887h0a.9.9,0,0,1,0,1.8h0c-1.1,0-1.528.7-2.2,1.94-.6,1.106-1.341,2.483-3.05,2.484Z"/><path class="cls-2" d="M390.136,64.273a.9.9,0,0,1-.9-.9c0-2.226,1.668-3.127,2.887-3.785,1.091-.589,1.536-.886,1.536-1.462a.9.9,0,1,1,1.805,0c0,1.71-1.377,2.453-2.484,3.05-1.239.669-1.939,1.1-1.939,2.2A.9.9,0,0,1,390.136,64.273Z"/><path class="cls-2" d="M390.136,53.779a.9.9,0,0,1-.9-.9c0-2.226,1.668-3.127,2.887-3.784,1.091-.59,1.536-.887,1.536-1.462a.9.9,0,1,1,1.805,0c0,1.709-1.377,2.453-2.484,3.05-1.239.669-1.939,1.1-1.939,2.2A.9.9,0,0,1,390.136,53.779Z"/><path class="cls-2" d="M394.559,59.026a.9.9,0,0,1-.9-.9c0-.576-.445-.873-1.536-1.462-1.219-.658-2.887-1.559-2.887-3.786a.9.9,0,0,1,1.805,0c0,1.1.7,1.529,1.939,2.2,1.107.6,2.484,1.341,2.484,3.051A.9.9,0,0,1,394.559,59.026Z"/><path class="cls-2" d="M390.136,42.383"/><path class="cls-2" d="M394.559,48.532a.9.9,0,0,1-.9-.9c0-.576-.445-.873-1.536-1.462-1.219-.658-2.887-1.559-2.887-3.785a.9.9,0,1,1,1.805,0c0,1.094.737,1.547,1.939,2.2,1.107.6,2.484,1.34,2.484,3.05A.9.9,0,0,1,394.559,48.532Z"/><path class="cls-2" d="M281.917,72.543a.9.9,0,0,1-.9-.9c0-2.226,1.669-3.127,2.888-3.784,1.091-.59,1.536-.887,1.536-1.462a.9.9,0,1,1,1.8,0c0,1.709-1.377,2.453-2.483,3.05-1.239.668-1.94,1.1-1.94,2.2A.9.9,0,0,1,281.917,72.543Z"/><path class="cls-2" d="M281.917,62.048a.9.9,0,0,1-.9-.9c0-2.226,1.669-3.127,2.887-3.784,1.092-.59,1.537-.887,1.537-1.463a.9.9,0,1,1,1.8,0c0,1.71-1.377,2.453-2.484,3.051-1.238.668-1.939,1.1-1.939,2.2A.9.9,0,0,1,281.917,62.048Z"/><path class="cls-2" d="M286.34,67.3a.9.9,0,0,1-.9-.9c0-.576-.445-.873-1.537-1.463-1.218-.658-2.887-1.559-2.887-3.785a.9.9,0,0,1,1.805,0c0,1.094.737,1.548,1.94,2.2,1.106.6,2.483,1.341,2.483,3.051A.9.9,0,0,1,286.34,67.3Z"/><path class="cls-2" d="M281.917,50.652"/><path class="cls-2" d="M286.34,56.8a.9.9,0,0,1-.9-.9c0-.575-.445-.872-1.537-1.462-1.218-.658-2.887-1.558-2.887-3.785a.9.9,0,0,1,1.805,0c0,1.095.737,1.548,1.94,2.2,1.106.6,2.483,1.341,2.483,3.05A.9.9,0,0,1,286.34,56.8Z"/><path class="cls-2" d="M364.168,29.171H351.22a.9.9,0,0,1,0-1.8h12.948a.9.9,0,0,1,0,1.8Z"/><path class="cls-2" d="M288.5,95.331H275.552a.9.9,0,1,1,0-1.805H288.5a.9.9,0,1,1,0,1.805Z"/><path class="cls-2" d="M308.8,70.317a.9.9,0,0,1-.638-1.541l9.155-9.155a.9.9,0,0,1,1.276,1.276l-9.155,9.155A.9.9,0,0,1,308.8,70.317Z"/><path class="cls-2" d="M409.7,5.364a.9.9,0,0,1-.638-1.541l9.155-9.155a.9.9,0,0,1,1.276,0,.9.9,0,0,1,0,1.276L410.336,5.1A.9.9,0,0,1,409.7,5.364Z"/><path class="cls-2" d="M342.3,59.687h0a3.153,3.153,0,1,0-1.68.487A3.143,3.143,0,0,0,342.3,59.686Zm-.477-.765h0Zm-.907-3.239a1.348,1.348,0,1,1-.305-.035A1.386,1.386,0,0,1,340.916,55.683Z"/><path class="cls-2" d="M242.932,16.589h0a3.15,3.15,0,1,0-1.68.487A3.145,3.145,0,0,0,242.933,16.589Zm-.476-.764h0Zm-.908-3.24a1.359,1.359,0,1,1-1.451,2.049,1.361,1.361,0,0,1,.426-1.874,1.346,1.346,0,0,1,.72-.209A1.371,1.371,0,0,1,241.548,12.585Z"/><path class="cls-2" d="M422.529,24.858h0a3.167,3.167,0,1,0-1.68.485A3.141,3.141,0,0,0,422.529,24.858Zm-.477-.764h0Zm-.058-2.638a1.362,1.362,0,1,1-1.153-.635A1.355,1.355,0,0,1,421.994,21.456Z"/><path class="cls-2" d="M83.729,19.976a.9.9,0,0,1-.617-.244l-5.506-5.163a.9.9,0,0,1,1.235-1.317l5.506,5.164a.9.9,0,0,1-.618,1.56Z"/><path class="cls-2" d="M78.394,20.148a.9.9,0,0,1-.658-1.519L82.9,13.123a.9.9,0,1,1,1.316,1.235l-5.164,5.5A.9.9,0,0,1,78.394,20.148Z"/><path class="cls-2" d="M16.738,64.231a.9.9,0,0,1-.617-.244l-5.506-5.164a.9.9,0,0,1,1.235-1.317l5.506,5.164a.9.9,0,0,1-.618,1.561Z"/><path class="cls-2" d="M11.4,64.4a.9.9,0,0,1-.658-1.52l5.164-5.506a.9.9,0,0,1,1.316,1.235l-5.164,5.505A.9.9,0,0,1,11.4,64.4Z"/><path class="cls-2" d="M172.021,30.014a.9.9,0,0,1-.618-.245l-5.5-5.163a.9.9,0,1,1,1.235-1.316l5.5,5.163a.9.9,0,0,1-.617,1.561Z"/><path class="cls-2" d="M166.685,30.186a.9.9,0,0,1-.658-1.52l5.164-5.506a.9.9,0,0,1,1.317,1.235L167.343,29.9A.9.9,0,0,1,166.685,30.186Z"/><path class="cls-2" d="M167.745,79.946a.9.9,0,0,1-.618-.244l-5.5-5.164a.9.9,0,1,1,1.235-1.316l5.5,5.163a.9.9,0,0,1-.617,1.561Z"/><path class="cls-2" d="M162.409,80.118a.9.9,0,0,1-.658-1.52l5.164-5.5a.9.9,0,0,1,1.317,1.234l-5.165,5.506A.9.9,0,0,1,162.409,80.118Z"/><path class="cls-2" d="M94.432,35.731l15.142-.01a.9.9,0,0,0,.781-1.354l-7.581-13.11a.9.9,0,0,0-.781-.451h0a.9.9,0,0,0-.781.452l-7.562,13.12a.9.9,0,0,0,.782,1.353ZM105,28.716h0l3.008,5.2-12.016.008,6-10.411Z"/><path class="cls-2" d="M137.873,60.34l15.142-.01a.9.9,0,0,0,.781-1.354l-7.581-13.111a.9.9,0,0,0-.782-.451h0a.9.9,0,0,0-.781.452L137.09,58.987a.9.9,0,0,0,.782,1.353Zm10.57-7.016h0l3.007,5.2-12.015.008,6-10.412Z"/><path class="cls-2" d="M172.489,10.73a.9.9,0,0,0,.638-.638l3.91-14.632a.9.9,0,0,0-.235-.871.9.9,0,0,0-.872-.233l-14.623,3.93a.9.9,0,0,0-.638.639A.9.9,0,0,0,160.9-.2l10.714,10.7a.9.9,0,0,0,.872.233Zm2.4-14.225L173.337,2.31h0l-1.55,5.8-8.5-8.491Z"/><path class="cls-2" d="M42.8,83.869a.9.9,0,0,0,.637-.639L47.345,68.6a.9.9,0,0,0-1.106-1.1L31.615,71.426a.9.9,0,0,0-.4,1.51l10.714,10.7a.9.9,0,0,0,.638.264A.94.94,0,0,0,42.8,83.869Zm2.4-14.225L43.646,75.45h0l-1.551,5.8-8.5-8.491Z"/><path class="cls-2" d="M38.248,6,44.8,2.206h0l6.556-3.791a.9.9,0,0,0,.45-.782.9.9,0,0,0-.451-.781l-13.12-7.561a.9.9,0,0,0-.9,0,.9.9,0,0,0-.451.782l.011,15.142A.9.9,0,0,0,38.248,6ZM49.1-2.365,43.9.643h0L38.7,3.652,38.69-8.365Z"/><path class="cls-2" d="M106.656,94.454a6.647,6.647,0,1,0-6.646,6.647A6.654,6.654,0,0,0,106.656,94.454Zm-1.805,0a4.842,4.842,0,1,1-4.841-4.841A4.847,4.847,0,0,1,104.851,94.454Z"/><path class="cls-2" d="M132.606,86.772a.9.9,0,0,1-.9-.9,4.842,4.842,0,0,0-9.684,0,.9.9,0,1,1-1.805,0,6.647,6.647,0,0,1,13.294,0A.9.9,0,0,1,132.606,86.772Z"/><path class="cls-2" d="M21.314,95.331a6.621,6.621,0,1,1,0-13.241.9.9,0,0,1,0,1.8,4.816,4.816,0,1,0,0,9.631.9.9,0,0,1,0,1.805Z"/><path class="cls-2" d="M25.089,34.012a6.647,6.647,0,1,0-6.647,6.647A6.655,6.655,0,0,0,25.089,34.012Zm-1.8,0a4.842,4.842,0,1,1-4.842-4.841A4.847,4.847,0,0,1,23.284,34.012Z"/><path class="cls-2" d="M202.222,40.573a6.647,6.647,0,1,0-6.646,6.646A6.654,6.654,0,0,0,202.222,40.573Zm-1.805,0a4.842,4.842,0,1,1-4.841-4.842A4.846,4.846,0,0,1,200.417,40.573Z"/><path class="cls-2" d="M68,39.066V27.64a.9.9,0,0,0-.9-.9H55.671a.9.9,0,0,0-.9.9V39.066a.9.9,0,0,0,.9.9H67.1A.9.9,0,0,0,68,39.066ZM56.573,28.542h9.621v9.621H56.573Z"/><path class="cls-2" d="M197.759,94.423V83a.9.9,0,0,0-.9-.9H185.431a.9.9,0,0,0-.9.9V94.423a.9.9,0,0,0,.9.9h11.425A.9.9,0,0,0,197.759,94.423ZM186.333,83.9h9.621v9.621h-9.621Z"/><path class="cls-2" d="M121.615,17.4c-1.71,0-2.453-1.377-3.051-2.483-.649-1.2-1.1-1.94-2.2-1.94a.9.9,0,0,1,0-1.805c2.227,0,3.128,1.669,3.786,2.887.589,1.092.886,1.536,1.462,1.536a.9.9,0,0,1,0,1.805Z"/><path class="cls-2" d="M132.109,17.4c-1.71,0-2.453-1.377-3.051-2.484-.668-1.238-1.1-1.939-2.2-1.939a.9.9,0,0,1,0-1.805c2.226,0,3.127,1.669,3.785,2.887.589,1.092.886,1.536,1.462,1.536a.9.9,0,0,1,0,1.805Z"/><path class="cls-2" d="M121.615,17.4a.9.9,0,1,1,0-1.805c.575,0,.872-.444,1.462-1.536.657-1.218,1.558-2.887,3.785-2.887a.9.9,0,0,1,0,1.805c-1.095,0-1.548.737-2.2,1.94C124.068,16.019,123.324,17.4,121.615,17.4Z"/><path class="cls-2" d="M137.355,12.07"/><path class="cls-2" d="M132.109,17.4a.9.9,0,1,1,0-1.805c.575,0,.872-.444,1.461-1.536.658-1.218,1.559-2.887,3.785-2.887a.9.9,0,1,1,0,1.805c-1.094,0-1.547.737-2.2,1.94C134.561,16.019,133.818,17.4,132.109,17.4Z"/><path class="cls-2" d="M151.509,99.781c-1.709,0-2.453-1.378-3.05-2.484-.649-1.2-1.1-1.94-2.2-1.94a.9.9,0,1,1,0-1.8c2.227,0,3.127,1.669,3.785,2.887.589,1.092.887,1.537,1.462,1.537a.9.9,0,1,1,0,1.805Z"/><path class="cls-2" d="M162,99.781c-1.709,0-2.453-1.378-3.05-2.484-.669-1.239-1.1-1.94-2.2-1.94a.9.9,0,1,1,0-1.8c2.226,0,3.127,1.668,3.784,2.887.589,1.091.887,1.536,1.462,1.536a.9.9,0,1,1,0,1.805Z"/><path class="cls-2" d="M151.509,99.781a.9.9,0,0,1,0-1.805c.576,0,.873-.445,1.462-1.536.658-1.219,1.559-2.887,3.786-2.887a.9.9,0,1,1,0,1.8c-1.095,0-1.548.738-2.2,1.94C153.962,98.4,153.219,99.781,151.509,99.781Z"/><path class="cls-2" d="M167.25,94.455"/><path class="cls-2" d="M162,99.781a.9.9,0,0,1,0-1.805c.575,0,.873-.445,1.462-1.536.658-1.219,1.558-2.887,3.784-2.887h0a.9.9,0,0,1,0,1.8h0c-1.1,0-1.527.7-2.2,1.94-.6,1.106-1.34,2.483-3.05,2.484Z"/><path class="cls-2" d="M173.1,64.273a.9.9,0,0,1-.9-.9c0-2.226,1.669-3.127,2.887-3.785,1.091-.589,1.536-.886,1.536-1.462a.9.9,0,1,1,1.805,0c0,1.71-1.377,2.453-2.484,3.05-1.238.669-1.939,1.1-1.939,2.2A.9.9,0,0,1,173.1,64.273Z"/><path class="cls-2" d="M173.1,53.779a.9.9,0,0,1-.9-.9c0-2.226,1.669-3.127,2.887-3.784,1.091-.59,1.536-.887,1.536-1.462a.9.9,0,1,1,1.805,0c0,1.709-1.377,2.453-2.484,3.05-1.238.669-1.939,1.1-1.939,2.2A.9.9,0,0,1,173.1,53.779Z"/><path class="cls-2" d="M177.528,59.026a.9.9,0,0,1-.9-.9c0-.576-.444-.873-1.536-1.462C173.871,56,172.2,55.1,172.2,52.876a.9.9,0,0,1,1.805,0c0,1.1.7,1.529,1.939,2.2,1.107.6,2.484,1.341,2.484,3.051A.9.9,0,0,1,177.528,59.026Z"/><path class="cls-2" d="M173.1,42.383"/><path class="cls-2" d="M177.528,48.532a.9.9,0,0,1-.9-.9c0-.576-.444-.873-1.536-1.462-1.218-.658-2.887-1.559-2.887-3.785a.9.9,0,1,1,1.805,0c0,1.094.737,1.547,1.939,2.2,1.107.6,2.484,1.34,2.484,3.05A.9.9,0,0,1,177.528,48.532Z"/><path class="cls-2" d="M64.885,72.543a.9.9,0,0,1-.9-.9c0-2.226,1.668-3.127,2.887-3.784,1.091-.59,1.536-.887,1.536-1.462a.9.9,0,1,1,1.8,0c0,1.709-1.378,2.453-2.484,3.05-1.239.668-1.94,1.1-1.94,2.2A.9.9,0,0,1,64.885,72.543Z"/><path class="cls-2" d="M64.885,62.048a.9.9,0,0,1-.9-.9c0-2.226,1.668-3.127,2.887-3.784,1.091-.59,1.536-.887,1.536-1.463a.9.9,0,0,1,1.8,0c0,1.71-1.378,2.453-2.484,3.051-1.239.668-1.94,1.1-1.94,2.2A.9.9,0,0,1,64.885,62.048Z"/><path class="cls-2" d="M69.308,67.3a.9.9,0,0,1-.9-.9c0-.576-.445-.873-1.537-1.463-1.218-.658-2.886-1.559-2.886-3.785a.9.9,0,0,1,1.8,0c0,1.094.737,1.548,1.94,2.2,1.106.6,2.484,1.341,2.484,3.051A.9.9,0,0,1,69.308,67.3Z"/><path class="cls-2" d="M64.885,50.652"/><path class="cls-2" d="M69.308,56.8a.9.9,0,0,1-.9-.9c0-.575-.445-.872-1.536-1.462-1.219-.658-2.887-1.558-2.887-3.785a.9.9,0,1,1,1.8,0c0,1.095.738,1.548,1.94,2.2,1.107.6,2.484,1.341,2.484,3.05A.9.9,0,0,1,69.308,56.8Z"/><path class="cls-2" d="M147.136,29.171H134.188a.9.9,0,0,1,0-1.8h12.948a.9.9,0,0,1,0,1.8Z"/><path class="cls-2" d="M71.467,95.331H58.52a.9.9,0,1,1,0-1.805H71.467a.9.9,0,1,1,0,1.805Z"/><path class="cls-2" d="M91.766,70.317a.9.9,0,0,1-.638-1.541l9.155-9.155a.9.9,0,0,1,1.276,1.276L92.4,70.052A.9.9,0,0,1,91.766,70.317Z"/><path class="cls-2" d="M192.666,5.364a.9.9,0,0,1-.638-1.541l9.156-9.155a.9.9,0,0,1,1.276,0,.9.9,0,0,1,0,1.276L193.3,5.1A.9.9,0,0,1,192.666,5.364Z"/><path class="cls-2" d="M125.268,59.687h0a3.153,3.153,0,1,0-1.68.487A3.143,3.143,0,0,0,125.269,59.686Zm-.477-.765h0Zm-.907-3.239a1.348,1.348,0,1,1-.305-.035A1.379,1.379,0,0,1,123.884,55.683Z"/><path class="cls-2" d="M25.9,16.589h0a3.15,3.15,0,1,0-1.68.487A3.141,3.141,0,0,0,25.9,16.589Zm-.476-.764h0Zm-.907-3.24a1.358,1.358,0,1,1-.3-.034A1.384,1.384,0,0,1,24.517,12.585Z"/><path class="cls-2" d="M205.5,24.858h0a3.166,3.166,0,1,0-1.68.485A3.146,3.146,0,0,0,205.5,24.858Zm-.477-.764h0Zm-.058-2.638a1.36,1.36,0,0,1-.426,1.875,1.36,1.36,0,1,1,.426-1.875Z"/></pattern></defs><title>prueba1</title><polygon class="cls-3" points="1366 558.786 679.215 609.185 0 558.786 0 11.333 1366 11.333 1366 558.786"/><polygon class="cls-4" points="1366 547.453 679.215 597.852 0 547.453 0 0 1366 0 1366 547.453"/><polygon class="cls-5" points="1366.764 547.453 679.979 597.852 0.764 547.453 0.764 0 1366.764 0 1366.764 547.453"/></svg>