<svg id="Capa_1" data-name="Capa 1" xmlns="http://www.w3.org/2000/svg" viewBox="0 0 195.81 59.93"><defs><style>.cls-1{fill:#70438d;}.cls-1,.cls-2{opacity:0.7;}.cls-2{fill:none;stroke:#fff;stroke-miterlimit:10;stroke-dasharray:7;}</style></defs><title>prueba</title><path class="cls-1" d="M194.51,3.37a1.54,1.54,0,0,0,1.62,1.42v1.6a1.53,1.53,0,0,0-1.62,1.41,1.54,1.54,0,0,0,1.62,1.43v1.59a1.54,1.54,0,0,0-1.62,1.42,1.54,1.54,0,0,0,1.62,1.42v1.59a1.54,1.54,0,0,0-1.62,1.42,1.54,1.54,0,0,0,1.62,1.42v.76h-.25a13,13,0,0,0,0,26h.25v1.51a1.6,1.6,0,0,0-1.52,1,1,1,0,0,0-.1.45,1.54,1.54,0,0,0,1.62,1.42v1.6a1.43,1.43,0,1,0,0,2.83v1.6a1.43,1.43,0,1,0,0,2.83V59.6a1.75,1.75,0,0,0-1,.33H1.34a1.77,1.77,0,0,0-1-.33V58a1.53,1.53,0,0,0,1.62-1.41A1.54,1.54,0,0,0,.32,55.16v-1.6a1.43,1.43,0,1,0,0-2.83v-1.6a1.54,1.54,0,0,0,1.62-1.42,1,1,0,0,0-.1-.45,1.6,1.6,0,0,0-1.52-1v-1.5a13,13,0,0,0,0-25.95v-.75a1.54,1.54,0,0,0,1.62-1.42A1.54,1.54,0,0,0,.32,15.25V13.66a1.54,1.54,0,0,0,1.62-1.42A1.54,1.54,0,0,0,.32,10.82V9.23A1.54,1.54,0,0,0,1.94,7.8,1.53,1.53,0,0,0,.32,6.39V4.79A1.54,1.54,0,0,0,1.94,3.37,1.53,1.53,0,0,0,.32,2V.36A1.72,1.72,0,0,0,1.38,0H195.06a1.77,1.77,0,0,0,1.07.36V2A1.53,1.53,0,0,0,194.51,3.37Z" transform="translate(-0.32)"/><line class="cls-2" x1="28.46" y1="9.59" x2="168.02" y2="9.59"/><line class="cls-2" x1="28.46" y1="49.89" x2="168.02" y2="49.89"/></svg>