<svg xmlns="http://www.w3.org/2000/svg" viewBox="0 0 56.05 18.39"><defs><style>.cls-1{font-size:13px;font-family:SinkinSans-300Light, SinkinSans 300Light;}.cls-1,.cls-3{fill:#fff;}.cls-2{letter-spacing:-0.08em;}</style></defs><title>Recurso 10</title><g id="Capa_2" data-name="Capa 2"><g id="Capa_1-2" data-name="Capa 1"><g id="_Grupo_" data-name="&lt;Grupo&gt;"><text class="cls-1" transform="translate(26.26 14.84)">RI<tspan class="cls-2" x="10.1" y="0">F</tspan><tspan x="15.42" y="0">AS</tspan></text></g><path class="cls-3" d="M15.71,4.21l-.38.39a1.1,1.1,0,0,1-1.54,0,1.09,1.09,0,0,1,0-1.53l.39-.39L11.49,0,0,11.49l2.68,2.69.39-.39a1.09,1.09,0,0,1,1.53,0,1.1,1.1,0,0,1,0,1.54l-.39.38L6.9,18.39,18.39,6.9Zm-3-1.48a2.17,2.17,0,0,0,3,3l1.2,1.2-4.6,4.59L6.9,6.13l4.59-4.6Zm-7,12.93a2.17,2.17,0,0,0-3-3l-1.2-1.2L6.13,6.9l5.36,5.36L6.9,16.86Z"/></g></g></svg>